<svg width="31.413mm" height="31.646mm" version="1.1" viewBox="0 0 31.413 31.646" xmlns="http://www.w3.org/2000/svg">
 <g transform="translate(-.6786 -1.911)" stroke-width=".26458" aria-label="Anything But Conservative">
  <g fill="#333">
   <path d="m14.098 19.386-1.5503-4.4648h-6.6601l-1.5503 4.4648h-3.6587l6.3748-17.475h4.316l6.35 17.475zm-4.8865-14.784-0.074414 0.27285q-0.12402 0.44648-0.29766 1.017t-2.1332 6.2756h5.0229l-1.7239-5.0229-0.5333-1.6867z"/>
   <path d="m32.091 14.4q0 2.3812-1.7859 3.6835-1.7859 1.3022-4.9609 1.3022h-8.7437v-17.475h7.9995q3.1998 0 4.8369 1.1162 1.6495 1.1038 1.6495 3.2742 0 1.4883-0.83096 2.5177-0.81855 1.017-2.5053 1.3767 2.1208 0.24805 3.2246 1.3395 1.1162 1.079 1.1162 2.8649zm-4.6881-7.6026q0-1.1782-0.75654-1.6743-0.74414-0.49609-2.22-0.49609h-4.1672v4.3284h4.192q1.5503 0 2.2448-0.5333 0.70693-0.5457 0.70693-1.6247zm1.017 7.3174q0-2.4557-3.5223-2.4557h-4.6385v5.0105h4.7749q1.7611 0 2.5673-0.63252 0.81855-0.64492 0.81855-1.9224z"/>
  </g>
  <g fill="#a60000">
   <g id="conservative">
    <path d="m16.948 30.679q3.3114 0 4.6013-3.3238l3.1874 1.203q-1.0294 2.5301-3.0262 3.7703-1.9844 1.2278-4.7625 1.2278-4.2168 0-6.5236-2.3812-2.2944-2.3937-2.2944-6.6849 0-4.3036 2.22-6.6104 2.22-2.3068 6.4368-2.3068 3.0758 0 5.0105 1.2402 1.9348 1.2278 2.7161 3.6215l-3.2246 0.88057q-0.40928-1.3146-1.6123-2.0836-1.1906-0.78135-2.8153-0.78135-2.4805 0-3.7703 1.5379-1.2774 1.5379-1.2774 4.5021 0 3.0138 1.3146 4.6013 1.3271 1.5875 3.8199 1.5875z"/>
   </g>
  </g>
 </g>
</svg>
