<svg version="1.1" viewBox="0 0 65.632 58.557" xmlns="http://www.w3.org/2000/svg">
 <g transform="matrix(.97156 0 0 .97156 -.045224 -.013852)">
  <g fill="#18283d">
   <path class="st0" d="m23.6 6.9c0.5 1.7-0.2 3.5-1.3 4.7-2.2 2.3-5.8 1.6-7.5 4.6-0.9 2.7-3.5 5.5-6.5 5.6-1.7 0.4-3.8 0-5.3 1-1 1.5-0.4 3.6-0.1 5.2-1.6-0.4-2.4-2.1-2.8-3.5-0.1-1.4-0.2-3.2 1.1-3.9 2.8 0 5.3-1 7.8-1.8 2.9-1.2 2.9-5 5.8-6.4 2.3-0.7 5-0.9 6.6-3 0.3-0.5 0.3-1.4 0.2-1.9-0.2-0.5-0.7-1-1.2-1.2-0.5-0.1-1.3-0.3-1.6 0.2-0.1 0-0.2 0.1-0.2-0.1 0.4-1.1 1.5-1.5 2.5-1.5 0.9 0.3 2.2 0.8 2.5 2"/>
   <path class="st0" d="m50.8 17c0.2-0.1 0.4-0.3 0.7-0.3 0.1 1-1.1 1.4-1.8 1.8-3.6 1-6.8-0.5-9.5-2.5-3.4-1.8-8-2.8-11.3-0.1-0.3-0.2-0.1-0.7 0-1 2.1-2.6 5.2-4 8.6-3.4 3.7 0.9 6.5 4 10 5.4 1 0.4 2.2 0.2 3.3 0.1"/>
   <path class="st0" d="m55.6 18.9c2.3 3.9 6.9 4.5 10.1 7.4 1.2 1.5 1.9 3.2 1.9 5.2 0 0.1-0.1 0.1-0.2 0.1-2.3-4.9-8.3-3.9-11-8.2-1.2-1.8-1.9-3.9-2-6.1l0.1-0.2c0.7 0.4 0.7 1.2 1.1 1.8"/>
   <path class="st0" d="m22.6 19.2c-0.1 0.4-0.5 0.5-0.7 0.8-1.1 0.9-2.3 1.6-3.2 2.7-0.6 0.1-1.1-0.1-1.5-0.5-0.5-0.4-0.4-1.2-0.5-1.8 0.9-0.3 1.9-0.6 2.8-0.7 0.9-0.4 2-0.2 2.7-0.7 0.1 0.1 0.4-0.1 0.4 0.2"/>
   <path class="st0" d="m44.5 27.2c2.4 1.3 5.7 2.2 8.2 0.6 0.3 0.6-0.7 0.9-0.9 1.4-2 1.4-4.7 1.8-7.1 1-3.9-1.2-6.9-4.7-11.1-5.5-0.7 0-1.3 0.6-1.9 0.2 1.2-1.5 3.3-2.1 5.3-1.6 2.7 0.9 5 2.7 7.5 3.9"/>
   <path class="st0" d="m9.1 26.1v0.5c-1.3 1.1-2.6 2.4-4.3 2.1 0.2-0.3 0.6-0.5 1-0.7 0.8-0.8 1-1.8 1-2.8 0.8 0.2 1.5 0.6 2.3 0.9"/>
   <path class="st0" d="m30 26.2c0.1 4.5-5.3 4.6-7 7.9-0.2 0-0.3-0.1-0.4-0.1-0.4-1.2 0-2.2 0.5-3.3 1.7-2.6 5.4-2.3 6.4-5.4 0.5 0 0.4 0.6 0.5 0.9"/>
   <path class="st0" d="m3.6 29.6c-0.1 3.1 0.5 5.9 2.8 7.9 3.6-2.5 7.7-3.9 12.2-4.1 0.3 0.1 0.8 0.2 0.5 0.7-1.5 1.7-1.7 4.1-2.6 6.1-1.2 0-1.9-1-2.9-1.2-2-1-4.7-0.5-6.3 0.7-1.2 1.3-1.5 3.2-1.3 4.8 0.5 1.1 1.4 2 2.4 2.4l-0.4 0.3c-1.6-0.2-3-0.9-3.9-2.3-0.8-1.8-0.9-4.3 0.2-6-2.4-2.3-2.4-6.4-1.2-9.2 0.1-0.2 0.4-0.5 0.5-0.1"/>
   <path class="st0" d="m18.2 49.5c-0.6 4-1 8.4-4.8 10.7-0.3 0.2-0.6 0-0.8-0.1 0.4-0.6 1.1-0.9 1.4-1.7 1.4-3.9-0.4-8.9 2.2-12.4-1.7 0-3.3 0.6-4.8 1.5-0.7 0.6-1.2 1.5-1.3 2.4v0.1c-0.5-0.5-0.3-1.3-0.4-2 0.4-2.4 2.5-4.3 4.8-4.9 1.9-0.6 4.4-0.2 6-1.9 1-1.2 1.7-2.6 2-4.1 1.2 4.9-3.4 8-4.3 12.4"/>
  </g>
  <g fill="#c8292b">
   <path class="st1" d="m31.8 2.1c5.7-1.1 11.6 0.1 15.6 4 3.5 3.3 6 9.7 11.8 8.7 0.3 0.1 1 0.1 1.4 0 0.1 0.6-0.6 0.6-0.9 0.9-0.8 0.3-1.6 0.5-2.5 0.7-6.3 0.1-9.7-7.1-14.9-9.6-3.4-2-7.8-2.3-11.7-2-1.5 0.3-2.8 0.7-4 1.6-0.1 0-0.2 0-0.3-0.1 0.3-0.9 1-1.9 1.9-2.4-2-1.6-5.2-1.9-7.6-0.8-0.5 0.2-0.9 0.6-1.4 0.8 0.1-1.2 1.2-1.7 2-2.5 1.6-1.1 3.6-1.6 5.6-1.3 1.8 0.3 3.5 0.9 5 2"/>
   <path class="st1" d="m39.1 18.7c3.2 1.4 6 3.5 9.5 4.1 1.3 0.2 2.3-0.1 3.4-0.7 0.4 0.3-0.1 0.7-0.2 1-1.6 1.6-4.5 2.4-6.7 1.5-4.7-1.5-8.7-5.5-14-4.5-0.1 0.2-0.3 0.2-0.4 0.3-0.6-1.2 0.9-1.3 1.4-2 2.2-1.1 4.9-0.9 7 0.3"/>
   <path class="st1" d="m33.5 30.2c0.6 2.2 0.8 4.9 0.1 7.2-2.1 5.5-5.9 10.6-6.1 16.9l0.2 1.8c0.1 0.2 0.3 0.4 0.2 0.6s-0.4 0.2-0.5 0.1c-1.9-2.9-1.5-6.6-1.2-10.1 0.5-3.2 2.6-5.8 4.1-8.6 1.4-2.8 2.6-6 1.9-9.2 0-0.3 0.5-0.2 0.7-0.1"/>
  </g>
 </g>
</svg>
