<svg version="1.1" viewBox="0 0 153.33 75.185" xmlns="http://www.w3.org/2000/svg">
 <g transform="translate(-.045 -.014) scale(.97156)">
  <g fill="#18283d">
   <path class="st0" d="M23.6 6.9c.5 1.7-.2 3.5-1.3 4.7-2.2 2.3-5.8 1.6-7.5 4.6-.9 2.7-3.5 5.5-6.5 5.6-1.7.4-3.8 0-5.3 1-1 1.5-.4 3.6-.1 5.2-1.6-.4-2.4-2.1-2.8-3.5-.1-1.4-.2-3.2 1.1-3.9 2.8 0 5.3-1 7.8-1.8 2.9-1.2 2.9-5 5.8-6.4 2.3-.7 5-.9 6.6-3 .3-.5.3-1.4.2-1.9-.2-.5-.7-1-1.2-1.2-.5-.1-1.3-.3-1.6.2-.1 0-.2.1-.2-.1.4-1.1 1.5-1.5 2.5-1.5.9.3 2.2.8 2.5 2"/>
   <path class="st0" d="M50.8 17c.2-.1.4-.3.7-.3.1 1-1.1 1.4-1.8 1.8-3.6 1-6.8-.5-9.5-2.5-3.4-1.8-8-2.8-11.3-.1-.3-.2-.1-.7 0-1 2.1-2.6 5.2-4 8.6-3.4 3.7.9 6.5 4 10 5.4 1 .4 2.2.2 3.3.1"/>
   <path class="st0" d="M55.6 18.9c2.3 3.9 6.9 4.5 10.1 7.4 1.2 1.5 1.9 3.2 1.9 5.2 0 .1-.1.1-.2.1-2.3-4.9-8.3-3.9-11-8.2-1.2-1.8-1.9-3.9-2-6.1l.1-.2c.7.4.7 1.2 1.1 1.8"/>
   <path class="st0" d="M22.6 19.2c-.1.4-.5.5-.7.8-1.1.9-2.3 1.6-3.2 2.7-.6.1-1.1-.1-1.5-.5-.5-.4-.4-1.2-.5-1.8.9-.3 1.9-.6 2.8-.7.9-.4 2-.2 2.7-.7.1.1.4-.1.4.2"/>
   <path class="st0" d="M44.5 27.2c2.4 1.3 5.7 2.2 8.2.6.3.6-.7.9-.9 1.4-2 1.4-4.7 1.8-7.1 1-3.9-1.2-6.9-4.7-11.1-5.5-.7 0-1.3.6-1.9.2 1.2-1.5 3.3-2.1 5.3-1.6 2.7.9 5 2.7 7.5 3.9"/>
   <path class="st0" d="M9.1 26.1v.5c-1.3 1.1-2.6 2.4-4.3 2.1.2-.3.6-.5 1-.7.8-.8 1-1.8 1-2.8.8.2 1.5.6 2.3.9"/>
   <path class="st0" d="M30 26.2c.1 4.5-5.3 4.6-7 7.9-.2 0-.3-.1-.4-.1-.4-1.2 0-2.2.5-3.3 1.7-2.6 5.4-2.3 6.4-5.4.5 0 .4.6.5.9"/>
   <path class="st0" d="M3.6 29.6c-.1 3.1.5 5.9 2.8 7.9 3.6-2.5 7.7-3.9 12.2-4.1.3.1.8.2.5.7-1.5 1.7-1.7 4.1-2.6 6.1-1.2 0-1.9-1-2.9-1.2-2-1-4.7-.5-6.3.7C6.1 41 5.8 42.9 6 44.5c.5 1.1 1.4 2 2.4 2.4l-.4.3c-1.6-.2-3-.9-3.9-2.3-.8-1.8-.9-4.3.2-6-2.4-2.3-2.4-6.4-1.2-9.2.1-.2.4-.5.5-.1"/>
   <path class="st0" d="M18.2 49.5c-.6 4-1 8.4-4.8 10.7-.3.2-.6 0-.8-.1.4-.6 1.1-.9 1.4-1.7 1.4-3.9-.4-8.9 2.2-12.4-1.7 0-3.3.6-4.8 1.5-.7.6-1.2 1.5-1.3 2.4v.1c-.5-.5-.3-1.3-.4-2 .4-2.4 2.5-4.3 4.8-4.9 1.9-.6 4.4-.2 6-1.9 1-1.2 1.7-2.6 2-4.1 1.2 4.9-3.4 8-4.3 12.4"/>
  </g>
  <g fill="#c8292b">
   <path class="st1" d="M31.8 2.1c5.7-1.1 11.6.1 15.6 4 3.5 3.3 6 9.7 11.8 8.7.3.1 1 .1 1.4 0 .1.6-.6.6-.9.9-.8.3-1.6.5-2.5.7-6.3.1-9.7-7.1-14.9-9.6-3.4-2-7.8-2.3-11.7-2-1.5.3-2.8.7-4 1.6-.1 0-.2 0-.3-.1.3-.9 1-1.9 1.9-2.4-2-1.6-5.2-1.9-7.6-.8-.5.2-.9.6-1.4.8.1-1.2 1.2-1.7 2-2.5C22.8.3 24.8-.2 26.8.1c1.8.3 3.5.9 5 2"/>
   <path class="st1" d="M39.1 18.7c3.2 1.4 6 3.5 9.5 4.1 1.3.2 2.3-.1 3.4-.7.4.3-.1.7-.2 1-1.6 1.6-4.5 2.4-6.7 1.5-4.7-1.5-8.7-5.5-14-4.5-.1.2-.3.2-.4.3-.6-1.2.9-1.3 1.4-2 2.2-1.1 4.9-.9 7 .3"/>
   <path class="st1" d="M33.5 30.2c.6 2.2.8 4.9.1 7.2-2.1 5.5-5.9 10.6-6.1 16.9l.2 1.8c.1.2.3.4.2.6-.1.2-.4.2-.5.1-1.9-2.9-1.5-6.6-1.2-10.1.5-3.2 2.6-5.8 4.1-8.6 1.4-2.8 2.6-6 1.9-9.2 0-.3.5-.2.7-.1"/>
   <path class="st1" d="M54.3 35.3c16 0 22.8 6.6 20.4 19.7-1.4 7.7-5.1 13.7-10.5 17.4-5.2 3.5-10.8 4.4-18.2 4.4H30.5l8.4-41.5m4.4 32.6h4.9c8.2 0 13.9-4.6 15.2-11.8 1.5-8.1-2.1-12.4-10.5-12.4h-4.8z"/>
   <path class="st1" d="M93.1 35.3l-4.9 24.4c0 .1 0 .2-.1.4-1 5.2 1.2 7.9 6.4 7.9 5.6 0 8.3-2.9 9.6-9.4l5.2-23.2h11.1L115 59.7c-2.3 11.7-10 17.7-22.6 17.7-12.5 0-17.9-5.8-15.8-17 0-.2.1-.3.1-.5l5-24.6"/>
   <path class="st1" d="M142.8 35.3c11.6 0 16.5 4.4 14.7 13.1-1.6 8.1-9.1 13.5-19.1 13.5h-7.8l-3.3 14.9H115l9.2-41.5m7.8 19.2h4.6c5.1 0 8.4-2.2 9.1-6 .8-4-1.3-6-6.4-6h-4.8z"/>
  </g>
 </g>
</svg>
