<svg width="50mm" height="53.264mm" clip-rule="evenodd" fill-rule="evenodd" image-rendering="optimizeQuality" shape-rendering="geometricPrecision" text-rendering="geometricPrecision" version="1.1" viewBox="0 0 1213 1292" xml:space="preserve" xmlns="http://www.w3.org/2000/svg">
 <defs>
  <style type="text/css">
   <![CDATA[
    .fil0 {fill:white}
    .fil1 {fill:#67B437;fill-rule:nonzero}
   ]]>
  </style>
 </defs>
 
  
  
   <circle class="fil0" transform="matrix(.35652 .33112 -.31639 .32932 615.66 593.31)" r="643"/>
   <path class="fil1" d="m140 1080c-13-4-29-7-45-7-56 0-90 35-90 85 0 49 30 79 81 79 19 0 39-4 55-10v-77h-33v54c-6 2-12 3-19 3-31 0-48-19-48-51 0-34 21-54 52-54 15 0 29 3 42 8l5-30zm98 35c-21-2-32 10-38 25 1-8 1-17 1-23h-30v117h33v-48c0-31 10-44 32-39l2-32zm116 53c0-30-15-53-50-53-36 0-56 26-56 62 0 41 21 60 59 60 15 0 30-3 43-8l-3-25c-11 5-23 8-35 8-20 0-31-10-31-30h72c1-5 1-10 1-14zm-72-8c1-13 9-22 21-22s19 8 19 22h-40zm194 8c0-30-16-53-50-53-36 0-56 26-56 62 0 41 21 60 59 60 15 0 29-3 42-8l-3-25c-10 5-22 8-34 8-21 0-31-10-31-30h72c0-5 1-10 1-14zm-72-8c1-13 9-22 21-22s19 8 18 22h-39zm199 74v-82c0-20-8-37-35-37-19 0-32 9-39 22 1-6 1-15 1-20h-30v117h32v-56c0-20 11-36 26-36 10 0 13 7 13 18v74h32zm188-110c0-32-21-50-61-50-16 0-31 1-44 1v159h33v-54h10c39 0 62-25 62-56zm-34 2c0 17-12 26-30 27-2 0-5-1-8-1v-51h10c20 0 28 10 28 25zm144 108c-1-9-1-20-1-29v-49c0-26-11-42-50-42-15 0-30 3-42 7l3 28c10-6 24-9 35-9 16 0 22 5 22 17v5c-39 0-67 15-67 43 0 19 12 32 33 32 17 0 32-9 37-22v1c0 5-1 12-1 18h31zm-33-48c0 13-9 26-23 26-9 0-14-5-14-12 0-9 7-17 37-17v3zm131-71c-22-2-33 10-39 25 2-8 2-17 2-23h-31v117h33v-48c0-31 11-44 33-39l2-32zm85 93c-4 1-8 2-12 2-10 0-13-4-13-19v-49h27v-25h-28v-44l-32 9v35h-19v25h19v58c0 27 8 37 35 37 8 0 18-1 26-3l-3-26zm129-91h-34l-13 36c-4 11-9 27-11 38-3-11-6-23-10-33l-14-41h-36l43 117-3 9c-7 17-13 22-23 22-5 0-10 0-15-2l-3 28c5 1 11 1 15 1 30 0 43-13 57-49l47-126zm-397-763c137 112 160 310 50 441-109 132-310 148-447 36-138-112-161-309-51-441 110-131 310-147 448-36zm-173 153c0 6 14 6 19 7 3-2 1-5 4-8 1-1 2-1 3-2 2-1 5-4 5-6 0-5-4-4-7-6-2-1-3-2-5-3-3 0-3 2-6 3-2 1-4 1-4 2-3 2 0 6-4 9-3 0-5 1-5 4zm10 11c-1 1-2 3-2 5s3 2 6 4c2 0 3 1 5 2 2 0 5-2 8-1 2 0 4 2 6 2 1 0 3-1 5-1h7c3-2 4-7 2-10 2-3 1-9 4-11 2-1 7-1 9-3 3-2 2-6 0-10-3 0-5-2-8-2-2 0-3 2-4 1s0-2 0-4c-5-3-9 2-11 5 0 2 0 3 1 4-3 2-2 5-2 7h-6c-2 1-2 4-3 5s-3 1-4 2-1 3-2 3c-3 3-8 0-11 2zm-14-65h4c1 0 2-1 4-1h5c3-1 5-2 7-1 5 0 15 7 13-3 5-6 12-11 18-16 1 0 2-2 3-3 3-1 6-3 7-6-1-1-4 0-4-1-3-5-1-12-2-17-4-2-11-1-16-1-2-1-5-2-7-1-1 0-4 2-5 3-2 2-3 6-5 8-3 4-9 6-13 9-4 4-7 7-11 10-2 2-4 4-6 5-2 2-6 2-9 3-1 1-1 3-2 4-1 4-1 9-3 12 0 3-2 6-1 8 4 0 5-2 8-4 1 0 2 0 4-1 1-1 3-3 5-4s5-3 6-3zm-98 228c2 8 6 15 8 22 5 0 10 1 15 2 2 1 4 2 6 2 1 1 2 0 3 0 2 0 4 1 6 1 4 1 7 0 9 2 2 1 2 3 3 4 0 1 1 1 2 2s1 2 2 3c1 2 3 3 4 5 1 1 1 3 2 4s5 4 5 6c0 1-2 3-3 5 0 1 0 3-1 4 0 1-1 2-1 3-1 1-1 2-1 4-1 5-4 10-3 17 0 2 1 4 1 6 1 1 0 3 0 5 1 2 1 4 1 6 0 1-1 3-2 5-2 6-2 12-4 18 2 3 2 8 5 11 0 5 3 9 4 14 1 1 1 3 1 5 1 5 2 11 1 17-1 4-4 8-4 12 0 2 1 4 0 5 0 6-2 11-1 17h3 4 3c2 0 3 1 5 1h2 5 2 5 3 5 2c1 0 3 0 5-1h2 6 1c2 0 4-1 6-1h1c2 0 4 0 6-1h1c2 0 4 0 6-1 4-6 10-11 13-18 4-3 5-8 8-10 1-2 2-3 3-5 3-2 6-3 9-6 3-1 8-4 9-7 2-3 2-8 4-12 1-1 2-2 2-3 1-1 1-2 1-3 1-2 2-3 2-4 2-3 3-7 4-9s2-3 3-5c1-3 1-6 3-8s4-2 6-3c3-1 5-4 8-6 1 0 3 0 4-1 0 0 1-2 2-2 4-3 5-7 9-10 5-1 10-2 14-5 1-1 1-2 2-2 3-3 6-5 9-7 2-2 3-3 5-4 2-2 5-3 5-5-2-2-6-3-9-3-3-1-7-2-10-3h-3c-3 0-5-2-8-1-3-1-3-4-5-6-1-3-4-6-5-8-1-1-1-2-2-3l-3-3v-4c-1-3-1-6-2-9-1-2-2-5-3-7 0-1 0-3-1-5 0-1-1-1-1-2s0-2-1-3c-1-2-3-4-6-7-2-4-3-7-6-11-2-3-4-6-6-10 0-3-4-5-2-8 4 0 5 4 9 5 3-3 0-10 3-12 2 1 3 3 5 5 0 3 3 5 4 7 0 1 0 3 1 4 0 2 1 3 2 4v3c1 2 2 3 2 4 1 1 1 3 1 4l2 2c0 1 0 3 1 3 1 2 2 3 3 4 5 7 11 12 12 21 1 4 0 8 1 12v9c1 2 3 3 6 4 2 0 6 2 8 2 1 0 3-1 4-1 4-1 8 0 12 0 1-1 3-2 4-2 2-1 5-1 6-2 2-1 4-3 6-5 2-1 5-2 7-4l3-3c1-1 2-1 3-2 2-2 4-5 6-6 1-2 4-3 5-6 0 0-1-1-1-2-1-3-2-6-2-8-1-2 0-3-1-4-1-4-5-8-11-7-1 0-3 2-4 2-7 3-11-3-14-6l-4-4c-1-1-3-2-3-4 2-2 5 0 7 1 2 0 5 1 8 2 4 1 9 3 15 4h5c4 0 7 3 11 3 2 0 4-1 6-2h6c2-1 3-2 4-1 2 0 3 2 4 3 3 3 10 4 12 7 0 5 1 10 1 14 1 3 2 5 3 8 0 2 0 3 1 4 0 1 2 3 3 4 1 3 1 5 2 5h3c56-117 26-263-80-354-2 0-4 1-5 0-1 0-3-4-5-5-1 0-3 1-4 1-3 0-6-2-10-2h-3c-2 0-3-2-4-2-2 0-3 2-5 1-2 3-7 3-10 4-3 6 3 7 5 11-1 7 5 8 10 10 3 3 8 3 11 6 0 5 3 10 3 14 0 2-1 5-1 7 1 2 3 4 3 6 0 4-3 7-1 11-2 4-2 7-3 10 0 2-1 4-1 5-1 1-2 1-3 3 0 1-1 2-1 4 0 1-1 2-1 3-1 3-2 5-3 7 0 1 1 2 0 4 0 2-3 6-4 8-1 1-1 2-2 3-1 2-2 2-3 4-1 1-2 5-2 8 0 2 2 4 1 6-3 2-5 0-7-2-1 0-3-1-4-1-1-1-1-2-2-3-3-1-6-2-8-3-3-2-6-4-9-4-2 1-3 3-5 4-3 1-4 4-7 6-1 1-3 2-5 3-1 2-3 3-4 4-2 1-3 1-5 2-1 1-2 3-3 4s-5 3-6 4c0 3 4 3 4 5-4 3-8 5-11 9-1-1-2-2-4-2-3 2-5 4-7 6-1 1-1 2-2 3-2 0-4 0-7 1-2 0-5 1-7 0-2 0-3-2-5-3-1 0-2 1-4 1-3-1-5-4-8-4-1 1-3 6-3 8 0 1 3 3 3 4 1 2 1 5 1 6 0 2 0 4-3 4-4 1-3-4-5-6-1-1-2-3-3-3-3-2-5 0-7 2l-3 3c-1 1-1 2-2 3l-4 4c-2 2-2 4-3 5-1 3-4 4-4 8 3 4 7 5 7 12 1 2 4 3 7 5 2 1 5 4 8 3 2 0 3-3 5-4 1-1 3-2 4-3 2-1 4-2 5-3 3-2 3-6 9-5 1 2 1 5 3 5 5 1 9-2 11 2 0 2 2 5 2 7v3c0 1 1 3 2 5v4c1 2 3 3 3 5 0 3-8 6-8 9-1 3 1 7 4 7 2 0 3-2 5-4 3-2 4-4 9-2 5-3 2-11 1-18-1-2-5-4-2-7 2 1 3 3 3 6 2 1 3 2 4 4 1 3 0 6 0 9s2 10 4 11h4c1 0 3 1 5 0 5-1 4-7 5-11 2-1 6-1 7 1-1 3-3 3-4 5-3 5-3 12 1 15 2 2 10 1 10 4 0 2-2 3-3 5s-1 6-4 6c-3-1-6-3-10-4-3-1-6 0-9-1-2 0-3-1-5-1-6-1-11-2-16-4-2-3-4-6-8-6-2 0-3 2-5 2-3-1-5-5-7-7-2-3-4-6-6-7-1-2-3-2-4-5 0-2 2-3 2-5 0-3-2-4-3-6-2-1-4-3-6-3-3-1-7-1-10-2-2 0-3-2-5-3-3-1-6-1-8-3-2-8-8-2-11 0-4 1-6 4-11 6-1 1-1 1-3 2 0 4-2 6-4 8 0 2 0 5-3 6-2 0-5-3-8-3-5-1-6 1-10 4l-15 9c-3 3-6 5-10 7-3 2-9 5-10 7-1 1-1 3-1 4l-3 3v4c-1 3-4 6-4 10-2 2-3 4-4 7 0 2 2 4 3 7 1 2 1 5 2 8 0 1 1 3 2 4zm-199 25 1 2c1 3 10 21 12 23 2-3 4-7 6-11 3-2 6-6 10-8 2 0 4 0 6-1 1 0 2-1 2-1 1-1 2 0 3-1 1 0 2 0 2-1h3c3-1 5-3 7-4 5-1 10 0 16-1 5-1 11-3 17-3h7c1 0 2-1 3-1 4-1 8 0 12-1 3 2 5 5 8 5 2 2 4 6 7 5 1 0 4-2 6-4 3-4 6-7 9-10 2-2 4-4 5-6-1-2 0-4 0-6 0-3-2-6-3-8-2-5-3-11-6-16 0-1-1-2-1-3l-9-18c-1-2-4-4-3-7 0-1 2-1 4-1l2-2c2 0 5 1 6-1 1-3 0-6 1-9 0-2 1-4 2-6 1-4-1-9-1-13-2-5-3-6-8-8-1-2-1-6-2-10 2-3 7-7 8-12 1-2 0-4 0-6 0-5 4-8 3-11 0-1-2-2-3-4-3-4-6-8-8-11 0-1 0-2-1-3 0-1-1-2-1-2 0-2-1-4-1-5-1-2-2-3-2-4-1-2-1-4-1-5-1-2-2-3-2-5-1-2 0-5-1-8 0-1-1-1-2-2 0-1 0-3-1-4s-3-3-4-6c-1-1-2-3-3-5-3-4-4-5-10-6-5-1-11 0-14-2 0-5 1-12 2-16-2-4-6-9-3-14 3-1 6-1 7-3 2-1 2-4 2-7 1-3 1-5 2-8 0-1-1-2 0-3 1-4 4-2 7-1 4 2 7 5 11 5 3-6 0-13 1-19 1-2 4-4 6-5 1-2 2-4 3-5 3-1 6-2 10-3 4-2 9-4 13-5 1 3 2 6 3 10 1 1 1 2 1 4 0 1-1 2-1 3-2 6-3 11-5 16-3 3-7 5-10 8 0 2-1 4-1 6 3-1 5-3 8-5 2-1 2-2 3-2 2 0 4 1 6 1 3-1 5-5 9-5 2 0 3 3 5 3 2 1 4 0 7-1 2-1 4-1 6-2 1 0 2-2 3-2 2-1 4 0 6-2 5 2 13 1 16 5 0 3 3 5 5 7 0 1 0 2 1 2 1 4 4 7 6 10 2 1 4 3 7 3 2-4 0-11 4-13 5 1 5 7 6 12 2 3 1 9 3 12 2 0 5 0 7-1 4-1 5-3 7-6 0-1 1-2 1-2 1-1 0-3 1-4 0-1 1-1 2-3 0 0 1-2 1-3 2-1 5-2 6-5v-3c0-1 1-2 1-3 1-1 1-2 1-3 2-3 4-5 6-7 3-3 6-7 9-9v-6c-3-2-6 1-8 1-5 1-8-2-11-2-2 1-1 4-3 6-3-1-5 3-8 2-1 0-2-1-3-1-2-2-9-5-9-7s2-3 3-4c3-2 5-3 7-6 5-7 7-13 11-19 2-3 4-7 6-7 3 0 7 3 8 4 3 2 6 4 8 5 3 1 6 2 8 3 2 0 4 0 6 1 2 0 4 1 5 3 1 3-3 6-1 9 2 2 6 3 8 3 1-2 0-6 1-8 1-3 7-1 10-2-3-6-9-7-12-12 2-3 4-6 5-9 3-2 2-7 6-8 2-1 4 0 6 0 2-1 3-2 4-2 2-3 4-6 7-9 4-1 7-1 12-2 2 0 3-1 5-1 1 1 3 2 5 3 1 1 3 2 5 2s3-1 5-1c1-1 2 0 3-1 2 0 3-2 5-2 1-3-2-6-2-8-1-3 0-7 0-10-1-1-2-2-2-3 2-2 4-4 5-7-3-2-5-5-9-5-1 0-3 1-4 1-2 0-3-1-4-2v-6c-3-2-7-2-11-3-1 0-2 2-3 3-2 2-4 3-5 4-1 3 0 5-2 7h-5c-2 1-4 3-7 3-6 2-9 0-13-2-6 6-12-4-17-6-2 0-4 0-6-1 1-3 1-7-1-8-3 0-6 2-8 3h-5c-4 0-9 0-12-2-1 0-3-1-3-1l-3-3c-3-1-6 1-9 1-2-1-4-5-7-6-21 3-41 7-61 14-2 0-4 1-6 1-9 4-18 7-27 12h-2c-3 2-7 4-10 5-1 1-2 2-3 2-5 3-9 5-13 8 1 2-2 5-2 8v4c-1 5-4 10-7 11-2 0-2-2-4-2-2 1-3 4-4 6-1 1-4 3-4 5-1 4 0 8-1 13-1 2-3 3-4 6-1 1-1 2-2 4 0 1-2 1-2 3-4 5-7 10-6 17-2 3-1 6-1 9-1 2-3 3-3 5-1 4 1 5 2 7 0 2-2 4-2 6-1 5-3 8-4 12 0 4 4 7 4 12 0 1-1 2-2 4-2 3-3 4-5 6-5 4-9 2-15 0-2 0-4 1-6 2-3 2-5 3-7 5 0 1-1 2-2 2-1 2 0 4-1 5-1 2-3 2-5 3-1 0-2 1-2 1-5 4-12 7-13 13 2 5 0 9-1 12-1 0-1 1-1 2-4 6-8 12-7 21-2 2-3 3-4 5 0 5-1 8-4 8-2 3-4 5-5 8-1 2-2 6-2 8 1 3 3 5 5 8 0 2 1 4 1 5 2 5 2 7 1 13-3 4-6 9-9 14-1 2-2 3-3 5-2 3-7 7-7 11 4 27 12 53 23 79zm373-191c4-3 5 5 2 7-2-1-1-5-2-7zm7 24 2-2c1 0 2-1 3-2s2-1 3-1c1-1 2 0 3 0h1 4c1-1 3-1 4-1h2c0 1 1 1 1 1l2-2s1-1 2-1c1-1 2-1 2-1 1-1 2-1 2-1 1-1 1-2 2-2-1 1-3 1-5 1-4-1-5-6-7-9v-2l-1-2 1-1c1-1 3-2 5-3 0-1 1-1 1-1h-2c-1 0-2-1-3-1s-1-1-1-1c-1 1-2 1-4 2l-6 3c-1 2-1 3-2 4 0 1-1 2-1 3 0 0 0 1-1 1 0 1 0 2-1 3-2 4-6 4-11 5 0 0-1 0-2 1-1 2 0 3 1 4s2 2 2 3c1 1 1 2 1 2 1 1 1 2 1 2l2-2zm27 68-2-2c-1 0-2 1-2 2-1 1-2 1-2 2v2c0 1 1 2 1 3 0 0 1 1 2 1 2 1 4 1 6 2h2s0 1 1 1h5c1 0 2-1 4-1v-1c1 0 2-1 3-1v-2c-3 0-5-1-7-1-2-1-4-1-6-1-3-1-4-2-5-4zm-479-85c-45 16-86 6-132-26-42-28-83-59-118-77 40-12 70-17 92-11 55 15 77 71 164 87-3 9-5 18-6 27zm-134-323c55 9 86 26 106 48 37 40 39 93 100 120 0 1 0 1-1 2-7 8-14 17-20 26-67-16-99-44-117-84-15-32-11-60-68-112zm-61 394c25-20 53-27 91-30 45-4 68 13 99 6-1 5-1 11-1 17-26 15-49 25-75 24-37-2-68-19-114-17zm165-377c42 10 72 26 96 48 20 19 25 43 45 65-6 4-11 9-16 14-31-10-58-25-76-47-21-27-28-54-49-80zm33 441c-108 68-178 12-273-9 138-92 154 19 267-27 1 12 3 24 6 36zm14-196c-29-3-38 7-71-4-30-10-56-41-109-67 98-40 130 23 188 53-3 5-6 11-8 18zm543 414c22 20 33 42 48 59 21 25 47 38 92 54-28-29-35-61-60-89-17-20-46-27-64-36-5 4-10 8-16 12zm45-38c24 16 56 45 72 89 11 32 57 72 125 89-34-41-38-65-49-91-11-27-24-51-52-76-22-19-58-30-78-31-6 7-12 14-18 20zm48-63c45 33 87 61 161 48-29-13-50-32-72-47-21-13-45-23-77-22-4 7-7 14-12 21zm34-265c61 1 111-39 133-94-52 46-83 42-109 49-13 4-27 15-33 20 3 8 6 17 9 25zm55-281c-24 30-45 58-78 74-29 15-53 34-63 58 7 8 14 16 21 24 62-26 115-88 120-156zm4-64c-52 45-92 40-132 62-33 19-52 58-55 96 2 3 5 5 8 7 4 3 8 7 12 11 38-54 81-49 120-82 16-13 38-34 47-94zm-50 488c57 10 110 3 160-27-30 2-65-7-95-7-23 0-45 4-62 10-1 8-1 16-3 24zm164-317c-71 27-93 16-136 29-33 10-59 32-75 59 6 10 12 20 17 31 37-19 75-18 107-31 31-13 55-41 87-88zm-160 258c36-9 53 10 92 15s92-6 130-42c-53 1-74-21-127-29-40-7-78 2-99 16 2 13 3 27 4 40zm-22 130c14 3 28 8 42 16 14 7 28 18 43 31 33 29 69 47 136 26-59-37-80-75-106-88-28-14-83-17-108-7-2 8-4 15-7 22zm-632-669c48 25 81 60 98 101 18 46 13 86 43 124-10 5-20 10-29 16-45-24-66-57-73-95-10-53-4-93-39-146zm94 53c42 27 74 66 86 97 7 17 9 35 12 56-6 2-13 4-20 7-17-9-33-26-42-47-17-40-10-65-36-113zm158-107c20 23 31 51 36 92 4 33-39 93-17 155-12 1-24 2-35 4-23-33-31-72-26-109 7-55 37-92 42-142zm87 172c0 34-13 52-14 76-8-1-15-1-23-1-8-19-15-36-14-54 2-33 19-67 18-125 27 35 33 89 33 104zm30 83c-9-115 76-117 116-218 13 37 13 93-6 125-33 58-48 52-69 105-14-5-27-9-41-12zm99 38c5-12 16-23 25-38 12-22 24-67 10-113-8 28-16 60-32 76-18 18-27 40-25 64 7 3 15 7 22 11z"/>
  
 
</svg>
