<svg height="41.592907mm" viewBox="0 0 95.189651 41.592907" width="95.189651mm" xmlns="http://www.w3.org/2000/svg" xmlns:xlink="http://www.w3.org/1999/xlink"><clipPath><path d="m0 350h592v-350h-592z"/></clipPath><linearGradient id="a" gradientTransform="matrix(-97.074 56.046 56.046 97.074 459.2 254.99)" gradientUnits="userSpaceOnUse" x2="1"><stop offset="0" stop-color="#fab31e"/><stop offset=".81567" stop-color="#fbc41b"/><stop offset=".89825" stop-color="#fbc41b"/><stop offset="1" stop-color="#fbc41b"/></linearGradient><linearGradient id="b" gradientTransform="matrix(130.43 109.44 109.44 -130.43 363.71 180.32)" gradientUnits="userSpaceOnUse" x2="1"><stop offset="0" stop-color="#f4b51f"/><stop offset=".0040025" stop-color="#f4b51f"/><stop offset=".32753" stop-color="#f2a61f"/><stop offset=".52161" stop-color="#fbc41b"/><stop offset=".78233" stop-color="#fbc41b"/><stop offset="1" stop-color="#fbc41b"/></linearGradient><clipPath id="c"><path d="m0 350h592v-350h-592z"/></clipPath><linearGradient id="d" gradientTransform="matrix(61.97 51.999 51.999 -61.97 484.06 196.17)" gradientUnits="userSpaceOnUse" x2="1"><stop offset="0" stop-color="#f9ab1f"/><stop offset=".51938" stop-color="#fbc41b"/><stop offset=".66037" stop-color="#fbc41b"/><stop offset="1" stop-color="#fbc41b"/></linearGradient><linearGradient id="e" gradientTransform="matrix(74.891 62.841 62.841 -74.891 488.34 213.16)" gradientUnits="userSpaceOnUse" x2="1"><stop offset="0" stop-color="#f8a020"/><stop offset=".68225" stop-color="#fbc41b"/><stop offset=".87292" stop-color="#fbc41b"/><stop offset="1" stop-color="#fbc41b"/></linearGradient><linearGradient id="f" gradientTransform="matrix(54.435 0 0 -54.435 357.74 182.43)" gradientUnits="userSpaceOnUse" x2="1"><stop offset="0" stop-color="#f78d22"/><stop offset=".1346" stop-color="#fbc41b"/><stop offset=".77237" stop-color="#fbc41b"/><stop offset="1" stop-color="#fbc41b"/></linearGradient><linearGradient id="g" gradientTransform="matrix(54.179 0 0 -54.179 379.65 231.96)" gradientUnits="userSpaceOnUse" x2="1"><stop offset="0" stop-color="#fbc41b"/><stop offset=".2467" stop-color="#fbc41b"/><stop offset=".74965" stop-color="#f9a820"/><stop offset="1" stop-color="#f9a820"/></linearGradient><linearGradient id="h" gradientTransform="matrix(-65.019 -11.465 -11.465 65.019 435.96 264.93)" gradientUnits="userSpaceOnUse" x2="1"><stop offset="0" stop-color="#f9ac1f"/><stop offset=".77238" stop-color="#fbc41b"/><stop offset=".94013" stop-color="#fbc41b"/><stop offset="1" stop-color="#fbc41b"/></linearGradient><linearGradient id="i" gradientTransform="matrix(163.57 0 0 -163.57 348.97 228)" gradientUnits="userSpaceOnUse" x2="1"><stop offset="0" stop-color="#d87528"/><stop offset=".096345" stop-color="#d87528"/><stop offset=".27265" stop-color="#e69e22"/><stop offset=".43046" stop-color="#d87d26"/><stop offset=".51874" stop-color="#d87d26"/><stop offset=".52973" stop-color="#d87d26"/><stop offset=".6139" stop-color="#d87d26"/><stop offset=".91248" stop-color="#fbc41b"/><stop offset="1" stop-color="#fbc41b"/></linearGradient><linearGradient id="j" gradientTransform="matrix(-40.558 111.43 111.43 40.558 430.56 227.33)" gradientUnits="userSpaceOnUse" x2="1"><stop offset="0" stop-color="#c27528"/><stop offset=".70712" stop-color="#fbc41b"/><stop offset=".86116" stop-color="#fbc41b"/><stop offset=".98037" stop-color="#fbc41b"/><stop offset="1" stop-color="#fbc41b"/></linearGradient><linearGradient id="k" gradientTransform="matrix(-29.233 80.316 80.316 29.233 416.75 216.14)" gradientUnits="userSpaceOnUse" x2="1"><stop offset="0" stop-color="#cd7629"/><stop offset=".2713" stop-color="#cd7629"/><stop offset="1" stop-color="#fbc41b"/></linearGradient><linearGradient id="l" gradientTransform="matrix(-14.861 40.83 40.83 14.861 413.93 211.62)" gradientUnits="userSpaceOnUse" x2="1"><stop offset="0" stop-color="#d87528"/><stop offset=".068003" stop-color="#d87528"/><stop offset=".83426" stop-color="#fbc41b"/><stop offset=".95641" stop-color="#fbc41b"/><stop offset="1" stop-color="#fbc41b"/></linearGradient><linearGradient id="m" gradientTransform="matrix(54.435 0 0 -54.435 357.74 180.79)" gradientUnits="userSpaceOnUse" x2="1"><stop offset="0" stop-color="#d87528"/><stop offset=".31448" stop-color="#d87528"/><stop offset="1" stop-color="#fbc41b"/></linearGradient><linearGradient id="n" gradientTransform="matrix(41.131 0 0 -41.131 384.55 175.72)" gradientUnits="userSpaceOnUse" x2="1"><stop offset="0" stop-color="#cd7629"/><stop offset=".31113" stop-color="#cd7629"/><stop offset=".6137" stop-color="#cd7629"/><stop offset=".90804" stop-color="#fbc41b"/><stop offset=".97581" stop-color="#fbc41b"/><stop offset="1" stop-color="#fbc41b"/></linearGradient><linearGradient id="o" gradientTransform="matrix(93.02 0 0 -93.02 479.4 246.92)" gradientUnits="userSpaceOnUse" x2="1"><stop offset="0" stop-color="#d87d26"/><stop offset=".20618" stop-color="#d87d26"/><stop offset="1" stop-color="#fbc41b"/></linearGradient><linearGradient id="p" gradientTransform="matrix(89.589 0 0 -89.589 469.61 218.13)" gradientUnits="userSpaceOnUse" x2="1"><stop offset="0" stop-color="#d87d26"/><stop offset=".42771" stop-color="#d87d26"/><stop offset="1" stop-color="#fbc41b"/></linearGradient><switch transform="matrix(.26458333 0 0 .26458333 9.770586 -99.631628)"><g fill="#dc241f" transform="matrix(3.6067 0 0 3.6067 649.4 -3117.9)"><path d="m-5.0255-96.706c-.20772-.04696-.37751-.2023-.50033-.35222h3.0887c-.31609.59425-.69721 1.3366-.74237 1.5516 0 0-1.4143-1.1-1.846-1.1993" transform="matrix(1.25 0 0 -1.25 -168.89 891.14)"/><path d="m-7.139-96.215c.019869.31428 0 1.3764-.19688 1.6112 0 0-.11741-.64844-.21494-.8652-.066831-.1445-.62496-1.398-.98079-2.2h1.7918c-.050575.14992-.11379.32513-.16256.43169-.099344.21675-.25649.70805-.23662 1.0223" transform="matrix(1.25 0 0 -1.25 -172.16 890.38)"/><path d="m3.4948-93.22c-.23662-.4913-.60871-.58884-.84532-.62857-.23481-.03974-.31429-.17702-.58884-.51117-.27455-.33416-.60871-.84352-1.8081-2.5938-1.1975-1.7485-4.7938-1.0801-6.7969-.66832-2.0031.41364-2.2994 1.0422-2.4565 2.4366-.15714 1.3962.86519 2.2217 1.1596 2.359.29442.13728 1.5913.64844 2.3969 1.3547s2.1025.84533 2.2994.84533c.19508 0 .72611.03973 2.4944.23662 1.7683.19508 3.5565-.27636 4.7739-.65025 1.026-.31428 3.0815-1.4631 4.0677-2.0176v23.864c0 1.4757-1.1957 2.6732-2.6733 2.6732h-2.7383c.97899-.82726 2.4547-2.4764 2.7022-4.1273.31068-2.0609-1.9923-2.7473-2.182-2.8141-.18785-.06683-.26913-.10838-.26913-.10838-.68638 1.4269-.066831 2.0465.21675 2.4637.28178.41724-.13547.61954-.56716.8092-.42989.18785-.578.37569-.64483.60509-.068637.2294-.10837.55272-.26913.88868-.16256.33777-.47143.39015-.75501.41724-.28178.02709-.51117.18966-.67373.22939-.16076.03973-.40279.03973-.40279.03973l.012644-.22939s-.7803.4046-1.5353.95731c-.53646.39376-.67734.52201-.89048.8688h-1.1885c.065025-.31609.1734-.49852.27455-.63941.13547-.18965-.22939-.70082-.578-.80739-.35041-.10838-1.1596.1463-1.1596.1463-1.1434-.30887-1.1036-.12102-2.4637-.32151-1.3601-.2023-1.6021-1.1054-1.8442-1.6563-.24384-.55271.18785-.35041-.45879-1.2662-.64664-.91576-2.0338-1.2138-2.5992-1.1993-.56536.01264-.39015.08128-.36306-1.6961.02709-1.7774.28178-1.5353.87603-1.6834.59245-.14811.82004.64664.91577.76765.09393.12102.10657.28358-.02709.29623-.65748.06503-1.0512.2023-1.2391.37751-.18785.1752.08128.52381.39015.74056.30887.21494 1.2391.71346 1.5082.83449.26913.12102 1.0512.3757 1.4016.44434.35041.06683.40279-.24204.48407-.4046.070444-.14088.027095-.29623.33596-.25648 1.8351.24023 2.2361-.05238 2.3572-.03974.12102.01445.28358.14812.31067.37751.025288.22758-.61954.36305-.91577.44434-.29622.08128-1.9941.10838-1.9941.10838s-.42989.33596-.51117 1.1434c-.08128.8074 1.9526 1.6292 2.6787 1.8315.72792.2023 2.4926.45879 4.4976.18966 2.0086-.26914 2.8557-1.5227 3.2061-2.8972.35041-1.3727-.71347-1.8026-.87603-1.8171-.16076-.01265-.51117-.35042-.65928-.6051-.14811-.25649-.61954-.6069-.95551-.8092-.33777-.20049-.84894-.64664-.84894-.64664s-.012644-.33596-.43169-.49853c-.41724-.16075-.72611.68819-.9826 1.2535-.25468.56535-.48408.8092-.70082 1.2517-.21494.44434-.56536.54007-.69902.54007-.13547 0-.17521-.22939-.17521-.59245 0-.36486-.33596-.72791-.90312-1.091-.56536-.36486-1.7105.25468-1.8442.30887-.13547.05419-.7803.31068-.96996.39196-.18785.07948-.25649.20049-.41724.39014-.16256.18785-.45698-.13547-.55271-.2023-.093926-.06863-.22759-.18784.01445-.49852.24204-.30887 1.0097-.56536 1.3728-.67374.36486-.10657.76766-.59245.98441-.76766.21494-.1752.44434-.33777.59245-.24204 1.0007.6376 2.2217.8092 2.4222.8092.2023 0 1.0512-.01445.63399-1.3077-.57258-1.7755-2.4384-2.1404-3.878-2.1946-1.4414-.05418-2.1819.30887-2.2632.30887-.079475 0-.093925-.16075-.054188-.16075.041544 0 .51297-.33777.86339-.57981.34861-.24204.94106-.61954 1.1849-.61954.24204 0 1.0368.26913 1.3059.33777.26913.06683.92841.22758 1.454.39014.52562.16076 2.545 1.79 2.9081 2.1549.36486.36305.64664 1.212.78211 1.2517.13366.03973.39015-.17521.59245-.2023.2023-.02529.63219.5798.74056 1.0115.10838.42989.13547.48408.25649.51117s.16076-.26913.16076-.26913.14811-.75501.081281-1.8044c-.066831-1.0512-.16256-1.3204-.47143-2.209-.31068-.88868-1.3727-.9826-1.7232-1.091-.35041-.10838-1.2264-.39014-1.846-.49852-.61954-.10658-.94286.22939-1.3601.41724-.14811.06683-.95551.20229-1.0223-.0271-.29081-.98441 1.454-1.5209 1.7358-1.5877 1.8478-.44073 4.4181.44434 4.5518 1.548.20411 1.6636.39015 1.8586.6069 2.1007.21494.24204.79475.03973.79475.03973.21494.21675 1.2246.95731 1.2246.95731s.32332.16076.16076.41724c-.16076.25468-.26913 1.2915 1.0115 1.1578 1.2788-.13547 1.7087-1.9381 1.7087-1.9381s.51298-1.0657.14811-3.7715c-.36306-2.7058-3.9719-5.482-7.2575-6.517-3.2856-1.0368-4.848-.91757-5.2526-.91757-.40279 0-1.212.32332-1.4811.3775-.26913.05419-.95551.51298-1.1849.6069-.22939.09393-1.0223.49853-1.1975.578-.17521.08128-.79475.47143-1.1578.72791-.36486.25468-.45879.52562-.57981.79475s-.7803.79295-.86158.86158c-.08128.06683 0 .17521 0 .17521.75321-.32332 5.8432-1.0368 6.2478-1.0512.4046-.01264 2.2488-.06683 2.4908-.06683s.67373-.14811.68638.16257c.01445.30887-1.4125.52381-1.5751.53826-.16076.01264-.87423.02709-1.3998.09392s-1.7918 2.0338-1.967 2.2885c-.1734.25649-.24204.18966-.56536.35042-.32332.16256-1.454 1.0368-1.5895 1.1867-.13366.1463.10837.71166-.02529.85977-.13547.14992-.56716-.09212-.90674-.24565-.80378-.36305-1.1.05238-1.1.05238l-1.1 1.1542-.26191-.57619s2.7762-2.2542 3.5619-2.8828c.78752-.62858.20952-.8381.20952-.8381s-.57619-.62858-.78572-.68095c-.20952-.05238-1.8857.2619-3.1953.62857-1.3095.36667-1.7286.78572-3.0381 1.9381-1.3095 1.1524-1.8333 4.1381-1.6762 4.7161.15714.5762.20952 1.4667.10476 1.7286s-.31429 1.1524.15714 1.1524.8381-1.0476 1.9381-2.3048c1.1-1.2571 2.3048-1.6762 2.7762-1.4143.47143.26191-.15714 1.0476-.41905 1.5191-.2619.47144-.20952.62858-1.2571 1.9381-1.0476 1.3095-.31429 2.3048-.10476 2.7762.20952.47143.8381 1.3619.99524 2.8304.08489.78391.39376 1.3131.84894 1.781h-11.168c-1.4775 0-2.6733-1.1975-2.6733-2.6732v-9.5045c.72972-.24384 2.3517-.80198 2.6425-1.0404.37751-.30887 3.7227-2.8358 3.5962-7.3659-.01264-.48408.15172-.64122.36306-.87603.12102-.13367 1.2933-1.2662 1.091-1.9652-.53826.79475-1.0765 1.212-1.2391 1.2933-.16076.08128-.33596.17521-.45698-.12283-.12102-.29442-.22939-1.091-1.8315-.86158-1.4685.21133-2.6787.46059-4.1652 2.4782v-11.462c0-1.4757 1.1957-2.6732 2.6733-2.6732h2.1314c.23481.47866.36847.78753.54548 1.1975.25468.58884 1.0801 2.6913 1.4739 3.3596.39196.66831.96273 1.5516.96273 1.5516s-.17701 1.3962-.13727 2.2018c.03793.80559.47143 2.5938.47143 2.5938s.15714.29261.07767.6087c-.07767.31428-.19688.64664-.11741 1.2174.07767.56897.33416 1.454.78572 1.8659.45156.41183.76585.64845 1.0205.62858.25649-.01987.64844-.39196 1.1596-1.5913 0 0-.27455-.03793-.4913.01987-.21494.05961-.07767-.1174-.03793-.17701.03793-.0578.5491-.45156.29442-.94286-.25648-.4913-1.4811-1.9688-1.2192-2.3174.17701-.23662.27636-.01987.55091.27455s.88326 1.0025.9826.96273c.09754-.03973-.19688-1.0621-1.2572-2.1621 0 0 .29442-.13728 0-.68637-.29442-.55091-.72792-1.1199-.78572-1.2373-.05961-.11922-.05961-.39377.11741-.23663.17701.15715 1.846 1.492 3.477 1.492 1.1795 0 1.2788-.36305 1.4938-.47143.19508-.09754.4913-.43169.5491-.60871.05961-.1752.13728-.31248.43169-.41183.29622-.09753 1.259-.33415 1.3962-1.5913 0 0 .51117-.62858-.11921-1.5913 0 0 4.9238.6629 7.0119-3.9485h9.7664c1.4775 0 2.6733 1.1975 2.6733 2.6732v5.155c-.83449.4931-2.6407.71708-2.8882.71708-.29622-.000001-1.5714.01987-1.8081-.47144m-21.453 11.164c-.15714-.03974-.33777.03612-.58523-.21133-.07947-.07767-.17701-.25107-.18243-.42266-.01445-.51117-1.1199.01987-1.2571.06322-.35222.11018-.90313.44795-2.1205 1.8225-1.2192 1.3764-1.6509 4.2049-1.6906 5.3248-.03974 1.1199.45156 3.1627 1.9056 5.0882 1.454 1.9255 3.9882 2.2596 4.3224 2.2596.33415 0 .64844-.03974.66831-.23663.01987-.19688-.03974-.19688-.03974-.43169 0 0 .17702-.4317.11741-1.1199-.13366-1.5696-1.6292-2.7907-2.3572-3.3994-.72611-.60871-.64844-1.4143-.62857-2.2199.01987-.80378.64844-3.477.78572-3.9286.13728-.45156 1.026-2.0086 1.165-2.2054.13727-.19688.05238-.34319-.10296-.38293m3.8997-8.2401c-.79475.56535-1.2517 1.6292-1.7358 3.0038-.48588 1.3727-.76766 2.3301-.98441 2.9478-.21494.61954-.36306.67373-.39015.8363-.0271.16075.02709.25468.09393.32151 0 0 1.1849-.18785 2.1693-.63219.9826-.44434.95551-.52562 1.8026-1.091.84894-.56536 1.1867-1.7358 1.4143-2.1675.22939-.43169 1.0133-.76043 1.1217-.81462.10838-.05238.46059-.30887.46059-.30887 3.421-1.3059 5.7168-1.4089 5.8252-1.436.10838-.02528.16076-.12102.16076-.12102-.32332-.49672-3.3668-.59245-3.3668-.59245s-1.0494.02709-2.7726-.47143c-1.725-.49672-3.0038-.03974-3.7985.52562" transform="matrix(1.25 0 0 -1.25 -155.68 885.73)"/></g></switch><g transform="matrix(.22734924912 0 0 -.22734924912 -34.9498924252 76.41942046705)"><path d="m374.98 333.28c-8.081-37.372 36.678-47.63 61.407-64.829 3.758-2.502 6.307-5.299 8.099-8.703 1.91-3.632 2.916-7.394 3.083-11.623.193-4.846-.227-10.177-1.602-15.18.191.258 1.135 1.274 1.882 2.458 3.283 5.206 10.163 18.323 5.11 30.307 0 0-4.787 10.618-25.164 19.817 0 0-22.588 9.689-33.28 18.609 0 0-18.227 15.593-19.532 29.168z" fill="url(#a)"/><path d="m468.53 262.45s-6.083-7.649-11.388-20.453c0 0-9.714-20.343-22.803-28.613 0 0-13.758-10.611-32.459-13.27 0 0-4.941-.916-11.617-.916-5.173 0-11.397.558-17.127 2.521 0 0-9.198 2.21-17.463 6.62-2.766 1.475-5.946 3.183-8.122 5.151 0 0-.407-1.911-.42-4.677v-.257c.013-3.192.571-7.451 2.836-11.25 0 0 .328-.729.845-1.62 4.279-3.733 9.629-5.04 14.955-5.04 12.44 0 26.934 6.946 38.988 7.665 17.305 0 36.523 2.243 50.004 11.84 10.077 7.182 16.821 19.33 22.371 32.286 5.598 14.011 19.09 22.736 34.783 26.14-.225.15-.427.246-.587.309-.571.229-1.204.368-2.187.368-.716 0-1.553-.078-2.543-.243 0 0-.927-.153-2.592-.153-2.069 0-5.285.23-9.309 1.29 0 0-2.868.614-6.84.614-5.938 0-14.33-1.388-19.325-8.312" fill="url(#b)"/><g clip-path="url(#c)"><path d="m0 0s-5.724-15.212-11.608-19.056c0 0-1.475-1.226-4.028-2.147-1.532-.552-3.858-1.101-6.082-1.101-.329 0-2.306.04-2.649.061 2.216-.656 5.818-1.346 7.894-1.562.095-.01.628.008.716 0 21.072-1.924 23.191 20.407 28.813 34.5.055.054.113.105.173.154.682.547 2.387.517 3.535.599-.064 0-.405.122-.478.135-.374.067-.473.078-.992.114-.564.039-1.186-.1-1.643-.175-3.662-.595-9.496-2.963-13.651-11.522" fill="#f7ba1e" transform="translate(408.92 182.63)"/></g><path d="m535.36 220.85c-5.873-2.609-12.119-3.331-17.283-3.331-3.393 0-6.803.266-10.124.947-2.235.459-4.424 1.117-6.667 1.546-1.935.363-3.897.618-5.866.749-.907.062-1.823.089-2.738.089-3.798 0-5.982-.545-5.982-.545-6.524-1.7-11.491-4.517-14.282-6.364-.648-.428-1.661-1.131-2.066-1.429.881.266 2.255.769 3.151.883 2.176.277 4.371.196 6.478.196 5.447 0 10.585-2.516 15.965-3.723 5.365-1.22 10.871-1.714 16.312-1.714 3.052 0 6.443.527 9.532 1.493 13.625 5.247 26.152 10.617 36.82 21.775l.735.885c-7.926-6.071-23.985-11.457-23.985-11.457" fill="url(#d)"/><path d="m556.49 256.03c-6.106-4.57-13.501-7.058-20.943-8.376-4.477-.798-9.106-.64-13.734-.484-6.069.206-12.139.412-17.866-1.536-15.092-5.01-24.949-21.339-24.949-21.339.327.209.659.409.987.616 12.559 15.056 36.911 6.492 54.402 11.631 15.652 3.918 30.426 14.911 36.291 30.587-4.821-5.004-14.188-11.099-14.188-11.099" fill="url(#e)"/><path d="m388.54 185.41c-7.677-5.014-14.243-6.964-14.243-6.964-2.066-.538-3.975-.756-5.731-.756-5.533 0-9.342 2.178-10.828 3.195 4.437-5.542 10.257-10.424 16.162-10.424 2.694 0 5.404.731 8.04 2.374 10.211 5.104 18.493 17.81 30.232 20.906-.866.524-1.703.608-2.094.633-.241.016-.487.023-.733.023-8.848 0-20.805-8.987-20.805-8.987" fill="url(#f)"/><path d="m381.21 243.52c4.611-4.512 9.952-9.762 15.919-12.004 4.482-2.852 10.651-5.073 16.661-5.368 1.5-.073 2.989-.057 4.44-.041 4.138.047 7.96.093 10.793-1.947 1.57-1.132 2.236-1.704 3.084-3.225.296-.53.636-1.505.825-2.389.186.156.304.4.466.744.192.409.29.947.333 1.297.371 3.04-.041 8.51-6.684 11.201 0 0-2.415 1.065-9.121 1.933 0 0-13.474 1.042-20.664 4.076 0 0-14.232 4.933-17.615 7.582 0 0 1.04-1.347 1.563-1.859" fill="url(#g)"/><path d="m364.82 288.2c1.173-6.953 3.264-14.074 8.228-18.206 15.123-14.055 37.219-16.813 56.675-26.532 7.005-3.007 9.033-11.052 8.35-19.163.89 2.028 4.424 10.441 1.433 18.995 0 0-1.515 7.086-19.181 13.8 0 0-24.692 8.548-32.83 13.873 0 0-16.889 8.729-22.203 22.509 0 0-.617-2.127-.472-5.276" fill="url(#h)"/><path d="m475.77 242.92c-5.485-12.786-11.403-23.917-21.302-31.087-11.585-8.386-29.26-11.856-43.303-12.934-4.674-.358-9.356-.365-13.994-1.106-4.282-.684-8.495-1.744-12.712-2.738-4.221-.996-8.459-1.979-12.765-2.533-2.298-.296-4.616-.474-6.934-.427-5.094.104-11.678 3.546-15.791 7.131.466-.797 1.005-2.558 2.19-4.095 2.654-3.442 7.246-7.312 12.234-7.692 0 0 7.082-1.284 18.122 3.407 0 0 18.517 6.711 29.789 6.96 0 0 24.722-.23 35.227 3.513 7.937 2.835 14.47 6.377 21.234 14.876 6.767 8.501 8.524 15.617 10.702 20.171 0 0 6.566 13.67 14.583 20.147 0 0 10.215 8.767 19.494 11.582 0 0-.235.34-.945.638-15.716-3.409-30.219-11.78-35.829-25.813" fill="url(#i)"/><path d="m375.16 306.78s4.72-13.302 21.171-23.403c0 0 13.668-7.806 23.677-11.685 0 0 21.494-7.624 25.259-21.672.175-.656.312-1.326.407-2.01.1-.723.16-1.161.23-2.224 0 0 .091-1.596.228-3.731.191-2.978.318-6.988-.164-9.108l.081.108c.155.289.227.558.32.836.121.362.185.721.271 1.08.452 1.856.713 3.701.971 5.554 1.527 11.013-.719 21.655-10.81 28.381-24.778 17.226-68.916 27.979-61.817 64.4-.111-.571-6.312-11.472.176-26.526" fill="url(#j)"/><path d="m374.37 264.54s6.885-6.46 14.253-9.501c0 0 11.824-5.057 22.353-7.978 0 0 19.465-5.223 24.47-12.998 0 0 3.325-5.235 2.407-10.243 0 0 .089.168.224.476.189.428.206.952.23 1.412.047.87.055 1.75.06 2.622.004.601-.035 1.199-.049 1.799-.014.636-.048 1.272-.107 1.905-.12 1.277-.346 2.544-.729 3.771-1.239 3.973-4.115 6.861-7.735 8.788-.71.378-1.44.724-2.181 1.049-2.396 1.048-4.92 1.872-7.327 2.839-3.434 1.38-6.907 2.657-10.38 3.934-1.986.729-3.973 1.458-5.954 2.205-6.906 2.604-13.749 5.382-20.11 9.164-3.544 2.107-6.62 4.646-9.776 7.273-4.971 4.138-8.028 10.176-9.195 17.14.309-6.321 2.024-16.936 9.546-23.657" fill="url(#k)"/><path d="m403.44 225.08s7.546-3.132 17.201-2.737c0 0 .669.098 1.704.147 2.893.138 8.634-.107 10.582-3.939 0 0 .075-.065.186.331-.573 2.679-1.67 4.944-3.101 6.014-2.775 2.076-6.905 1.276-11.604 1.694-7.347.652-15.976 2.967-21.664 6.587-1.578.957-12.032 7.554-17.102 12.207 1.563-2.463 10.406-15.572 23.798-20.304" fill="url(#l)"/><path d="m382.67 173.64c-8.369-5.234-17.74-1.341-24.228 6.74-.462.302-.701.518-.701.518 2.1-3.318 4.507-5.774 4.507-5.774 8.644-9.601 18.551-6.975 18.551-6.975 6.875 1.938 18.552 15.679 18.552 15.679 8.05 9.568 12.824 9.912 12.824 9.912l-.162.02c-11.758-3.101-19.104-15.007-29.343-20.12" fill="url(#m)"/><path d="m421.64 193.13c-2.684-2.463-3.818-5.902-4.941-9.26-1.982-5.921-3.718-13.066-7.539-18.118-2.545-3.364-6.116-5.284-10.23-6.009-2.276-.398-4.896-.75-7.204-.575-2.418.179-4.803.689-7.169 1.216 2.308-.953 4.476-1.769 6.983-2.182 3.286-.532 7.621-1.361 10.942-.599 6.518 1.477 10.622 5.763 12.887 11.968.647 1.762.879 3.605 1.255 5.435.793 3.81 2.025 7.57 3.521 11.158 1.162 2.788 2.726 6.417 5.543 7.911 0 0-.377.06-1.038.067-1.249-.09-2.331-.345-3.01-1.012" fill="url(#n)"/><path d="m572.11 268.84-.045-.058c-.417-.558-.931-1.13-1.502-1.735-3.668-7.482-7.241-12.776-13.066-18.236-5.395-5.057-12.205-8.687-19.323-10.843-2.265-.69-4.574-1.21-6.902-1.657-5.877-1.114-11.626-1.312-17.566-.731-6.194.606-12.781.906-18.891-.528-4.726-1.109-8.471-4.101-12.103-7.187-1.078-.916-2.345-2.258-3.309-3.296 4.44 2.688 9.523 4.985 14.604 6.096 2.689.586 6 .838 8.27.661 6.091-.471 12.118-1.087 18.232-.99.414.011.825.02 1.234.024 19.064 1.383 31.032 9.983 31.032 9.983 19.943 12.596 19.646 28.937 19.646 28.937-.091-.144-.2-.286-.311-.44" fill="url(#o)"/><path d="m522 210.74c-13.252-4.235-21.903.484-30.327 2.804-6.72 1.854-13.452 1.452-21.105-.873-.617-.458-.959-.747-.959-.747 9.255 2.149 19.171-2.32 22.306-3.921.2-.101.399-.207.6-.309.726-.371 1.467-.719 2.226-1.018 9.677-3.809 20.326-2.188 20.326-2.188 28.956 5.327 43.578 26.828 44.131 27.629-10.493-10.956-23.535-17.012-37.198-21.377" fill="url(#p)"/></g></svg>