<svg enable-background="new -37.0000916 376.5385437 867.0001221 159.587677" version="1.1" viewBox="-37 376.54 867 159.59" xml:space="preserve" xmlns="http://www.w3.org/2000/svg" xmlns:i="&amp;ns_ai;">
<style type="text/css">
	.st0{fill:#DC241F;}
</style>
<switch>
	<g i:extraneous="self">
		
		
			
		<g transform="translate(-2007.7 -813.4)">
			<g transform="matrix(3.6067 0 0 3.6067 2657.1 -2304.5)">
				<g transform="matrix(1.25 0 0 -1.25 -168.89 891.14)">
					<path class="st0" d="m-5.0255-96.706c-0.20772-0.046959-0.37751-0.2023-0.50033-0.35222h3.0887c-0.31609 0.59425-0.69721 1.3366-0.74237 1.5516 0-1e-7 -1.4143-1.1-1.846-1.1993"/>
				</g>
				<g transform="matrix(1.25 0 0 -1.25 -172.16 890.38)">
					<path class="st0" d="m-7.139-96.215c0.019869 0.31429 0 1.3764-0.19688 1.6112 0 0-0.11741-0.64845-0.21494-0.8652-0.066831-0.1445-0.62496-1.398-0.98079-2.2h1.7918c-0.050575 0.14992-0.11379 0.32513-0.16256 0.43169-0.099344 0.21675-0.25649 0.70805-0.23662 1.0223"/>
				</g>
				<g transform="matrix(1.25 0 0 -1.25 -137.03 888.02)">
					<path class="st0" d="m15.524-94.692-11.744-0.012642c-0.39376 0-0.71166 0.3197-0.71166 0.71166l-0.0090315 28.532c0 0.39376-0.31971 0.71347-0.71347 0.71347h-4.4994c-0.39376 0-0.71166-0.31971-0.71166-0.71347v-33.266c0-0.39376 0.3179-0.71346 0.71166-0.71346h2.7311c0.057799-0.01265 0.11379-0.023483 0.1752-0.023483h14.772c0.39376 0 0.71347 0.3197 0.71347 0.71347v3.347c-2e-7 0.39196-0.31971 0.71166-0.71347 0.71166"/>
				</g>
				<g transform="matrix(1.25 0 0 -1.25 -60.117 882.6)">
					<path class="st0" d="m65.13-91.197v14.17c0 0.39376 0.3179 0.71346 0.71166 0.71346h4.232c0.39557 0 0.71346-0.3197 0.71346-0.71346v-26.286c0-0.39376-0.31789-0.71166-0.71346-0.71166h-1.8731s-0.57078 0.0867-0.81462 0.7785c-0.24384 0.69179-0.52923 1.7918-0.52923 1.7918s-0.28358 1.3023-1.0585 0.44614c-0.77307-0.85435-4.1417-3.4824-10.706-3.4192-10.458 0.10296-9.8856 10.456-9.8856 12.646v14.86c0 0.39376 0.31971 0.71347 0.71347 0.71347h4.232c0.39376 0 0.71166-0.31971 0.71166-0.71347v-15.151c0-1.8008-0.15173-7.4923 6.4158-7.4923 6.0816-2e-7 7.673 2.8214 7.85 8.3684"/>
				</g>
				<g transform="matrix(1.25 0 0 -1.25 -50.62 874.2)">
					<path class="st0" d="m71.256-85.779c-0.77308-0.85436-1.0585 0.44794-1.0585 0.44794s-0.28358 1.0982-0.52924 1.7918c-0.24384 0.6918-0.81461 0.7785-0.81461 0.7785h-1.8731c-0.39376 0-0.71347-0.31971-0.71347-0.71347l-0.052376-26.485c0-0.39195 0.3197-0.71166 0.71346-0.71166h4.232c0.39195 0 0.71166 0.31971 0.71166 0.71166v16.574c0.18966 1.3077 0.9537 5.2526 5.2002 5.7836 1.557 0.19508 2.3842 0.048767 2.3842 0.048767 0.72973 0 1.1181 0.097542 1.1181 0.9248 0 0.82545-0.046967 3.2585-0.046967 3.2585s-0.050575 1.0711-1.0223 1.0223c-0.97356-0.048767-4.4271-0.29261-6.0329-1.4107-1.6058-1.1199-2.2163-2.0212-2.2163-2.0212"/>
				</g>
				<g transform="matrix(1.25 0 0 -1.25 -119.27 873.7)">
					<path class="st0" d="m26.975-85.458c-3.1935 3.1212-9.8296 2.7979-9.8296 2.7979-12.808 0.39557-12.27-8.8253-12.27-8.8253l-0.0036139-0.76043c0-0.39376 0.31971-0.71347 0.71347-0.71347h4.0912c0.39376 0 0.71166 0.31971 0.71166 0.71347l0.068636 0.85797s0.47685 4.3675 6.4375 4.1002c6.4212-0.28719 6.8168-2.6913 7.1383-5.5976 0 0 0.036123-0.6087-0.46601-0.71708-0.50214-0.10658-11.444-0.89771-15.785-2.7979-4.3422-1.902-3.8762-6.2424-3.8762-6.7445s-0.21314-7.7904 11.087-8.0378c6.5657-0.14269 9.8657 3.589 9.8657 3.589 0.2872 0.28719 0.57439 0.53646 0.86158-0.1445 0.28719-0.68095 0.57439-3.049 1.4703-3.1212 0.89771-0.072243 1.7232-0.036125 1.7232-0.036125s0.8959-0.036118 0.8959 0.78934-0.036123 16.325-0.036123 16.325 0.19869 5.3935-2.7979 8.3232m-2.9424-13.776s-0.034319-0.71709-0.17882-1.8297c-0.37028-2.8683-2.9424-5.2742-6.4935-5.5976-3.5529-0.32332-7.3189 0.50214-7.4977 3.9467-0.18063 3.4445 6.4212 3.7299 7.4616 3.8744s4.6583 0.52562 5.9191 0.61051c0.53826 0.036125 0.86158-0.25107 0.78933-1.0043"/>
				</g>
				<g transform="matrix(1.25 0 0 -1.25 -104.5 871.97)">
					<path class="st0" d="m36.504-84.346c-6.5946 0.081284-8.8741-2.769-8.8741-2.769s-0.8959-0.97537-0.81462 0.24384c0.081282 1.2228-0.065025 8.3666-0.065025 8.3666 0 0.39376-0.3179 0.71347-0.71166 0.71347h-4.232c-0.39376 0-0.71347-0.31971-0.71347-0.71347v-33.264c0-0.39376 0.31971-0.71346 0.71347-0.71346h1.8749s0.56897 0.0867 0.81281 0.7803c0.24565 0.68999 0.52923 1.79 0.52923 1.79s0.28539 1.3041 1.0585 0.44795c0.77308-0.85435 4.1526-3.7859 10.707-3.4192 6.5531 0.36667 11.276 4.4361 11.195 14.452-0.08128 10.014-4.8859 14.004-11.481 14.085m5.6174-14.737c-0.039738-1.8315 0.53284-9.1956-7.9782-9.0367-6.5549 0.12283-7.4092 4.6403-7.4508 9.1595-0.050575 5.6192 1.1813 9.9326 7.98 9.8097 6.7987-0.12102 7.57-4.5174 7.449-9.9326"/>
				</g>
				<g transform="matrix(1.25 0 0 -1.25 -155.68 885.73)">
					<path class="st0" d="m3.4948-93.22c-0.23662-0.49129-0.60871-0.58884-0.84532-0.62857-0.23481-0.039742-0.31429-0.17702-0.58884-0.51117-0.27455-0.33416-0.60871-0.84352-1.8081-2.5938-1.1975-1.7485-4.7938-1.0801-6.7969-0.66832-2.0031 0.41364-2.2994 1.0422-2.4565 2.4366-0.15714 1.3962 0.86519 2.2217 1.1596 2.359 0.29442 0.13728 1.5913 0.64844 2.3969 1.3547s2.1025 0.84533 2.2994 0.84533c0.19508 0 0.72611 0.039734 2.4944 0.23662 1.7683 0.19508 3.5565-0.27636 4.7739-0.65025 1.026-0.31429 3.0815-1.4631 4.0677-2.0176v23.864c0 1.4757-1.1957 2.6732-2.6733 2.6732h-2.7383c0.97899-0.82726 2.4547-2.4764 2.7022-4.1273 0.31068-2.0609-1.9923-2.7473-2.182-2.8141-0.18785-0.066834-0.26913-0.10838-0.26913-0.10838-0.68638 1.4269-0.066831 2.0465 0.21675 2.4637 0.28178 0.41724-0.13547 0.61954-0.56716 0.8092-0.42989 0.18785-0.578 0.37569-0.64483 0.60509-0.068637 0.2294-0.10837 0.55272-0.26913 0.88868-0.16256 0.33777-0.47143 0.39015-0.75501 0.41724-0.28178 0.027092-0.51117 0.18966-0.67373 0.22939-0.16076 0.039734-0.40279 0.039734-0.40279 0.039734l0.012644-0.22939s-0.7803 0.4046-1.5353 0.95731c-0.53646 0.39376-0.67734 0.52201-0.89048 0.8688h-1.1885c0.065025-0.31609 0.1734-0.49852 0.27455-0.63941 0.13547-0.18965-0.22939-0.70082-0.578-0.80739-0.35041-0.10838-1.1596 0.1463-1.1596 0.1463-1.1434-0.30887-1.1036-0.12102-2.4637-0.32151-1.3601-0.2023-1.6021-1.1054-1.8442-1.6563-0.24384-0.55271 0.18785-0.35041-0.45879-1.2662-0.64664-0.91576-2.0338-1.2138-2.5992-1.1993-0.56536 0.012642-0.39015 0.081284-0.36306-1.6961 0.027095-1.7774 0.28178-1.5353 0.87603-1.6834 0.59245-0.14811 0.82004 0.64664 0.91577 0.76765 0.093926 0.12102 0.10657 0.28358-0.027092 0.29623-0.65748 0.065025-1.0512 0.2023-1.2391 0.37751-0.18785 0.1752 0.08128 0.52381 0.39015 0.74056 0.30887 0.21494 1.2391 0.71346 1.5082 0.83449 0.26913 0.12102 1.0512 0.37569 1.4016 0.44434 0.35041 0.066834 0.40279-0.24204 0.48407-0.4046 0.070444-0.14088 0.027095-0.29623 0.33596-0.25648 1.8351 0.24023 2.2361-0.052383 2.3572-0.039742 0.12102 0.01445 0.28358 0.14812 0.31067 0.37751 0.025288 0.22758-0.61954 0.36305-0.91577 0.44434s-1.9941 0.10838-1.9941 0.10838-0.42989 0.33596-0.51117 1.1434c-0.08128 0.8074 1.9526 1.6292 2.6787 1.8315 0.72792 0.2023 2.4926 0.45879 4.4976 0.18966 2.0086-0.26913 2.8557-1.5227 3.2061-2.8972 0.35041-1.3727-0.71347-1.8026-0.87603-1.8171-0.16076-0.01265-0.51117-0.35042-0.65928-0.60509-0.14811-0.25649-0.61954-0.6069-0.95551-0.8092-0.33777-0.20049-0.84894-0.64664-0.84894-0.64664s-0.012644-0.33596-0.43169-0.49853c-0.41724-0.16075-0.72611 0.68819-0.9826 1.2535-0.25468 0.56535-0.48408 0.8092-0.70082 1.2517-0.21494 0.44434-0.56536 0.54007-0.69902 0.54007-0.13547 0-0.17521-0.22939-0.17521-0.59245 0-0.36486-0.33596-0.72791-0.90312-1.091-0.56536-0.36486-1.7105 0.25468-1.8442 0.30887-0.13547 0.054192-0.7803 0.31068-0.96996 0.39196-0.18785 0.079475-0.25649 0.20049-0.41724 0.39014-0.16256 0.18785-0.45698-0.13547-0.55271-0.2023-0.093926-0.068634-0.22759-0.18784 0.01445-0.49852 0.24204-0.30887 1.0097-0.56536 1.3728-0.67374 0.36486-0.10657 0.76766-0.59245 0.98441-0.76765 0.21494-0.1752 0.44434-0.33777 0.59245-0.24203 1.0007 0.6376 2.2217 0.8092 2.4222 0.8092 0.2023 0 1.0512-0.01445 0.63399-1.3077-0.57258-1.7755-2.4384-2.1404-3.878-2.1946-1.4414-0.054184-2.1819 0.30887-2.2632 0.30887-0.079475 0-0.093926-0.16075-0.054188-0.16075 0.041544 0 0.51297-0.33777 0.86339-0.57981 0.34861-0.24203 0.94106-0.61954 1.1849-0.61954 0.24204 0 1.0368 0.26913 1.3059 0.33777 0.26913 0.066826 0.92841 0.22758 1.454 0.39014 0.52562 0.16076 2.545 1.79 2.9081 2.1549 0.36486 0.36305 0.64664 1.212 0.78211 1.2517 0.13366 0.039734 0.39015-0.17521 0.59245-0.2023 0.2023-0.025291 0.63219 0.5798 0.74056 1.0115 0.10838 0.42989 0.13547 0.48408 0.25649 0.51117 0.12102 0.027092 0.16076-0.26913 0.16076-0.26913s0.14811-0.75501 0.081281-1.8044c-0.066831-1.0512-0.16256-1.3204-0.47143-2.209-0.31068-0.88868-1.3727-0.9826-1.7232-1.091s-1.2264-0.39014-1.846-0.49852c-0.61954-0.10658-0.94286 0.22939-1.3601 0.41724-0.14811 0.066826-0.95551 0.20229-1.0223-0.0271-0.29081-0.98441 1.454-1.5209 1.7358-1.5877 1.8478-0.44073 4.4181 0.44434 4.5518 1.548 0.20411 1.6636 0.39015 1.8586 0.6069 2.1007 0.21494 0.24203 0.79475 0.039734 0.79475 0.039734 0.21494 0.21675 1.2246 0.95731 1.2246 0.95731s0.32332 0.16076 0.16076 0.41724c-0.16076 0.25468-0.26913 1.2915 1.0115 1.1578 1.2788-0.13547 1.7087-1.9381 1.7087-1.9381s0.51298-1.0657 0.14811-3.7715c-0.36306-2.7058-3.9719-5.482-7.2575-6.517-3.2856-1.0368-4.848-0.91757-5.2526-0.91757-0.40279 0-1.212 0.32332-1.4811 0.3775-0.26913 0.054192-0.95551 0.51298-1.1849 0.6069-0.22939 0.093926-1.0223 0.49853-1.1975 0.578-0.17521 0.081276-0.79475 0.47143-1.1578 0.72791-0.36486 0.25468-0.45879 0.52562-0.57981 0.79475-0.12102 0.26913-0.7803 0.79295-0.86158 0.86158-0.081282 0.066834 0 0.17521 0 0.17521 0.75321-0.32332 5.8432-1.0368 6.2478-1.0512 0.4046-0.012642 2.2488-0.066834 2.4908-0.066834s0.67373-0.14811 0.68638 0.16257c0.01445 0.30887-1.4125 0.52381-1.5751 0.53826-0.16076 0.012642-0.87423 0.027092-1.3998 0.093926-0.52562 0.066826-1.7918 2.0338-1.967 2.2885-0.1734 0.25649-0.24204 0.18966-0.56536 0.35042-0.32332 0.16256-1.454 1.0368-1.5895 1.1867-0.13366 0.1463 0.10837 0.71166-0.025288 0.85977-0.13547 0.14992-0.56716-0.092117-0.90674-0.24565-0.80378-0.36305-1.1 0.052383-1.1 0.052383l-1.1 1.1542-0.26191-0.57619s2.7762-2.2542 3.5619-2.8828c0.78752-0.62858 0.20952-0.8381 0.20952-0.8381s-0.57619-0.62858-0.78572-0.68095c-0.20953-0.052383-1.8857 0.2619-3.1953 0.62857-1.3095 0.36667-1.7286 0.78572-3.0381 1.9381-1.3095 1.1524-1.8333 4.1381-1.6762 4.7161 0.15714 0.57619 0.20952 1.4667 0.10476 1.7286-0.10476 0.2619-0.31429 1.1524 0.15714 1.1524s0.8381-1.0476 1.9381-2.3048 2.3048-1.6762 2.7762-1.4143c0.47143 0.26191-0.15714 1.0476-0.41905 1.5191-0.26191 0.47144-0.20952 0.62858-1.2571 1.9381s-0.31429 2.3048-0.10476 2.7762c0.20953 0.47143 0.8381 1.3619 0.99524 2.8304 0.084893 0.78391 0.39376 1.3131 0.84894 1.781h-11.168c-1.4775 0-2.6733-1.1975-2.6733-2.6732v-9.5045c0.72972-0.24384 2.3517-0.80198 2.6425-1.0404 0.37751-0.30887 3.7227-2.8358 3.5962-7.3659-0.012644-0.48408 0.15172-0.64122 0.36306-0.87603 0.12102-0.13367 1.2933-1.2662 1.091-1.9652-0.53826 0.79475-1.0765 1.212-1.2391 1.2933-0.16076 0.081284-0.33596 0.17521-0.45698-0.12283-0.12102-0.29442-0.22939-1.091-1.8315-0.86158-1.4685 0.21133-2.6787 0.46059-4.1652 2.4782v-11.462c0-1.4757 1.1957-2.6732 2.6733-2.6732h2.1314c0.23481 0.47866 0.36847 0.78753 0.54548 1.1975 0.25468 0.58884 1.0801 2.6913 1.4739 3.3596 0.39196 0.66831 0.96273 1.5516 0.96273 1.5516s-0.17701 1.3962-0.13727 2.2018c0.037931 0.80559 0.47143 2.5938 0.47143 2.5938s0.15714 0.29261 0.077669 0.6087c-0.077669 0.31429-0.19688 0.64664-0.11741 1.2174 0.077669 0.56897 0.33416 1.454 0.78572 1.8659 0.45156 0.41183 0.76585 0.64845 1.0205 0.62858 0.25649-0.019867 0.64844-0.39196 1.1596-1.5913 0 0-0.27455-0.037933-0.4913 0.019867-0.21494 0.059608-0.077669-0.1174-0.037933-0.17701 0.037933-0.0578 0.5491-0.45156 0.29442-0.94286-0.25648-0.49129-1.4811-1.9688-1.2192-2.3174 0.17701-0.23662 0.27636-0.019867 0.55091 0.27455 0.27455 0.29442 0.88326 1.0025 0.9826 0.96273 0.097538-0.039734-0.19688-1.0621-1.2572-2.1621 0 0 0.29442-0.13728 0-0.68637-0.29442-0.55091-0.72792-1.1199-0.78572-1.2373-0.059607-0.11922-0.059607-0.39377 0.11741-0.23663 0.17701 0.15715 1.846 1.492 3.477 1.492 1.1795 0 1.2788-0.36305 1.4938-0.47143 0.19508-0.097542 0.4913-0.43169 0.5491-0.60871 0.059607-0.1752 0.13728-0.31248 0.43169-0.41183 0.29623-0.097534 1.259-0.33415 1.3962-1.5913 0 0 0.51117-0.62858-0.11921-1.5913 0 0 4.9238 0.6629 7.0119-3.9485h9.7664c1.4775 0 2.6733 1.1975 2.6733 2.6732v5.155c-0.83449 0.4931-2.6407 0.71708-2.8882 0.71708-0.29622-2e-7 -1.5714 0.019867-1.8081-0.47144m-21.453 11.164c-0.15714-0.039742-0.33777 0.036125-0.58523-0.21133-0.079475-0.077667-0.17701-0.25107-0.18243-0.42266-0.01445-0.51117-1.1199 0.019867-1.2571 0.063217-0.35222 0.11018-0.90313 0.44795-2.1205 1.8225-1.2192 1.3764-1.6509 4.2049-1.6906 5.3248-0.039738 1.1199 0.45156 3.1627 1.9056 5.0882 1.454 1.9255 3.9882 2.2596 4.3224 2.2596 0.33415 0 0.64844-0.039742 0.66831-0.23663 0.019867-0.19688-0.03974-0.19688-0.03974-0.43169 0 0 0.17702-0.4317 0.11741-1.1199-0.13366-1.5696-1.6292-2.7907-2.3572-3.3994-0.72611-0.60871-0.64845-1.4143-0.62857-2.2199 0.019867-0.80378 0.64844-3.477 0.78572-3.9286s1.0259-2.0086 1.165-2.2054c0.13727-0.19688 0.052382-0.34319-0.10295-0.38293m3.8997-8.2401c-0.79475 0.56535-1.2517 1.6292-1.7358 3.0038-0.48588 1.3727-0.76766 2.3301-0.98441 2.9478-0.21494 0.61954-0.36306 0.67373-0.39015 0.8363-0.027096 0.16075 0.027092 0.25468 0.093926 0.32151 0 0 1.1849-0.18785 2.1693-0.63219 0.9826-0.44434 0.95551-0.52562 1.8026-1.091 0.84894-0.56536 1.1867-1.7358 1.4143-2.1675 0.22939-0.43169 1.0133-0.76043 1.1217-0.81462 0.10838-0.052376 0.46059-0.30887 0.46059-0.30887 3.421-1.3059 5.7168-1.4089 5.8252-1.436 0.10838-0.025284 0.16076-0.12102 0.16076-0.12102-0.32332-0.49672-3.3668-0.59245-3.3668-0.59245s-1.0494 0.027092-2.7726-0.47143c-1.725-0.49672-3.0038-0.039741-3.7985 0.52562"/>
				</g>
				<g transform="matrix(1.25 0 0 -1.25 -85.474 891.74)">
					<path class="st0" d="m48.775-97.094c-10.978 0-13.774 6.8836-13.774 14.313 0 7.3623 2.8683 14.248 13.841 14.248 10.837 0 13.834-6.8854 13.834-14.248 1e-7 -7.4959-2.9966-14.313-13.901-14.313m0.066834 23.788c-6.4736 0-7.906-4.2248-7.906-9.4756 0-5.3158 1.4324-9.5424 7.8391-9.5424 6.5386 0 7.971 4.1598 7.971 9.5424 0 5.1821-1.2933 9.4756-7.9041 9.4756"/>
				</g>
			</g>
		</g>
	</g>
</switch>
</svg>
