<svg width="66.646mm" height="30.348mm" version="1.1" viewBox="0 0 251.89 114.7" xml:space="preserve" xmlns="http://www.w3.org/2000/svg"><defs><clipPath id="clipPath26"><path d="m0 350h592v-350h-592z"/></clipPath><linearGradient id="linearGradient112" x2="1" gradientTransform="matrix(-97.074 56.046 56.046 97.074 459.2 254.99)" gradientUnits="userSpaceOnUse"><stop stop-color="#fab31e" offset="0"/><stop stop-color="#fbc41b" offset=".81567"/><stop stop-color="#fbc41b" offset=".89825"/><stop stop-color="#fbc41b" offset="1"/></linearGradient><linearGradient id="linearGradient140" x2="1" gradientTransform="matrix(130.43 109.44 109.44 -130.43 363.71 180.32)" gradientUnits="userSpaceOnUse"><stop stop-color="#f4b51f" offset="0"/><stop stop-color="#f4b51f" offset=".0040025"/><stop stop-color="#f2a61f" offset=".32753"/><stop stop-color="#fbc41b" offset=".52161"/><stop stop-color="#fbc41b" offset=".78233"/><stop stop-color="#fbc41b" offset="1"/></linearGradient><clipPath id="clipPath150"><path d="m0 350h592v-350h-592z"/></clipPath><linearGradient id="linearGradient176" x2="1" gradientTransform="matrix(61.97 51.999 51.999 -61.97 484.06 196.17)" gradientUnits="userSpaceOnUse"><stop stop-color="#f9ab1f" offset="0"/><stop stop-color="#fbc41b" offset=".51938"/><stop stop-color="#fbc41b" offset=".66037"/><stop stop-color="#fbc41b" offset="1"/></linearGradient><linearGradient id="linearGradient200" x2="1" gradientTransform="matrix(74.891 62.841 62.841 -74.891 488.34 213.16)" gradientUnits="userSpaceOnUse"><stop stop-color="#f8a020" offset="0"/><stop stop-color="#fbc41b" offset=".68225"/><stop stop-color="#fbc41b" offset=".87292"/><stop stop-color="#fbc41b" offset="1"/></linearGradient><linearGradient id="linearGradient224" x2="1" gradientTransform="matrix(54.435 0 0 -54.435 357.74 182.43)" gradientUnits="userSpaceOnUse"><stop stop-color="#f78d22" offset="0"/><stop stop-color="#fbc41b" offset=".1346"/><stop stop-color="#fbc41b" offset=".77237"/><stop stop-color="#fbc41b" offset="1"/></linearGradient><linearGradient id="linearGradient248" x2="1" gradientTransform="matrix(54.179 0 0 -54.179 379.65 231.96)" gradientUnits="userSpaceOnUse"><stop stop-color="#fbc41b" offset="0"/><stop stop-color="#fbc41b" offset=".2467"/><stop stop-color="#f9a820" offset=".74965"/><stop stop-color="#f9a820" offset="1"/></linearGradient><linearGradient id="linearGradient272" x2="1" gradientTransform="matrix(-65.019 -11.465 -11.465 65.019 435.96 264.93)" gradientUnits="userSpaceOnUse"><stop stop-color="#f9ac1f" offset="0"/><stop stop-color="#fbc41b" offset=".77238"/><stop stop-color="#fbc41b" offset=".94013"/><stop stop-color="#fbc41b" offset="1"/></linearGradient><linearGradient id="linearGradient306" x2="1" gradientTransform="matrix(163.57 0 0 -163.57 348.97 228)" gradientUnits="userSpaceOnUse"><stop stop-color="#d87528" offset="0"/><stop stop-color="#d87528" offset=".096345"/><stop stop-color="#e69e22" offset=".27265"/><stop stop-color="#d87d26" offset=".43046"/><stop stop-color="#d87d26" offset=".51874"/><stop stop-color="#d87d26" offset=".52973"/><stop stop-color="#d87d26" offset=".6139"/><stop stop-color="#fbc41b" offset=".91248"/><stop stop-color="#fbc41b" offset="1"/></linearGradient><linearGradient id="linearGradient332" x2="1" gradientTransform="matrix(-40.558 111.43 111.43 40.558 430.56 227.33)" gradientUnits="userSpaceOnUse"><stop stop-color="#c27528" offset="0"/><stop stop-color="#fbc41b" offset=".70712"/><stop stop-color="#fbc41b" offset=".86116"/><stop stop-color="#fbc41b" offset=".98037"/><stop stop-color="#fbc41b" offset="1"/></linearGradient><linearGradient id="linearGradient354" x2="1" gradientTransform="matrix(-29.233 80.316 80.316 29.233 416.75 216.14)" gradientUnits="userSpaceOnUse"><stop stop-color="#cd7629" offset="0"/><stop stop-color="#cd7629" offset=".2713"/><stop stop-color="#fbc41b" offset="1"/></linearGradient><linearGradient id="linearGradient380" x2="1" gradientTransform="matrix(-14.861 40.83 40.83 14.861 413.93 211.62)" gradientUnits="userSpaceOnUse"><stop stop-color="#d87528" offset="0"/><stop stop-color="#d87528" offset=".068003"/><stop stop-color="#fbc41b" offset=".83426"/><stop stop-color="#fbc41b" offset=".95641"/><stop stop-color="#fbc41b" offset="1"/></linearGradient><linearGradient id="linearGradient402" x2="1" gradientTransform="matrix(54.435 0 0 -54.435 357.74 180.79)" gradientUnits="userSpaceOnUse"><stop stop-color="#d87528" offset="0"/><stop stop-color="#d87528" offset=".31448"/><stop stop-color="#fbc41b" offset="1"/></linearGradient><linearGradient id="linearGradient430" x2="1" gradientTransform="matrix(41.131 0 0 -41.131 384.55 175.72)" gradientUnits="userSpaceOnUse"><stop stop-color="#cd7629" offset="0"/><stop stop-color="#cd7629" offset=".31113"/><stop stop-color="#cd7629" offset=".6137"/><stop stop-color="#fbc41b" offset=".90804"/><stop stop-color="#fbc41b" offset=".97581"/><stop stop-color="#fbc41b" offset="1"/></linearGradient><linearGradient id="linearGradient452" x2="1" gradientTransform="matrix(93.02 0 0 -93.02 479.4 246.92)" gradientUnits="userSpaceOnUse"><stop stop-color="#d87d26" offset="0"/><stop stop-color="#d87d26" offset=".20618"/><stop stop-color="#fbc41b" offset="1"/></linearGradient><linearGradient id="linearGradient474" x2="1" gradientTransform="matrix(89.589 0 0 -89.589 469.61 218.13)" gradientUnits="userSpaceOnUse"><stop stop-color="#d87d26" offset="0"/><stop stop-color="#d87d26" offset=".42771"/><stop stop-color="#fbc41b" offset="1"/></linearGradient></defs><g transform="matrix(1.3333 0 0 -1.3333 -165.35 264.66)"><g transform="matrix(.34257 0 0 .34257 116.12 83.605)"><g clip-path="url(#clipPath26)"><g transform="translate(39.091 191.39)"><path d="m0 0c11.438 0 26.293 0.212 34.416 0.64l-3.954-10.366h-44.462c0.534 14.215 0.642 22.551 0.642 36.981 0 15.605-0.108 24.37-0.642 39.653h14.322c-0.534-15.283-0.642-24.048-0.642-39.653 0-10.261 0.108-17.849 0.32-27.255" fill="#201d1c"/></g><g transform="translate(91.571 181.67)"><path d="m0 0h-13.682c0.536 10.047 0.641 16.14 0.641 26.293 0 10.9-0.105 16.032-0.641 26.721h13.682c-0.534-10.689-0.642-15.821-0.642-26.721 0-10.153 0.108-16.246 0.642-26.293m-6.842 63.381c-5.344 0-8.335 3.42-8.335 7.482 0 3.848 2.991 7.268 8.335 7.268 5.239 0 8.232-3.42 8.232-7.268 0-4.062-2.993-7.482-8.232-7.482" fill="#201d1c"/></g><g transform="translate(124.7 225.92)"><path d="m0 0c-5.558 0-9.513-2.672-12.398-7.375-0.214-3.314-0.322-7.696-0.322-11.865 0-6.414 0.108-13.575 0.322-16.246 2.565-1.177 5.451-1.708 9.405-1.708 9.512 0 16.032 6.944 16.032 19.238 0 12.397-5.024 17.956-13.039 17.956m-25.866 37.302h13.68c-0.212-5.238-0.426-12.933-0.426-18.491 0-6.628 0-12.398 0.106-18.704 4.169 6.84 10.796 9.939 17.85 9.939 11.33 0 20.842-8.551 20.842-25.117 0-17.316-11.437-30.355-30.676-30.355-9.405 0-16.247 1.711-21.27 4.488 0.428 13.681 0.535 20.735 0.535 36.128 0 16.458-0.107 29.393-0.641 42.112" fill="#201d1c"/></g><g transform="translate(169.06 214.27)"><path d="m0 0h25.439c-0.855 9.513-4.916 13.681-12.504 13.681-7.591 0-12.291-5.342-12.935-13.681m18.17-24.156c6.306 0 12.4 2.032 16.568 5.239l2.993-8.229c-5.88-4.491-12.721-6.628-22.232-6.628-15.927 0-28.109 10.153-28.109 28.432 0 16.352 10.793 27.039 26.505 27.039 13.895 0 23.836-8.763 23.836-25.008 0-1.605 0-2.888-0.108-4.49h-37.516c0.855-11.223 7.698-16.355 18.063-16.355" fill="#201d1c"/></g><g transform="translate(243.67 235.96)"><path d="m0 0c2.78 0 4.489-0.212 6.2-1.069l-3.956-13.36c-1.922 0.642-3.525 0.964-5.771 0.964-4.168 0-7.91-1.926-11.009-6.842-0.319-3.741-0.535-8.55-0.535-14.964 0-5.557 0.108-12.292 0.535-19.024h-13.682c0.536 9.938 0.644 16.14 0.644 26.293 0 10.9-0.108 16.352-0.644 26.721h11.758l1.497-11.009c3.526 8.337 9.619 12.29 14.963 12.29" fill="#201d1c"/></g><g transform="translate(274.23 190.43)"><path d="m0 0c4.704 0 8.871 2.137 12.292 7.589 0.214 3.315 0.32 8.122 0.32 12.398 0 6.092-0.106 12.826-0.32 15.499-2.779 1.283-5.452 1.817-9.297 1.817-8.659 0-16.249-6.521-16.249-18.385 0-13.147 5.665-18.918 13.254-18.918m25.759-8.763h-12.399l-0.961 8.657c-4.168-6.732-11.008-9.834-18.17-9.834-10.795 0-20.628 9.3-20.628 26.294 0 17.422 13.466 29.178 29.926 29.178 5.666 0 9.406-0.64 13.361-1.925l9.192 2.781c-0.855-10.689-0.963-16.461-0.963-27.47 0-11.329 0-16.139 0.642-27.681" fill="#201d1c"/></g><g transform="translate(323.51 181.67)"><path d="m0 0h-13.681c0.535 15.176 0.641 24.046 0.641 39.439 0 16.458-0.106 25.866-0.641 42.112h13.681c-0.534-16.246-0.641-25.654-0.641-42.112 0-15.393 0.107-24.263 0.641-39.439" fill="#201d1c"/></g><g transform="translate(38.771 126.61)"><path d="m0 0c0-10.26 0.108-20.843 0.32-29.395 1.496-0.105 6.628-0.105 10.047-0.105 20.952 0 32.492 10.261 32.492 29.394 0 19.025-12.397 28.003-33.026 28.003-3.42 0-6.625 0-9.513-0.105-0.212-6.736-0.32-17.102-0.32-27.792m-13.681-39.119c0.535 14.217 0.642 22.554 0.642 36.98 0 15.606-0.107 24.37-0.642 39.656h25.759c27.469 0 44.784-11.756 44.784-35.591 0-25.441-16.568-41.045-45.532-41.045z" fill="#201d1c"/></g><g transform="translate(115.09 120.09)"><path d="m0 0h25.439c-0.855 9.514-4.918 13.682-12.506 13.682-7.589 0-12.291-5.344-12.933-13.682m18.17-24.156c6.307 0 12.4 2.032 16.566 5.239l2.995-8.231c-5.878-4.49-12.72-6.626-22.232-6.626-15.926 0-28.11 10.153-28.11 28.429 0 16.356 10.794 27.044 26.506 27.044 13.895 0 23.836-8.767 23.836-25.012 0-1.604 0-2.884-0.108-4.491h-37.516c0.857-11.221 7.696-16.352 18.063-16.352" fill="#201d1c"/></g><g transform="translate(241.96 122.55)"><path d="m0 0c0-6.945-0.428-11.114-0.428-16.887 0-7.052 0-11.009 0.534-18.17h-13.361c0.536 6.734 0.536 10.583 0.536 17.53 0 6.198-0.108 12.932-0.322 16.351-0.428 6.843-3.739 10.369-9.405 10.369-4.49 0-8.765-2.351-12.078-7.376-0.427-4.381-0.535-11.007-0.535-16.994 0-7.692 0.108-12.185 0.535-19.88h-13.468c0.535 6.734 0.535 10.583 0.535 17.53 0 6.198 0 12.825-0.214 16.351-0.427 6.948-3.848 10.369-9.511 10.369-4.49 0-8.767-2.351-11.972-7.376-0.429-4.381-0.534-11.007-0.534-16.994 0-7.692 0.105-12.185 0.534-19.88h-13.469c0.536 10.047 0.644 16.14 0.644 26.293 0 10.904-0.108 15.928-0.644 26.723h11.972l1.283-8.658c4.383 6.626 9.619 9.941 17.956 9.941 7.268 0 13.04-4.17 15.177-11.01 5.346 7.482 11.436 11.01 19.241 11.01 10.045 0 16.994-7.056 16.994-19.242" fill="#201d1c"/></g><g transform="translate(276.27 133.35)"><path d="m0 0c-9.299 0-14.643-7.91-14.643-19.345 0-11.33 5.344-19.348 14.643-19.348 9.406 0 14.749 7.91 14.749 19.348 0 11.435-5.449 19.345-14.749 19.345m0 8.445c17.207 0 28.216-11.224 28.216-27.15 0-15.711-11.544-28.323-28.216-28.323-17.315 0-28.004 11.007-28.004 27.041 0 15.925 11.329 28.432 28.004 28.432" fill="#201d1c"/></g><g transform="translate(323.29 115.61)"><path d="m0 0c0-13.575 7.16-19.668 16.887-19.668 4.49 0 8.87 1.069 12.612 3.744l2.992-7.912c-5.45-3.741-11.542-5.45-19.453-5.45-14.642 0-26.293 9.511-26.293 28.004 0 15.391 12.078 27.469 28.538 27.469 6.84 0 11.758-0.962 16.568-2.887l-3.099-8.656c-3.422 1.602-7.803 2.67-12.292 2.67-10.37 0-16.46-6.733-16.46-17.314" fill="#201d1c"/></g><g transform="translate(392.66 141.79)"><path d="m0 0c2.78 0 4.491-0.214 6.2-1.068l-3.954-13.361c-1.925 0.64-3.527 0.96-5.771 0.96-4.169 0-7.912-1.924-11.01-6.84-0.32-3.741-0.534-8.553-0.534-14.963 0-5.559 0.107-12.293 0.534-19.026h-13.681c0.534 9.939 0.642 16.139 0.642 26.293 0 10.903-0.108 16.354-0.642 26.722h11.757l1.497-11.009c3.525 8.337 9.617 12.292 14.962 12.292" fill="#201d1c"/></g><g transform="translate(423.23 96.257)"><path d="m0 0c4.701 0 8.871 2.141 12.29 7.592 0.214 3.311 0.322 8.123 0.322 12.397 0 6.092-0.108 12.826-0.322 15.498-2.777 1.282-5.452 1.816-9.297 1.816-8.657 0-16.248-6.517-16.248-18.383 0-13.147 5.666-18.92 13.255-18.92m25.759-8.763h-12.401l-0.962 8.657c-4.167-6.733-11.006-9.832-18.167-9.832-10.797 0-20.628 9.297-20.628 26.293 0 17.422 13.466 29.181 29.926 29.181 5.663 0 9.406-0.641 13.361-1.925l9.191 2.779c-0.854-10.69-0.963-16.46-0.963-27.47 0-11.328 0-16.139 0.643-27.683" fill="#201d1c"/></g><g transform="translate(476.13 131.74)"><path d="m0 0c0-10.261-0.427-21.057 0.215-28.323 0.428-5.13 4.062-7.484 7.802-7.484 3.742 0 6.414 0.642 9.086 2.354l2.67-7.483c-3.952-2.886-9.725-4.489-16.137-4.489-9.3 0-16.248 6.305-16.248 17.956 0 8.015 0.427 18.597 0.427 27.469h-8.762v8.766h8.87c0 5.128 0 8.655-0.213 13.466l13.36 2.887c-0.642-5.666-0.855-11.331-0.855-16.353h16.675v-8.766z" fill="#201d1c"/></g><g transform="translate(537.91 130.68)"><path d="m0 0c-3.955 1.496-8.337 2.35-13.254 2.35-8.017 0-10.688-2.243-10.688-5.342 0-2.566 1.497-4.278 7.376-6.521l6.52-2.564c10.26-3.956 14.109-8.551 14.109-16.354 0-9.513-8.873-15.925-21.059-15.925-9.511 0-15.391 1.496-20.52 4.168l2.566 8.55c4.809-2.565 10.794-4.061 16.566-4.061 7.374 0 10.367 2.564 10.367 6.092 0 3.207-1.495 5.129-8.979 7.908l-6.518 2.46c-8.231 2.994-12.506 7.374-12.506 15.07 0 8.55 8.016 15.286 22.019 15.286 6.732 0 11.544-0.641 16.564-2.459z" fill="#201d1c"/></g></g><path d="m374.98 333.28c-8.081-37.372 36.678-47.63 61.407-64.829 3.758-2.502 6.307-5.299 8.099-8.703 1.91-3.632 2.916-7.394 3.083-11.623 0.193-4.846-0.227-10.177-1.602-15.18 0.191 0.258 1.135 1.274 1.882 2.458 3.283 5.206 10.163 18.323 5.11 30.307 0 0-4.787 10.618-25.164 19.817 0 0-22.588 9.689-33.28 18.609 0 0-18.227 15.593-19.532 29.168z" fill="url(#linearGradient112)"/><path d="m468.53 262.45s-6.083-7.649-11.388-20.453c0 0-9.714-20.343-22.803-28.613 0 0-13.758-10.611-32.459-13.27 0 0-4.941-0.916-11.617-0.916-5.173 0-11.397 0.558-17.127 2.521 0 0-9.198 2.21-17.463 6.62-2.766 1.475-5.946 3.183-8.122 5.151 0 0-0.407-1.911-0.42-4.677v-0.257c0.013-3.192 0.571-7.451 2.836-11.25 0 0 0.328-0.729 0.845-1.62 4.279-3.733 9.629-5.04 14.955-5.04 12.44 0 26.934 6.946 38.988 7.665 17.305 0 36.523 2.243 50.004 11.84 10.077 7.182 16.821 19.33 22.371 32.286 5.598 14.011 19.09 22.736 34.783 26.14-0.225 0.15-0.427 0.246-0.587 0.309-0.571 0.229-1.204 0.368-2.187 0.368-0.716 0-1.553-0.078-2.543-0.243 0 0-0.927-0.153-2.592-0.153-2.069 0-5.285 0.23-9.309 1.29 0 0-2.868 0.614-6.84 0.614-5.938 0-14.33-1.388-19.325-8.312" fill="url(#linearGradient140)"/><g clip-path="url(#clipPath150)"><g transform="translate(408.92 182.63)"><path d="m0 0s-5.724-15.212-11.608-19.056c0 0-1.475-1.226-4.028-2.147-1.532-0.552-3.858-1.101-6.082-1.101-0.329 0-2.306 0.04-2.649 0.061 2.216-0.656 5.818-1.346 7.894-1.562 0.095-0.01 0.628 8e-3 0.716 0 21.072-1.924 23.191 20.407 28.813 34.5 0.055 0.054 0.113 0.105 0.173 0.154 0.682 0.547 2.387 0.517 3.535 0.599-0.064 0-0.405 0.122-0.478 0.135-0.374 0.067-0.473 0.078-0.992 0.114-0.564 0.039-1.186-0.1-1.643-0.175-3.662-0.595-9.496-2.963-13.651-11.522" fill="#f7ba1e"/></g></g><path d="m535.36 220.85c-5.873-2.609-12.119-3.331-17.283-3.331-3.393 0-6.803 0.266-10.124 0.947-2.235 0.459-4.424 1.117-6.667 1.546-1.935 0.363-3.897 0.618-5.866 0.749-0.907 0.062-1.823 0.089-2.738 0.089-3.798 0-5.982-0.545-5.982-0.545-6.524-1.7-11.491-4.517-14.282-6.364-0.648-0.428-1.661-1.131-2.066-1.429 0.881 0.266 2.255 0.769 3.151 0.883 2.176 0.277 4.371 0.196 6.478 0.196 5.447 0 10.585-2.516 15.965-3.723 5.365-1.22 10.871-1.714 16.312-1.714 3.052 0 6.443 0.527 9.532 1.493 13.625 5.247 26.152 10.617 36.82 21.775l0.735 0.885c-7.926-6.071-23.985-11.457-23.985-11.457" fill="url(#linearGradient176)"/><path d="m556.49 256.03c-6.106-4.57-13.501-7.058-20.943-8.376-4.477-0.798-9.106-0.64-13.734-0.484-6.069 0.206-12.139 0.412-17.866-1.536-15.092-5.01-24.949-21.339-24.949-21.339 0.327 0.209 0.659 0.409 0.987 0.616 12.559 15.056 36.911 6.492 54.402 11.631 15.652 3.918 30.426 14.911 36.291 30.587-4.821-5.004-14.188-11.099-14.188-11.099" fill="url(#linearGradient200)"/><path d="m388.54 185.41c-7.677-5.014-14.243-6.964-14.243-6.964-2.066-0.538-3.975-0.756-5.731-0.756-5.533 0-9.342 2.178-10.828 3.195 4.437-5.542 10.257-10.424 16.162-10.424 2.694 0 5.404 0.731 8.04 2.374 10.211 5.104 18.493 17.81 30.232 20.906-0.866 0.524-1.703 0.608-2.094 0.633-0.241 0.016-0.487 0.023-0.733 0.023-8.848 0-20.805-8.987-20.805-8.987" fill="url(#linearGradient224)"/><path d="m381.21 243.52c4.611-4.512 9.952-9.762 15.919-12.004 4.482-2.852 10.651-5.073 16.661-5.368 1.5-0.073 2.989-0.057 4.44-0.041 4.138 0.047 7.96 0.093 10.793-1.947 1.57-1.132 2.236-1.704 3.084-3.225 0.296-0.53 0.636-1.505 0.825-2.389 0.186 0.156 0.304 0.4 0.466 0.744 0.192 0.409 0.29 0.947 0.333 1.297 0.371 3.04-0.041 8.51-6.684 11.201 0 0-2.415 1.065-9.121 1.933 0 0-13.474 1.042-20.664 4.076 0 0-14.232 4.933-17.615 7.582 0 0 1.04-1.347 1.563-1.859" fill="url(#linearGradient248)"/><path d="m364.82 288.2c1.173-6.953 3.264-14.074 8.228-18.206 15.123-14.055 37.219-16.813 56.675-26.532 7.005-3.007 9.033-11.052 8.35-19.163 0.89 2.028 4.424 10.441 1.433 18.995 0 0-1.515 7.086-19.181 13.8 0 0-24.692 8.548-32.83 13.873 0 0-16.889 8.729-22.203 22.509 0 0-0.617-2.127-0.472-5.276" fill="url(#linearGradient272)"/><path d="m475.77 242.92c-5.485-12.786-11.403-23.917-21.302-31.087-11.585-8.386-29.26-11.856-43.303-12.934-4.674-0.358-9.356-0.365-13.994-1.106-4.282-0.684-8.495-1.744-12.712-2.738-4.221-0.996-8.459-1.979-12.765-2.533-2.298-0.296-4.616-0.474-6.934-0.427-5.094 0.104-11.678 3.546-15.791 7.131 0.466-0.797 1.005-2.558 2.19-4.095 2.654-3.442 7.246-7.312 12.234-7.692 0 0 7.082-1.284 18.122 3.407 0 0 18.517 6.711 29.789 6.96 0 0 24.722-0.23 35.227 3.513 7.937 2.835 14.47 6.377 21.234 14.876 6.767 8.501 8.524 15.617 10.702 20.171 0 0 6.566 13.67 14.583 20.147 0 0 10.215 8.767 19.494 11.582 0 0-0.235 0.34-0.945 0.638-15.716-3.409-30.219-11.78-35.829-25.813" fill="url(#linearGradient306)"/><path d="m375.16 306.78s4.72-13.302 21.171-23.403c0 0 13.668-7.806 23.677-11.685 0 0 21.494-7.624 25.259-21.672 0.175-0.656 0.312-1.326 0.407-2.01 0.1-0.723 0.16-1.161 0.23-2.224 0 0 0.091-1.596 0.228-3.731 0.191-2.978 0.318-6.988-0.164-9.108l0.081 0.108c0.155 0.289 0.227 0.558 0.32 0.836 0.121 0.362 0.185 0.721 0.271 1.08 0.452 1.856 0.713 3.701 0.971 5.554 1.527 11.013-0.719 21.655-10.81 28.381-24.778 17.226-68.916 27.979-61.817 64.4-0.111-0.571-6.312-11.472 0.176-26.526" fill="url(#linearGradient332)"/><path d="m374.37 264.54s6.885-6.46 14.253-9.501c0 0 11.824-5.057 22.353-7.978 0 0 19.465-5.223 24.47-12.998 0 0 3.325-5.235 2.407-10.243 0 0 0.089 0.168 0.224 0.476 0.189 0.428 0.206 0.952 0.23 1.412 0.047 0.87 0.055 1.75 0.06 2.622 4e-3 0.601-0.035 1.199-0.049 1.799-0.014 0.636-0.048 1.272-0.107 1.905-0.12 1.277-0.346 2.544-0.729 3.771-1.239 3.973-4.115 6.861-7.735 8.788-0.71 0.378-1.44 0.724-2.181 1.049-2.396 1.048-4.92 1.872-7.327 2.839-3.434 1.38-6.907 2.657-10.38 3.934-1.986 0.729-3.973 1.458-5.954 2.205-6.906 2.604-13.749 5.382-20.11 9.164-3.544 2.107-6.62 4.646-9.776 7.273-4.971 4.138-8.028 10.176-9.195 17.14 0.309-6.321 2.024-16.936 9.546-23.657" fill="url(#linearGradient354)"/><path d="m403.44 225.08s7.546-3.132 17.201-2.737c0 0 0.669 0.098 1.704 0.147 2.893 0.138 8.634-0.107 10.582-3.939 0 0 0.075-0.065 0.186 0.331-0.573 2.679-1.67 4.944-3.101 6.014-2.775 2.076-6.905 1.276-11.604 1.694-7.347 0.652-15.976 2.967-21.664 6.587-1.578 0.957-12.032 7.554-17.102 12.207 1.563-2.463 10.406-15.572 23.798-20.304" fill="url(#linearGradient380)"/><path d="m382.67 173.64c-8.369-5.234-17.74-1.341-24.228 6.74-0.462 0.302-0.701 0.518-0.701 0.518 2.1-3.318 4.507-5.774 4.507-5.774 8.644-9.601 18.551-6.975 18.551-6.975 6.875 1.938 18.552 15.679 18.552 15.679 8.05 9.568 12.824 9.912 12.824 9.912l-0.162 0.02c-11.758-3.101-19.104-15.007-29.343-20.12" fill="url(#linearGradient402)"/><path d="m421.64 193.13c-2.684-2.463-3.818-5.902-4.941-9.26-1.982-5.921-3.718-13.066-7.539-18.118-2.545-3.364-6.116-5.284-10.23-6.009-2.276-0.398-4.896-0.75-7.204-0.575-2.418 0.179-4.803 0.689-7.169 1.216 2.308-0.953 4.476-1.769 6.983-2.182 3.286-0.532 7.621-1.361 10.942-0.599 6.518 1.477 10.622 5.763 12.887 11.968 0.647 1.762 0.879 3.605 1.255 5.435 0.793 3.81 2.025 7.57 3.521 11.158 1.162 2.788 2.726 6.417 5.543 7.911 0 0-0.377 0.06-1.038 0.067-1.249-0.09-2.331-0.345-3.01-1.012" fill="url(#linearGradient430)"/><path d="m572.11 268.84-0.045-0.058c-0.417-0.558-0.931-1.13-1.502-1.735-3.668-7.482-7.241-12.776-13.066-18.236-5.395-5.057-12.205-8.687-19.323-10.843-2.265-0.69-4.574-1.21-6.902-1.657-5.877-1.114-11.626-1.312-17.566-0.731-6.194 0.606-12.781 0.906-18.891-0.528-4.726-1.109-8.471-4.101-12.103-7.187-1.078-0.916-2.345-2.258-3.309-3.296 4.44 2.688 9.523 4.985 14.604 6.096 2.689 0.586 6 0.838 8.27 0.661 6.091-0.471 12.118-1.087 18.232-0.99 0.414 0.011 0.825 0.02 1.234 0.024 19.064 1.383 31.032 9.983 31.032 9.983 19.943 12.596 19.646 28.937 19.646 28.937-0.091-0.144-0.2-0.286-0.311-0.44" fill="url(#linearGradient452)"/><path d="m522 210.74c-13.252-4.235-21.903 0.484-30.327 2.804-6.72 1.854-13.452 1.452-21.105-0.873-0.617-0.458-0.959-0.747-0.959-0.747 9.255 2.149 19.171-2.32 22.306-3.921 0.2-0.101 0.399-0.207 0.6-0.309 0.726-0.371 1.467-0.719 2.226-1.018 9.677-3.809 20.326-2.188 20.326-2.188 28.956 5.327 43.578 26.828 44.131 27.629-10.493-10.956-23.535-17.012-37.198-21.377" fill="url(#linearGradient474)"/></g></g></svg>
