<svg version="1.1" viewBox="0 0 354.3 354.4" xml:space="preserve" xmlns="http://www.w3.org/2000/svg">
<style type="text/css">
	.st0{fill:#8CB57E;}
	.st1{fill:#3F8428;}
	.st2{fill:#FFCC00;}
	.st3{fill:#FAC000;}
	.st4{fill:#F7B800;}
	.st5{fill:#E79500;}
	.st6{fill:#F0A700;}
	.st7{fill:#DD7602;}
</style>

<g id="Poppy">
	
		<path class="st2" d="m354.3 177.2c0-19.2-25.1-38.2-54.1-51 11.5-29.5 15.8-60.7 2.2-74.3s-44.8-9.3-74.3 2.2c-12.8-29-31.8-54.1-51-54.1s-38.2 25.1-51 54.1c-29.5-11.5-60.7-15.8-74.3-2.2s-9.3 44.8 2.2 74.3c-28.9 12.7-54 31.8-54 51s25.1 38.2 54.1 51c-11.5 29.5-15.8 60.7-2.2 74.3s44.8 9.3 74.3-2.2c12.8 29 31.8 54.1 51 54.1s38.2-25.1 51-54.1c29.5 11.5 60.7 15.8 74.3 2.2s9.3-44.8-2.2-74.3c28.9-12.8 54-31.9 54-51zm-177.1 0z" fill="#fc0"/>
		<path class="st2" d="m177.2 0h-1-0.1-0.1-0.1-0.1-0.1-0.2-0.2-0.1-0.2c-18.4 1.9-36.4 26.2-48.7 54 19.7 7.7 38.6 18.5 51 29.4 12.3-10.9 31.3-21.7 51-29.4-12.7-28.4-31.3-53.2-50.2-54h-0.1-0.4-0.4" fill="#fc0"/><g fill="#fac000">
		<path class="st3" d="m177.2 270.9c-12.3 10.9-31.3 21.7-51 29.4 11.6 26.3 28.4 49.4 45.7 53.5h0.1 0.1 0.1c1.3 0.3 2.6 0.5 3.8 0.5h0.1 0.1 0.2 0.7 0.5 0.1 0.3 0.3 0.1c0.6 0 1.2-0.1 1.9-0.2h0.1 0.1 0.1c18-2.8 35.5-26.6 47.4-53.8-19.6-7.7-38.5-18.6-50.8-29.4"/>
		<path class="st3" d="m300.2 126.2c-7.7 19.7-18.5 38.6-29.4 51 10.9 12.3 21.7 31.3 29.4 51 28.7-12.7 53.7-31.5 54.1-50.5v-0.4-0.7-0.1c-0.1-2.5-0.6-4.9-1.4-7.3-5.7-16.5-27.8-32.1-52.7-43"/>
		<path class="st3" d="m54.1 126.2c-26 11.4-48.9 27.9-53.3 45.1-0.5 2-0.8 3.9-0.8 5.9v0.5 0.3 0.1c0.8 18.9 25.6 37.5 54.1 50 7.7-19.7 18.5-38.6 29.4-51-10.9-12.3-21.8-31.2-29.4-50.9"/></g><g fill="#fc0">
		<path class="st2" d="m51.9 51.9-0.9 0.9s0 0.1-0.1 0.1l-0.1 0.1s0 0.1-0.1 0.1l-0.2 0.2s0 0.1-0.1 0.1l-0.1 0.1c-11.6 14.4-7.2 44.3 3.8 72.6 19.4-8.5 40.4-14.2 56.8-15.3 1-16.4 6.8-37.5 15.3-56.8-29-11.3-59.7-15.6-73.6-2.9l-0.4 0.4c-0.1 0.2-0.2 0.3-0.3 0.4"/>
		<path class="st2" d="m243.4 243.4c-1 16.4-6.8 37.5-15.3 56.8 26.8 10.4 55 14.9 70.1 5.5 0 0 0.1 0 0.1-0.1 1.1-0.7 2.1-1.5 3.1-2.3l0.2-0.2s0.1-0.1 0.2-0.1l0.5-0.5c0.1-0.1 0.2-0.2 0.3-0.4l0.1-0.1c0.1-0.1 0.1-0.2 0.2-0.2l0.3-0.3c0.4-0.5 0.8-0.9 1.2-1.4 0 0 0-0.1 0.1-0.1 0 0 0-0.1 0.1-0.1 10.7-14.7 6.2-43.9-4.5-71.6-19.2 8.4-40.3 14.1-56.7 15.1"/>
		<path class="st2" d="m228.1 54.1c8.5 19.4 14.2 40.4 15.3 56.8 16.4 1 37.5 6.8 56.8 15.3 11.4-29.3 15.7-60.2 2.5-74l-0.8-0.8c-1.8-1.7-3.9-3.1-6.2-4.2-15.6-7.5-42.2-3-67.6 6.9"/>
		<path class="st2" d="m54.1 228.1c-10.3 26.5-14.8 54.3-5.8 69.6 1 1.7 2.2 3.3 3.6 4.7 0.1 0.1 0.2 0.2 0.4 0.3 0.1 0.1 0.2 0.2 0.3 0.2l0.1 0.1c13.9 12.8 44.6 8.4 73.6-2.9-8.5-19.4-14.2-40.4-15.3-56.8-16.5-0.9-37.6-6.6-56.9-15.2"/></g><g fill="#f7b800">
		<path class="st4" d="m228.1 54.1c-19.7 7.7-38.6 18.5-51 29.4 1.4 1.2 2.6 2.4 3.8 3.6 11.7 11.7 16.3 26 16.3 40v1.7c10-10.6 23.8-18 41-18 1.7 0 3.4 0.1 5.2 0.2-1-16.5-6.7-37.6-15.3-56.9"/>
		<path class="st4" d="m243.4 110.9c0.1 1.8 0.2 3.5 0.2 5.2 0 17.2-7.4 30.9-18 41h1.7c14 0 28.3 4.6 40 16.3 1.2 1.2 2.4 2.5 3.6 3.8 10.9-12.3 21.7-31.3 29.4-51-19.4-8.5-40.5-14.3-56.9-15.3"/>
		<path class="st4" d="m157.1 225.6c-10 10.6-23.8 18-41 18-1.7 0-3.4-0.1-5.2-0.2 1 16.4 6.8 37.5 15.3 56.8 19.7-7.7 38.6-18.5 51-29.4-1.4-1.2-2.6-2.4-3.8-3.6-11.7-11.7-16.3-26-16.3-40v-1.6"/>
		<path class="st4" d="m83.5 177.2c-10.9 12.3-21.7 31.3-29.4 51 19.4 8.5 40.4 14.2 56.8 15.3-0.1-1.8-0.2-3.5-0.2-5.2 0-17.2 7.4-30.9 18-41h-1.7c-14 0-28.3-4.6-40-16.3-1.2-1.2-2.4-2.5-3.5-3.8"/>
		<path class="st4" d="m197.2 225.6v1.7c0 14-4.6 28.3-16.3 40-1.2 1.2-2.5 2.4-3.8 3.6 12.3 10.9 31.3 21.7 51 29.4 8.5-19.4 14.2-40.4 15.3-56.8-1.8 0.1-3.5 0.2-5.2 0.2-17.2-0.1-30.9-7.5-41-18.1"/>
		<path class="st4" d="m270.9 177.2c-1.2 1.4-2.4 2.6-3.6 3.8-11.7 11.7-26 16.3-40 16.3h-1.7c10.6 10 18 23.8 18 41 0 1.7-0.1 3.4-0.2 5.2 16.4-1 37.5-6.8 56.8-15.3-7.6-19.8-18.5-38.7-29.3-51"/>
		<path class="st4" d="m126.2 54.1c-8.5 19.4-14.2 40.4-15.3 56.8 1.8-0.1 3.5-0.2 5.2-0.2 17.2 0 30.9 7.4 41 18v-1.7c0-14 4.6-28.3 16.3-40 1.2-1.2 2.5-2.4 3.8-3.6-12.4-10.8-31.3-21.7-51-29.3"/>
		<path class="st4" d="m110.9 110.9c-16.4 1-37.5 6.8-56.8 15.3 7.7 19.7 18.5 38.6 29.4 51 1.2-1.4 2.4-2.6 3.6-3.8 11.7-11.7 26-16.3 40-16.3h1.7c-10.6-10-18-23.8-18-41-0.1-1.7 0-3.4 0.1-5.2"/></g><g fill="#e79500">
		<path class="st5" d="m177.2 177.2m61-66.5c-17.2 0-30.9 7.4-41 18 0 1.2-0.1 2.4-0.2 3.5-1.4 17.9-9.8 34.8-19.8 44.8 9.6-9.5 25.4-17.6 42.3-19.6 2-0.2 4-0.4 6-0.4 10.6-10 18-23.8 18-41 0-1.7-0.1-3.4-0.2-5.2-1.7 0-3.4-0.1-5.1-0.1"/>
		<path class="st5" d="m177.2 177.2c-10.7 10.7-29.3 19.6-48.5 20.1-10.6 10-18 23.8-18 41 0 1.7 0.1 3.4 0.2 5.2 1.8 0.1 3.5 0.2 5.2 0.2 17.2 0 30.9-7.4 41-18 0.5-19.3 9.4-37.8 20.1-48.5"/>
		<path class="st5" d="m177.2 177.2c10 10 18.5 27 19.9 44.9 0.1 1.2 0.2 2.4 0.2 3.5 10 10.6 23.8 18 41 18 1.7 0 3.4-0.1 5.2-0.2 0.1-1.8 0.2-3.5 0.2-5.2 0-17.2-7.4-30.9-18-41-19.3-0.5-37.8-9.3-48.5-20"/>
		<path class="st5" d="m116.1 110.7c-1.7 0-3.4 0.1-5.2 0.2-0.1 1.8-0.2 3.5-0.2 5.2 0 17.2 7.4 30.9 18 41 19.2 0.5 37.8 9.4 48.5 20.1-10.7-10.7-19.6-29.3-20.1-48.5-10-10.6-23.8-18-41-18"/></g><g fill="#f0a700">
		<path class="st6" d="m177.2 177.2m50.1-20.1h-1.7c-1.2 1.1-2.4 2.2-3.6 3.2-13.5 11.1-31 16.9-44.8 16.9 13.7 0 30.9 5.6 44.3 16.4 1.4 1.1 2.8 2.4 4.1 3.6h1.7c14 0 28.3-4.6 40-16.3 1.2-1.2 2.4-2.5 3.6-3.8-1.2-1.4-2.4-2.6-3.6-3.8-11.7-11.7-26-16.2-40-16.2"/>
		<path class="st6" d="m177.2 177.2c0 15.1-6.8 34.5-20.1 48.5v1.7c0 14 4.6 28.3 16.3 40 1.2 1.2 2.5 2.4 3.8 3.6 1.4-1.2 2.6-2.4 3.8-3.6 11.7-11.7 16.3-26 16.3-40v-1.7c-13.3-14-20.1-33.4-20.1-48.5"/>
		<path class="st6" d="m177.2 83.5c-1.4 1.2-2.6 2.4-3.8 3.6-11.7 11.7-16.3 26-16.3 40v1.7c13.2 13.9 20 33.2 20.1 48.3 0-13.9 5.8-31.2 16.9-44.7 1-1.2 2.1-2.4 3.2-3.6v-1.7c0-14-4.6-28.3-16.3-40-1.2-1.3-2.5-2.5-3.8-3.6"/>
		<path class="st6" d="m127 157.1c-14 0-28.3 4.6-40 16.3-1.2 1.2-2.4 2.5-3.6 3.8 1.2 1.4 2.4 2.6 3.6 3.8 11.7 11.7 26 16.3 40 16.3h1.7c13.9-13.2 33.3-20.1 48.5-20.1-15.1 0-34.5-6.8-48.5-20.1h-1.7"/></g><g fill="#dd7602">
		<path class="st7" d="m225.6 157.1c-2 0.1-4 0.2-6 0.4-17 2-32.8 10.1-42.4 19.6 13.9 0 31.3-5.7 44.8-16.9 1.2-0.9 2.5-2 3.6-3.1"/>
		<path class="st7" d="m177.2 177.2c10.7 10.7 29.3 19.6 48.5 20.1-1.3-1.3-2.7-2.5-4.1-3.6-13.6-10.9-30.7-16.5-44.4-16.5"/>
		<path class="st7" d="m177.2 177.2c0 15.1 6.8 34.5 20.1 48.5 0-1.2-0.1-2.4-0.2-3.5-1.5-18-9.9-35-19.9-45"/>
		<path class="st7" d="m177.2 177.2c-10.7 10.7-19.6 29.3-20.1 48.5 13.2-14 20.1-33.4 20.1-48.5"/>
		<path class="st7" d="m177.3 177.1c-0.1 0-0.1 0 0 0-0.1 0-0.1 0 0 0m19.9-48.4c-1.1 1.2-2.2 2.3-3.2 3.6-11.2 13.5-16.9 31-16.9 44.9 10-10 18.5-27 19.9-44.9 0.1-1.2 0.2-2.4 0.2-3.6"/>
		<path class="st7" d="m177.2 177.2m0-0.2v0.1-0.1m-20.1-48.3c0.5 19.2 9.4 37.8 20.1 48.5 0-15.2-6.9-34.6-20.1-48.5"/>
		<path class="st7" d="m128.7 157.1c13.9 13.2 33.3 20.1 48.5 20.1-10.7-10.7-29.3-19.6-48.5-20.1"/>
		<path class="st7" d="m177.2 177.2c-15.1 0-34.5 6.8-48.5 20.1 19.2-0.6 37.8-9.4 48.5-20.1"/>
	</g>
</g>
</svg>
