<svg enable-background="new 0 0 1283.7 354.3" version="1.1" viewBox="0 0 1283.7 354.3" xml:space="preserve" xmlns="http://www.w3.org/2000/svg">
<style type="text/css">
	.st0{fill:#8CB57E;}
	.st1{fill:#3F8428;}
	.st2{fill:#FFCC00;}
	.st3{fill:#FAC000;}
	.st4{fill:#F7B800;}
	.st5{fill:#E79500;}
	.st6{fill:#F0A700;}
	.st7{fill:#DD7602;}
</style>
<g id="Plaid_plaidcymru.org_copy">
	
		<path class="st0" d="m419.5 117.3h23c7 0 15.7-3.5 15.7-14.8 0-11.8-7.2-14.8-15.5-14.8h-23.3v29.6zm-15.7-42.5h39.6c25.6 0 30.5 16.6 30.5 27.8 0 11.1-4.9 27.6-30.5 27.5h-23.9v34.4h-15.7v-89.7z"/>
		<rect class="st0" x="479.5" y="74.8" width="14.3" height="89.7"/>
		
			<path class="st0" d="m542.5 132c-4.4 2.9-11.3 2.8-17.6 3.9-6.2 1-11.7 3.3-11.7 10.8 0 6.4 8.2 8.3 13.2 8.3 6.3 0 16.1-3.3 16.1-12.3v-10.7zm14.3 18.1c0 3.5 0.8 4.9 3.4 4.9 0.9 0 2 0 3.5-0.2v9.9c-2.1 0.8-6.7 1.6-9 1.6-5.8 0-9.9-2-11.1-7.9-5.7 5.5-14.8 7.9-22.5 7.9-11.7 0-22.2-6.3-22.2-19 0-16.2 12.9-18.9 25-20.2 10.3-1.9 19.5-0.8 19.5-9.2 0-7.4-7.7-8.8-13.4-8.8-8 0-13.7 3.3-14.3 10.3h-14.3c1-16.7 15.2-21.6 29.5-21.6 12.7 0 26 5.2 26 18.8v33.5z"/>
		
		<path class="st0" d="m568.8 99.6h14.3v65h-14.3v-65zm0-24.8h14.3v13.6h-14.3v-13.6z"/>
		<path class="st0" d="m638.2 108h-0.2c-4.4-7.2-13.5-10.2-21.6-10.2-14.2 0-28.1 10.3-28.1 33.8 0 19.5 9.9 34.7 30.4 34.7 8.2 0 16.3-3.1 20.1-10.6h0.3v8.8h13.6v-89.7h-14.3v33.2zm-17.7 47c-12.4 0-18-11.1-18-22.2 0-11.7 4.8-23.6 18.2-23.6 11.1 0 18 8.5 18 22.9 0 11.2-5.4 22.9-18.2 22.9z"/>
	
	
		<path class="st1" d="m449.5 276.8c-20.8 0-29.5-18.3-29.5-36.9s8.7-36.9 29.5-36.9c14.1 0 21.3 8.1 24.2 19.3h17c-2-20.9-19.3-33-41.2-33.1-29.1 0-46.4 23.1-46.4 50.8s17.4 50.8 46.4 50.8c23.5 0 39.9-16 41.3-39.2h-16.6c-1.4 13.9-9.7 25.2-24.7 25.2z"/>
		<path class="st1" d="m531 270.5h-0.3l-18.3-52.4h-17l26.6 69.9-1.8 5.4c-1.9 6-3.7 9.8-10.9 9.8-2.4 0-4.9-0.5-7.3-0.9v13c3.5 0.5 7.1 0.8 10.7 0.8 16.2 0 19.8-11.4 24.8-24l27.3-74h-16.2l-17.6 52.4z"/>
		<path class="st1" d="m648.8 216.2c-10.2 0-16.8 4.5-22 11.7-3.1-8-11.1-11.7-19.7-11.7-11.1 0-17 4.8-21.6 11.7h-0.4v-9.8h-14.7v70.2h15.5v-41.7c0-11.7 7.3-18.2 15.4-18.2 9.4 0 12.4 5.2 12.4 14.8v45.1h15.5v-41.2c0-11.8 4.5-18.7 14.9-18.7 12.1 0 12.8 7.7 12.8 18.9v41h15.5v-48.5c-0.1-17.1-8.8-23.6-23.6-23.6z"/>
		<path class="st1" d="m692.6 231.7h-0.3v-13.6h-14.5v70.2h15.5v-33.4c0-15.5 8.4-24 19-24 2.2 0 4.5 0.4 6.7 0.7v-14.9c-1.4-0.1-2.3-0.4-5.8-0.4-9.6-0.1-18.8 7.9-20.6 15.4z"/>
		<path class="st1" d="m770.6 258.9c0 10.9-4.3 19.2-17.2 19.2-8.4 0-13.4-4.5-13.4-16.8v-43.1h-15.5v44.5c0 18.3 7.9 27.6 26.2 27.6 7.7 0 16.2-4.6 20-11.7h0.3v9.8h15.2v-70.2h-15.5v40.7z"/>
	
	
		<path class="st0" d="m908.3 75h-39.6v89.7h15.7v-34.4h23.9c25.6 0.1 30.5-16.5 30.5-27.5 0-11.2-4.9-27.8-30.5-27.8zm-0.9 42.5h-23v-29.7h23.3c8.3 0 15.5 3 15.5 14.8-0.1 11.4-8.8 14.9-15.8 14.9z"/>
		<path class="st0" d="m996.9 150.3v-33.4c0-13.7-13.3-18.9-26-18.9-14.3 0-28.5 4.9-29.5 21.6h14.3c0.6-7 6.3-10.3 14.3-10.3 5.8 0 13.4 1.4 13.4 8.8 0 8.4-9.2 7.3-19.5 9.2-12.1 1.4-25 4-25 20.2 0 12.7 10.6 19 22.2 19 7.7 0 16.8-2.4 22.5-7.9 1.1 5.9 5.3 7.9 11.1 7.9 2.4 0 6.9-0.9 9-1.6v-9.9c-1.5 0.2-2.6 0.2-3.5 0.2-2.5 0-3.3-1.4-3.3-4.9zm-14.3-7.4c0 9-9.8 12.3-16.1 12.3-5 0-13.2-1.9-13.2-8.3 0-7.5 5.5-9.8 11.7-10.8 6.3-1.1 13.2-1 17.6-3.9v10.7z"/>
		<path class="st0" d="m1022.6 112.4h-0.2v-12.6h-13.4v65h14.3v-30.9c0-14.3 7.8-22.2 17.6-22.2 2 0 4.1 0.4 6.2 0.6v-13.9c-1.3-0.1-2.1-0.4-5.4-0.4-8.9 0-17.5 7.4-19.1 14.4z"/>
		<path class="st0" d="m1077.2 80.3h-14.3v19.5h-10.9v10.7h10.8v38.3c0.3 10.8 3 16.6 18 16.6 3.1 0 6.2-0.5 9.3-0.8v-11.1c-2 0.5-4 0.5-6 0.5-6.4 0-6.9-3-6.9-8.9v-34.7h12.9v-10.6h-12.9v-19.5z"/>
		<path class="st0" d="m1128.1 148.3h-0.3l-17-48.5h-15.7l24.6 64.7-1.6 5c-1.8 5.5-3.4 9-10.1 9-2.3 0-4.5-0.5-6.8-0.9v12.1c3.3 0.5 6.5 0.8 9.9 0.8 15 0 18.3-10.6 23-22.2l25.3-68.5h-15l-16.3 48.5z"/>
		<path class="st0" d="m1213.1 98c-20.9 0-32.8 14.3-32.8 34.2 0 20 11.9 34.3 32.8 34.3s32.8-14.3 32.8-34.3c0-19.9-11.9-34.2-32.8-34.2zm0 57.2c-12.8 0-18.5-11.7-18.5-23 0-11.2 5.7-22.9 18.5-22.9s18.5 11.7 18.5 22.9c0 11.3-5.6 23-18.5 23z"/>
		<path class="st0" d="m1277 86.3c2.9 0 4.8 0.3 6.7 0.8v-11.2c-2.3-0.6-5.5-0.9-10.1-0.9-9.3 0-18 2.8-18 19.4v5.4h-10.6v10.7h10.7v54.3h14.3v-54.3h12.2v-10.7h-12.2v-6.7c0-5.4 3.2-6.8 7-6.8z"/>
	
	
		<polygon class="st1" points="865.8 191.5 883 191.5 900.6 265.7 900.8 265.7 920.4 191.5 937.8 191.5 956.8 265.7 957.1 265.7 975.1 191.5 992.4 191.5 965.6 288.5 948.4 288.5 928.9 214.4 928.7 214.4 908.8 288.5 891.3 288.5"/>
		
			<path class="st1" d="m1029.9 253.3c-4.8 3.1-12.2 3-19 4.2-6.7 1.1-12.6 3.5-12.6 11.7 0 6.9 8.8 9 14.3 9 6.8 0 17.4-3.5 17.4-13.3v-11.6zm15.5 19.6c0 3.8 0.8 5.3 3.7 5.3 1 0 2.2 0 3.8-0.3v10.7c-2.3 0.8-7.2 1.8-9.8 1.8-6.2 0-10.7-2.2-12-8.6-6.1 6-16 8.6-24.3 8.6-12.6 0-24-6.8-24-20.5 0-17.5 14-20.4 27-21.9 11.1-2 21-0.8 21-9.9 0-8-8.3-9.5-14.5-9.5-8.7 0-14.8 3.5-15.5 11.1h-15.5c1.1-18.1 16.4-23.4 31.9-23.4 13.7 0 28.1 5.6 28.1 20.4v36.2z"/>
		
		<rect class="st1" x="1058.3" y="191.5" width="15.5" height="97"/>
		<path class="st1" d="m1114.3 216.4c-20.9 0-34 17.1-34 37.1 0 21.6 12.4 37 34.4 37 15.3 0 28.4-8.6 31.8-23.9h-14.7c-2.7 7.7-8.1 11.7-17.1 11.7-12.9 0-18.9-9.8-18.9-20.8h51.6c2.7-21.1-10.9-41.1-33.1-41.1zm-18.4 30.8c0.4-10.5 7.7-18.6 18.5-18.6 10.5 0 17.1 8.8 17.7 18.6h-36.2z"/>
		<path class="st1" d="m1191.4 247.1c-11.4-2.6-22.8-3.7-22.8-11.3 0-6.1 8.3-7.2 12.8-7.2 6.8 0 12.9 2 14.3 9.4h16.2c-1.9-15.6-14.9-21.6-29.3-21.6-12.8 0-29.3 4.7-29.3 20.1 0 14.3 11.1 18.3 22.5 20.8 11.3 2.6 22.5 3.5 23 11.7 0.4 8-9.8 9.2-15.6 9.2-8.3 0-15.1-3.3-15.9-12.2h-15.5c0.3 16.6 13.4 24.4 31.1 24.4 14.5 0 31.4-6.1 31.4-22.8-0.3-13.9-11.7-17.9-22.9-20.5z"/>
	
	<rect class="st1" x="824.9" y="75" width="4.1" height="213.5"/>
</g>
<g id="Poppy">
	
		<path class="st2" d="m354.3 177.2c0-19.2-25.1-38.2-54.1-51 11.5-29.5 15.8-60.7 2.2-74.3s-44.8-9.3-74.3 2.2c-12.8-29-31.8-54.1-51-54.1s-38.2 25.1-51 54.1c-29.5-11.5-60.7-15.8-74.3-2.2s-9.3 44.8 2.2 74.3c-28.9 12.7-54 31.8-54 51s25.1 38.2 54.1 51c-11.5 29.5-15.8 60.7-2.2 74.3s44.8 9.3 74.3-2.2c12.8 29 31.8 54.1 51 54.1s38.2-25.1 51-54.1c29.5 11.5 60.7 15.8 74.3 2.2s9.3-44.8-2.2-74.3c28.9-12.8 54-31.9 54-51zm-177.1 0z"/>
		<path class="st2" d="m177.2 0h-1-0.1-0.1-0.1-0.1-0.1-0.2-0.2-0.1-0.2c-18.4 1.9-36.4 26.2-48.7 54 19.7 7.7 38.6 18.5 51 29.4 12.3-10.9 31.3-21.7 51-29.4-12.7-28.4-31.3-53.2-50.2-54h-0.1-0.4-0.4"/>
		<path class="st3" d="m177.2 270.9c-12.3 10.9-31.3 21.7-51 29.4 11.6 26.3 28.4 49.4 45.7 53.5h0.1 0.1 0.1c1.3 0.3 2.6 0.5 3.8 0.5h0.1 0.1 0.2 0.7 0.5 0.1 0.3 0.3 0.1c0.6 0 1.2-0.1 1.9-0.2h0.1 0.1 0.1c18-2.8 35.5-26.6 47.4-53.8-19.6-7.7-38.5-18.6-50.8-29.4"/>
		<path class="st3" d="m300.2 126.2c-7.7 19.7-18.5 38.6-29.4 51 10.9 12.3 21.7 31.3 29.4 51 28.7-12.7 53.7-31.5 54.1-50.5v-0.4-0.7-0.1c-0.1-2.5-0.6-4.9-1.4-7.3-5.7-16.5-27.8-32.1-52.7-43"/>
		<path class="st3" d="m54.1 126.2c-26 11.4-48.9 27.9-53.3 45.1-0.5 2-0.8 3.9-0.8 5.9v0.5 0.3 0.1c0.8 18.9 25.6 37.5 54.1 50 7.7-19.7 18.5-38.6 29.4-51-10.9-12.3-21.8-31.2-29.4-50.9"/>
		<path class="st2" d="m51.9 51.9-0.9 0.9s0 0.1-0.1 0.1l-0.1 0.1s0 0.1-0.1 0.1l-0.2 0.2s0 0.1-0.1 0.1l-0.1 0.1c-11.6 14.4-7.2 44.3 3.8 72.6 19.4-8.5 40.4-14.2 56.8-15.3 1-16.4 6.8-37.5 15.3-56.8-29-11.3-59.7-15.6-73.6-2.9l-0.4 0.4c-0.1 0.2-0.2 0.3-0.3 0.4"/>
		<path class="st2" d="m243.4 243.4c-1 16.4-6.8 37.5-15.3 56.8 26.8 10.4 55 14.9 70.1 5.5 0 0 0.1 0 0.1-0.1 1.1-0.7 2.1-1.5 3.1-2.3l0.2-0.2s0.1-0.1 0.2-0.1l0.5-0.5c0.1-0.1 0.2-0.2 0.3-0.4l0.1-0.1c0.1-0.1 0.1-0.2 0.2-0.2l0.3-0.3c0.4-0.5 0.8-0.9 1.2-1.4 0 0 0-0.1 0.1-0.1 0 0 0-0.1 0.1-0.1 10.7-14.7 6.2-43.9-4.5-71.6-19.2 8.4-40.3 14.1-56.7 15.1"/>
		<path class="st2" d="m228.1 54.1c8.5 19.4 14.2 40.4 15.3 56.8 16.4 1 37.5 6.8 56.8 15.3 11.4-29.3 15.7-60.2 2.5-74l-0.8-0.8c-1.8-1.7-3.9-3.1-6.2-4.2-15.6-7.5-42.2-3-67.6 6.9"/>
		<path class="st2" d="m54.1 228.1c-10.3 26.5-14.8 54.3-5.8 69.6 1 1.7 2.2 3.3 3.6 4.7 0.1 0.1 0.2 0.2 0.4 0.3 0.1 0.1 0.2 0.2 0.3 0.2l0.1 0.1c13.9 12.8 44.6 8.4 73.6-2.9-8.5-19.4-14.2-40.4-15.3-56.8-16.5-0.9-37.6-6.6-56.9-15.2"/>
		<path class="st4" d="m228.1 54.1c-19.7 7.7-38.6 18.5-51 29.4 1.4 1.2 2.6 2.4 3.8 3.6 11.7 11.7 16.3 26 16.3 40v1.7c10-10.6 23.8-18 41-18 1.7 0 3.4 0.1 5.2 0.2-1-16.5-6.7-37.6-15.3-56.9"/>
		<path class="st4" d="m243.4 110.9c0.1 1.8 0.2 3.5 0.2 5.2 0 17.2-7.4 30.9-18 41h1.7c14 0 28.3 4.6 40 16.3 1.2 1.2 2.4 2.5 3.6 3.8 10.9-12.3 21.7-31.3 29.4-51-19.4-8.5-40.5-14.3-56.9-15.3"/>
		<path class="st4" d="m157.1 225.6c-10 10.6-23.8 18-41 18-1.7 0-3.4-0.1-5.2-0.2 1 16.4 6.8 37.5 15.3 56.8 19.7-7.7 38.6-18.5 51-29.4-1.4-1.2-2.6-2.4-3.8-3.6-11.7-11.7-16.3-26-16.3-40v-1.6"/>
		<path class="st4" d="m83.5 177.2c-10.9 12.3-21.7 31.3-29.4 51 19.4 8.5 40.4 14.2 56.8 15.3-0.1-1.8-0.2-3.5-0.2-5.2 0-17.2 7.4-30.9 18-41h-1.7c-14 0-28.3-4.6-40-16.3-1.2-1.2-2.4-2.5-3.5-3.8"/>
		<path class="st4" d="m197.2 225.6v1.7c0 14-4.6 28.3-16.3 40-1.2 1.2-2.5 2.4-3.8 3.6 12.3 10.9 31.3 21.7 51 29.4 8.5-19.4 14.2-40.4 15.3-56.8-1.8 0.1-3.5 0.2-5.2 0.2-17.2-0.1-30.9-7.5-41-18.1"/>
		<path class="st4" d="m270.9 177.2c-1.2 1.4-2.4 2.6-3.6 3.8-11.7 11.7-26 16.3-40 16.3h-1.7c10.6 10 18 23.8 18 41 0 1.7-0.1 3.4-0.2 5.2 16.4-1 37.5-6.8 56.8-15.3-7.6-19.8-18.5-38.7-29.3-51"/>
		<path class="st4" d="m126.2 54.1c-8.5 19.4-14.2 40.4-15.3 56.8 1.8-0.1 3.5-0.2 5.2-0.2 17.2 0 30.9 7.4 41 18v-1.7c0-14 4.6-28.3 16.3-40 1.2-1.2 2.5-2.4 3.8-3.6-12.4-10.8-31.3-21.7-51-29.3"/>
		<path class="st4" d="m110.9 110.9c-16.4 1-37.5 6.8-56.8 15.3 7.7 19.7 18.5 38.6 29.4 51 1.2-1.4 2.4-2.6 3.6-3.8 11.7-11.7 26-16.3 40-16.3h1.7c-10.6-10-18-23.8-18-41-0.1-1.7 0-3.4 0.1-5.2"/>
		<path class="st5" d="m177.2 177.2m61-66.5c-17.2 0-30.9 7.4-41 18 0 1.2-0.1 2.4-0.2 3.5-1.4 17.9-9.8 34.8-19.8 44.8 9.6-9.5 25.4-17.6 42.3-19.6 2-0.2 4-0.4 6-0.4 10.6-10 18-23.8 18-41 0-1.7-0.1-3.4-0.2-5.2-1.7 0-3.4-0.1-5.1-0.1"/>
		<path class="st5" d="m177.2 177.2c-10.7 10.7-29.3 19.6-48.5 20.1-10.6 10-18 23.8-18 41 0 1.7 0.1 3.4 0.2 5.2 1.8 0.1 3.5 0.2 5.2 0.2 17.2 0 30.9-7.4 41-18 0.5-19.3 9.4-37.8 20.1-48.5"/>
		<path class="st5" d="m177.2 177.2c10 10 18.5 27 19.9 44.9 0.1 1.2 0.2 2.4 0.2 3.5 10 10.6 23.8 18 41 18 1.7 0 3.4-0.1 5.2-0.2 0.1-1.8 0.2-3.5 0.2-5.2 0-17.2-7.4-30.9-18-41-19.3-0.5-37.8-9.3-48.5-20"/>
		<path class="st5" d="m116.1 110.7c-1.7 0-3.4 0.1-5.2 0.2-0.1 1.8-0.2 3.5-0.2 5.2 0 17.2 7.4 30.9 18 41 19.2 0.5 37.8 9.4 48.5 20.1-10.7-10.7-19.6-29.3-20.1-48.5-10-10.6-23.8-18-41-18"/>
		<path class="st6" d="m177.2 177.2m50.1-20.1h-1.7c-1.2 1.1-2.4 2.2-3.6 3.2-13.5 11.1-31 16.9-44.8 16.9 13.7 0 30.9 5.6 44.3 16.4 1.4 1.1 2.8 2.4 4.1 3.6h1.7c14 0 28.3-4.6 40-16.3 1.2-1.2 2.4-2.5 3.6-3.8-1.2-1.4-2.4-2.6-3.6-3.8-11.7-11.7-26-16.2-40-16.2"/>
		<path class="st6" d="m177.2 177.2c0 15.1-6.8 34.5-20.1 48.5v1.7c0 14 4.6 28.3 16.3 40 1.2 1.2 2.5 2.4 3.8 3.6 1.4-1.2 2.6-2.4 3.8-3.6 11.7-11.7 16.3-26 16.3-40v-1.7c-13.3-14-20.1-33.4-20.1-48.5"/>
		<path class="st6" d="m177.2 83.5c-1.4 1.2-2.6 2.4-3.8 3.6-11.7 11.7-16.3 26-16.3 40v1.7c13.2 13.9 20 33.2 20.1 48.3 0-13.9 5.8-31.2 16.9-44.7 1-1.2 2.1-2.4 3.2-3.6v-1.7c0-14-4.6-28.3-16.3-40-1.2-1.3-2.5-2.5-3.8-3.6"/>
		<path class="st6" d="m127 157.1c-14 0-28.3 4.6-40 16.3-1.2 1.2-2.4 2.5-3.6 3.8 1.2 1.4 2.4 2.6 3.6 3.8 11.7 11.7 26 16.3 40 16.3h1.7c13.9-13.2 33.3-20.1 48.5-20.1-15.1 0-34.5-6.8-48.5-20.1h-1.7"/>
		<path class="st7" d="m225.6 157.1c-2 0.1-4 0.2-6 0.4-17 2-32.8 10.1-42.4 19.6 13.9 0 31.3-5.7 44.8-16.9 1.2-0.9 2.5-2 3.6-3.1"/>
		<path class="st7" d="m177.2 177.2c10.7 10.7 29.3 19.6 48.5 20.1-1.3-1.3-2.7-2.5-4.1-3.6-13.6-10.9-30.7-16.5-44.4-16.5"/>
		<path class="st7" d="m177.2 177.2c0 15.1 6.8 34.5 20.1 48.5 0-1.2-0.1-2.4-0.2-3.5-1.5-18-9.9-35-19.9-45"/>
		<path class="st7" d="m177.2 177.2c-10.7 10.7-19.6 29.3-20.1 48.5 13.2-14 20.1-33.4 20.1-48.5"/>
		<path class="st7" d="m177.3 177.1c-0.1 0-0.1 0 0 0-0.1 0-0.1 0 0 0m19.9-48.4c-1.1 1.2-2.2 2.3-3.2 3.6-11.2 13.5-16.9 31-16.9 44.9 10-10 18.5-27 19.9-44.9 0.1-1.2 0.2-2.4 0.2-3.6"/>
		<path class="st7" d="m177.2 177.2m0-0.2v0.1-0.1m-20.1-48.3c0.5 19.2 9.4 37.8 20.1 48.5 0-15.2-6.9-34.6-20.1-48.5"/>
		<path class="st7" d="m128.7 157.1c13.9 13.2 33.3 20.1 48.5 20.1-10.7-10.7-29.3-19.6-48.5-20.1"/>
		<path class="st7" d="m177.2 177.2c-15.1 0-34.5 6.8-48.5 20.1 19.2-0.6 37.8-9.4 48.5-20.1"/>
	
</g>
</svg>
