<svg enable-background="new 0 0 126.658 38.878" version="1.1" viewBox="0 0 32.543 38.197" xml:space="preserve" xmlns="http://www.w3.org/2000/svg">
<g transform="translate(-94.116 -.652)">
	
		<path d="m123.29 20.99-8.582-8.921 11.393-11.327-8.965-0.09-6.748 6.884-6.749-6.884-8.962 0.09 11.392 11.327-8.579 8.921s-7.234 6.502-0.512 13.178c4.748 4.716 13.41 4.681 13.41 4.681s8.662 0.035 13.412-4.681c6.721-6.676-0.51-13.178-0.51-13.178zm-4.912 12.184c-3.371 3.219-7.99 3.069-7.99 3.069s-4.619 0.149-7.99-3.069c-3.371-3.223-1.648-6.518-0.897-7.492 0.749-0.972 8.888-9.133 8.888-9.133s8.141 8.161 8.889 9.133c0.747 0.974 2.469 4.269-0.9 7.492z" fill="#333"/>
	
</g>
</svg>
