<svg enable-background="new 0 0 126.658 38.878" version="1.1" viewBox="0 0 126.66 38.878" xml:space="preserve" xmlns="http://www.w3.org/2000/svg">

	
		<path d="m123.29 20.99-8.582-8.921 11.393-11.327-8.965-0.09-6.748 6.884-6.749-6.884-8.962 0.09 11.392 11.327-8.579 8.921s-7.234 6.502-0.512 13.178c4.748 4.716 13.41 4.681 13.41 4.681s8.662 0.035 13.412-4.681c6.721-6.676-0.51-13.178-0.51-13.178zm-4.912 12.184c-3.371 3.219-7.99 3.069-7.99 3.069s-4.619 0.149-7.99-3.069c-3.371-3.223-1.648-6.518-0.897-7.492 0.749-0.972 8.888-9.133 8.888-9.133s8.141 8.161 8.889 9.133c0.747 0.974 2.469 4.269-0.9 7.492zm-100.74-18.255c-1.442-0.499-2.551-0.776-3.827-1.275-1.054-0.389-1.775-1.055-1.775-2.108 0-1.331 1.22-1.941 2.551-1.941 1.941 0 3.827 0.5 7.266 1.665l2.773-8.764c-2.662-1.221-6.822-2.496-12.035-2.496-7.099 0-12.035 5.046-12.035 12.478 0 5.38 2.329 9.207 8.708 11.26 1.774 0.61 2.717 0.888 3.771 1.331 0.999 0.388 1.498 1.109 1.498 1.996 0 1.442-1.275 1.997-2.884 1.997-2.163 0-4.826-0.776-8.652-2.33l-2.996 8.873c2.995 1.72 7.82 3.272 12.59 3.272 8.097 0 13.477-5.323 13.477-12.811 0-5.212-1.886-9.151-8.43-11.147zm31.335 3.55-10.815-18.248-11.758 1.276 2.163 3.827v32.944h10.815v-17.581c4.104 6.378 7.376 12.646 10.926 18.191l9.429-0.999v-37.157h-10.76v17.747zm27.132-17.747h-12.367v37.547h11.259v-13.034h1.165c9.15 0 14.863-4.327 14.863-12.646 0-7.375-5.158-11.867-14.92-11.867zm0.057 15.972h-1.165v-7.266h0.998c2.829 0 3.827 1.941 3.827 3.383 0 2.108-1.165 3.883-3.66 3.883z" fill="#333"/>
	

</svg>
