<svg width="316.23" height="316.23" version="1.1" viewBox="0 0 500 500" xmlns="http://www.w3.org/2000/svg">
 <g transform="translate(0 -552.36)">
  <path d="m90.589 1047.4c0-0.31 0.24178-1.0043 0.53731-1.5569 0.44937-0.8414 0.36453-1.0043-0.51907-1.0043-2.4244 0-0.3846-2.3939 2.4637-2.8908 1.0613-0.1859 2.7917-1.0122 3.8454-1.8368 1.0537-0.8236 2.4817-1.5002 3.1733-1.5002 0.80522 0 2.1716-0.9025 3.7994-2.5028 1.3981-1.3754 3.0062-2.6241 3.5737-2.7747 1.5606-0.4162 8.8504-5.2642 8.2253-5.4723-0.29996-0.1063-2.3137 0.5314-4.4749 1.3913-2.1613 0.8679-4.3875 1.5738-4.9473 1.5738-0.5598 0-1.3129 0.3542-1.6736 0.7882-0.3786 0.4517-1.0636 0.6642-1.6205 0.4871-0.53059-0.1683-0.96473-0.097-0.96473 0.248 0 0.3099-0.31414 0.5491-0.69806 0.5491s-1.1208 0.4693-1.6374 1.0388c-0.51668 0.5668-1.5952 1.038-2.3967 1.038-0.80159 0-2.6337 0.4694-4.0715 1.0308-2.1671 0.8591-2.6142 0.9025-2.6142 0.2657 0-0.4162 0.71072-1.1256 1.5793-1.5746 0.86854-0.4428 1.797-1.3896 2.0631-2.0892 0.27959-0.7351 0.90076-1.2727 1.4712-1.2727 0.54307 0 1.278-0.3542 1.6334-0.7793 0.3554-0.4251 1.0676-0.7794 1.5829-0.7794 0.51526 0 1.3961-0.5845 1.9574-1.2966 0.5614-0.7173 1.4541-1.3001 1.9839-1.3018 0.52987-9e-4 1.6639-0.4694 2.5203-1.0345 0.8564-0.5668 2.1225-1.0326 2.8136-1.0344 0.69115 0 1.6525-0.3631 2.1364-0.797 0.48391-0.434 2.2857-1.0221 4.0041-1.2993 3.4695-0.5579 6.4068-1.641 7.2564-2.6746 0.51057-0.6199 0.84808-2.7543 0.71187-4.4972-0.0337-0.4163-0.38463-0.5757-0.88164-0.3897-2.741 1.0513-3.3253 0.9795-3.3253-0.4074 0-0.859-0.28544-1.3532-0.77847-1.3532-0.42812 0-0.77848-0.3543-0.77848-0.7794s-0.23354-0.7793-0.51906-0.7793c-0.28544 0-0.51907 0.7705-0.51907 1.7128 0 1.7535-0.76076 2.9589-1.8681 2.9589-0.34238 0-1.8372 0.8148-3.3218 1.8155-2.6578 1.789-4.671 2.3381-4.671 1.2744 0-0.3365-0.67068-0.4162-1.757-0.2125-1.0093 0.186-1.897 0.1063-2.0859-0.2037-0.19493-0.3188-0.85499 0-1.6208 0.7616-0.71063 0.7085-1.5415 1.1381-1.8465 0.9485-0.30501-0.1859-2.3914 0-4.6364 0.3189-3.2807 0.5314-4.2364 0.5402-4.8688 0-0.65179-0.5403-0.99097-0.434-1.9764 0.6199-0.6543 0.7085-1.5946 1.8731-2.0896 2.5976-0.49503 0.7262-1.6294 1.4772-2.521 1.6729-0.89154 0.1949-2.4459 0.9114-3.4542 1.6004-2.1606 1.4657-2.1777 1.4675-4.0942 0.4694-1.996-1.0407-4.1479-0.9636-6.8063 0.2391-2.3381 1.061-2.6464 0.9024-1.4083-0.7351 0.42043-0.5579 0.63533-1.4179 0.47755-1.9147-0.4658-1.4666 1.4298-2.1557 4.0192-1.4578 1.9056 0.5137 2.2602 0.4783 2.8548-0.3454 0.58918-0.8059 0.47279-1.1416-0.88047-2.5382-0.85767-0.8856-1.5594-1.8953-1.5594-2.246 0-1.0114 2.5666-1.7163 4.9463-1.3603 2.4754 0.372 4.8528-0.5757 6.1806-2.4771 1.1715-1.673 1.0748-2.6604-0.19388-1.982-1.4649 0.7793-3.6671 0.673-3.6671-0.186 0-0.8768 4.332-3.6798 6.4465-4.1749 0.83386-0.1948 2.0915-0.8059 2.7947-1.3612 1.7461-1.3736 3.3956-1.355 2.9552 0-0.23381 0.7351-0.09317 1.0379 0.48409 1.0379 0.44742 0 0.817-0.4073 0.82142-0.9113 0.01948-2.2265 0.80885-2.4868 3.5892-1.1841 3.0426 1.425 3.9301 1.162 1.6227-0.4871-1.9189-1.3665-1.9921-1.9687-0.31652-2.6055 0.69868-0.2745 1.6676-1.0893 2.1531-1.8297 1.1204-1.7102 3.3071-2.8482 5.5035-2.8641 0.94189 0 3.1138-0.6111 4.8265-1.3444 1.7127-0.7351 4.3397-1.8359 5.8377-2.4532 4.4424-1.8271 3.2734-2.6923-1.2772-0.94497-1.3665 0.52253-3.4114 0.88564-4.5443 0.79707-1.4589-0.11513-3.2002 0.35425-5.9685 1.5853-2.1498 0.9556-4.9911 1.8908-6.3141 2.0768-1.3805 0.1948-2.7969 0.7705-3.3242 1.3523-1.0337 1.1425-2.3318 1.3099-3.2254 0.4163-0.45289-0.4606-0.97254-0.1949-2.1285 1.037-1.0474 1.1221-2.0118 1.6376-3.0603 1.6376-0.84205 0-2.6635 0.6022-4.0477 1.3382-1.3971 0.7439-3.0391 1.2381-3.6909 1.1141-0.76874-0.1506-1.5706 0.1948-2.322 0.9972-0.63132 0.6731-1.3991 1.2213-1.7061 1.2204-0.3071-9e-4 -1.5384 0.5225-2.7363 1.1522-2.6667 1.4126-3.4191 0.9025-1.5468-1.0548 0.76418-0.797 1.3894-1.5861 1.3894-1.7517 0-0.1683-1.0345-0.4606-2.299-0.6554-2.2424-0.3366-4.967-1.9475-4.967-2.9377 0-0.2745 0.64226-0.735 1.4272-1.0344 0.78498-0.3011 1.8943-0.9768 2.4652-1.51 0.61043-0.56681 2-1.0362 3.3735-1.1327 1.9081-0.1328 2.3638-0.3631 2.4903-1.2479 0.08467-0.5933-0.21658-1.3922-0.6705-1.7686-0.69441-0.57562-1.048-0.52249-2.2308 0.3454-1.8481 1.3471-3.0472 1.7669-4.0005 1.4011-1.2168-0.4694-0.91405-2.0352 0.519-2.6879 1.3743-0.61994 1.7591-1.6517 0.61982-1.6517-0.37271 0-1.4353 0.55795-2.3613 1.2425-1.0254 0.75279-2.0946 1.1345-2.7348 0.96711-0.81438-0.21255-1.0132-0.0886-0.88244 0.70854 0.11539 0.673-0.11851 0.9556-0.7395 0.9024-0.63165-0.097-0.90825 0.31-0.90825 1.1691 0 0.7882-0.30078 1.239-0.83332 1.239-0.45833 0-1.5272 0.58451-2.3753 1.2974-1.9846 1.6703-3.2601 1.7288-2.8163 0.1329 0.89266-3.2158 0.92164-3.5027 0.35398-3.5027-0.42597 0-0.44185-0.2746-0.05615-1.0034 1.0192-1.9042 0.66659-2.6295-1.2792-2.6295-1.4559 0-1.8165-0.2037-1.8165-1.014 0-2.8429 2.2737-4.6947 5.7634-4.6947 0.80107 0 2.3169-0.58451 3.3685-1.2983 1.0516-0.71737 2.2881-1.3028 2.7478-1.3081 0.62577 0 0.5236-0.24798-0.40657-0.96711-1.5993-1.2293-1.1636-1.8563 2.027-2.9164 1.4239-0.46938 2.5889-1.0991 2.5889-1.3922 0-0.29226-0.32602-0.40739-0.72447-0.24798-3.2552 1.2496-5.1308 1.5481-6.0617 0.96711-0.54163-0.33654-1.3383-0.61108-1.7703-0.61108-0.43205 0-0.78554-0.3454-0.78554-0.76165 0-0.92991 1.7392-1.9316 2.7089-1.5596 0.39691 0.15056 1.1955-0.38967 1.8172-1.2275 0.72616-0.98305 1.8975-1.6986 3.3925-2.0759 1.2559-0.31883 2.9519-1.1008 3.7691-1.7429 0.97184-0.76164 2.2142-1.1752 3.5922-1.1876 1.1586 0 2.3401-0.16827 2.6256-0.3454 0.28543-0.17712 4.8397-1.1894 10.12-2.2424 46.833-9.3408 88.912-26.565 120.93-49.499 21.969-15.738 40.634-34.901 52.457-53.859 2.7091-4.3449 8.4696-15.259 6.5817-12.471-8.2556 12.192-13.235 18.318-20.849 25.651-31.138 29.991-81.29 47.919-140.56 50.246-5.0667 0.19484-9.2122 0.22141-9.2122 0 0-0.80593 4.8208-8.1381 5.3586-8.1425 3.9605 0 20.387-1.2647 28.117-2.1087 71.284-7.7829 119.48-34.567 136.72-75.987 2.5306-6.0772 2.4383-6.1605-0.59214-0.53138-7.0736 13.147-13.827 21.02-24.695 28.789-13.632 9.7437-32.951 15.964-56.418 18.163-7.2943 0.68193-29.247 0.69079-37.941 0-8.4898-0.66423-21.081-2.0511-22.701-2.5046l-1.241-0.3454 2.1931-3.2556c1.8434-2.7375 2.2941-3.1342 2.8263-2.4931 0.47134 0.56681 0.96099 0.63766 1.9156 0.28341 0.85384-0.32769 2.9652-0.23912 6.3175 0.24797 10.879 1.6021 19.859 2.0821 39.029 2.0883 21.105 0 25.435-0.37196 36.114-3.1449 25.429-6.6024 43.467-22.732 49.278-44.066 1.1634-4.2714 1.5488-11.778 0.79167-15.424-1.2349-5.9461-5.1153-11.828-10.33-15.656-5.9591-4.375-11.694-7.0231-26.571-12.274-10.655-3.7604-14.643-5.5945-17.518-8.0548-6.7797-5.8035-1.8047-14.725 10.439-18.72 3.676-1.1992 5.3616-1.4179 12.55-1.6251 12.925-0.37196 20.216 1.3098 39.54 9.1247l2.6913 1.0876 0.52775-1.665c2.0401-6.4412 7.324-24.778 7.324-25.418 0-0.78821-5.9438-3.1945-13.608-5.5113-17.726-5.3616-41.368-4.971-59.593 0.98394-24.943 8.1514-41.644 26.606-43.346 47.901-0.62552 7.829 1.6279 14.596 6.6231 19.89 5.5432 5.8744 12.46 9.5152 28.44 14.971 20.329 6.9398 24.568 10.429 22.115 18.209-1.8053 5.7274-7.6724 10.18-16.027 12.164-5.6722 1.347-17.152 1.4728-23.994 0.25683-8.8725-1.5702-19.182-5.5777-28.939-11.249-3.1194-1.8138-3.4474-2.153-2.9618-3.0599 0.42847-0.79707 0.36559-1.0893-0.29217-1.3417-0.69203-0.26569-0.52571-0.64652 0.95455-2.1981 1.0901-1.1407 1.9274-2.6383 2.1367-3.8224 0.27003-1.5277 0.5901-1.9599 1.4883-2.0077 2.0094-0.11513 2.5678 0.11513 4.9636 1.9395l2.3476 1.7925 1.1865-1.1868c1.1449-1.1442 1.16-1.2744 0.43059-3.6984-0.67281-2.2353-0.66653-2.6852 0.0576-4.0863 0.74464-1.4392 0.73897-1.7704-0.0673-3.8791-1.054-2.7605-2.6426-3.5939-5.2223-2.7428-0.98802 0.32769-2.9819 0.42511-4.726 0.23027-2.4452-0.26569-3.902-0.0886-7.6879 1.0725-5.9102 1.7792-9.8915 1.9599-10.965 0.50481-0.41926-0.56681-0.64412-1.4932-0.49967-2.0485 0.14445-0.55795 0.0124-1.3134-0.29598-1.6836-0.30722-0.37197-0.43263-1.1549-0.27862-1.7438 0.17819-0.68194 0.0585-0.99722-0.32804-0.86792-0.33432 0.11513-0.84152 1.2815-1.1269 2.6002-0.69522 3.214-1.3299 3.787-2.8412 2.5621l-1.1909-0.96357 1.4619-2.2096c1.3382-2.0219 1.4201-2.4142 0.96789-4.6345-0.7294-3.5842-0.44228-4.4193 1.3915-4.0526 1.1615 0.23027 1.5083 0.11514 1.5083-0.53138 0-0.64651 0.15393-0.69965 0.73224-0.2214 1.1424 0.94762 1.5053-0.23027 0.57983-1.8935-0.44353-0.78822-1.0953-1.8634-1.4485-2.3779-0.53306-0.7705-0.4879-1.0247 0.26604-1.4533 1.492-0.85021 1.0318-1.4923-0.64872-0.90246-1.7421 0.60223-1.8265 0.92106-0.92346 3.4177 0.72887 2.0148 0.14391 2.7109-2.2896 2.726-1.9342 0-2.2966-0.88563-0.94269-2.3248 0.91275-0.97066 1.0683-1.5561 0.77245-2.9031-0.30519-1.3887-0.45584-1.533-0.8549-0.81479-0.26649 0.47825-1.1808 1.2257-2.0319 1.6668-0.96624 0.50481-2.0484 1.8147-2.881 3.5027-0.73339 1.487-2.1694 3.3495-3.191 4.1377l-1.8576 1.4347-1.3623-1.3054c-0.74933-0.71736-1.5911-1.3045-1.8707-1.3045-0.27968 0-0.96622-0.76165-1.5257-1.6871-0.94878-1.5729-1.0286-1.6074-1.186-0.52252-0.20068 1.3887-1.9573 1.5835-3.5006 0.38967-0.98087-0.76164-0.96734-0.80592 0.51305-2.0405 1.2419-1.0282 1.405-1.3993 0.89032-2.0184-0.97849-1.1797 0.44291-2.2212 3.53-2.586 3.1778-0.37197 3.6606-0.63766 3.6606-1.9475 0-0.66422-0.35647-1.007-1.038-1.007-1.4036 0-1.3175-1.2735 0.12974-1.92l1.1678-0.52252-1.2745-0.39854c-0.88315-0.27454-1.3443-0.19484-1.5018 0.2834-0.36691 1.1008-2.8188 3.152-3.2426 2.7127-0.21379-0.2214-0.46504-1.084-0.55839-1.9192-0.0933-0.84135-0.40509-1.5932-0.69274-1.688-0.67423-0.22141-1.9031 1.7412-2.3024 3.6762-0.41749 2.0228-1.9532 2.3629-6.7675 1.502-2.1791-0.38968-2.3468-0.54024-2.6386-2.3354-0.49604-3.0545-2.1672-4.569-2.718-2.4629-0.24691 0.94497-0.40597 0.99014-1.3739 0.38968-0.91508-0.5668-1.1707-0.55795-1.5582 0.0886-0.37391 0.60223-0.61449 0.61995-1.2432 0.10628-0.4287-0.35425-1.2056-0.57566-1.7263-0.4871-1.6323 0.2834-1.4294-1.8032 0.3285-3.3698 0.94146-0.84135 1.5792-1.9174 1.5792-2.6702 0-1.9581 0.72045-1.9599 2.6146 0 1.9892 2.0529 3.0544 2.2371 4.3919 0.76164 0.92289-1.0202 0.90652-1.038-0.9393-1.038-1.3539 0-2.0354-0.29225-2.4399-1.0495-0.65953-1.231-0.19882-2.2539 0.83674-1.8563 0.39933 0.15941 0.72604 0.0974 0.72604-0.22141 0-0.2834-0.45017-0.50481-1.0003-0.50481-1.2481 0-3.3784-2.5763-2.6953-3.2591 0.30209-0.30111 1.2048-0.24797 2.3851 0.1417 1.0445 0.3454 2.0304 0.49596 2.1908 0.33654 0.33123-0.33654-1.5075-1.154-3.5431-1.5862-0.77732-0.16827-1.4828-0.74393-1.6382-1.3329-0.18058-0.69079-0.70705-1.0442-1.5555-1.0442-1.2457 0-2.8744-1.3036-2.3208-1.8572 0.15118-0.15056 0.82669-0.30997 1.5012-0.33654 0.6745 0 1.4899-0.25683 1.812-0.50481 0.32459-0.23912 1.1922-0.2037 1.9462 0.0974 1.3129 0.50481 1.9483-0.0974 0.8417-0.75279-1.0076-0.61994-0.50082-1.2966 0.97445-1.2966 0.82142 0 1.7842 0.35425 2.1395 0.77935 0.3554 0.42511 1.3882 0.77936 2.2952 0.77936 1.9591 0 2.8947 0.79707 2.8947 2.4647 0 1.0096 0.15675 1.1327 0.90828 0.71736 1.4138-0.78821 1.2238-3.1422-0.28446-3.5213-1.6904-0.4251-3.3285-3.152-2.6521-4.4149 0.27942-0.52253 1.0174-0.9494 1.64-0.9494 1.1194 0 4.7379 1.146 7.0119 2.222 0.98867 0.46939 1.4029 0.33654 2.6234-0.84135 1.8294-1.7527 2.2557-1.7376 4.4063 0.15056 2.2072 1.9378 3.9747 2.6135 6.8386 2.6135 2.651 0 3.9012-0.39854 3.9012-1.2328 0-0.39854-1.1197-0.59338-3.2438-0.59338-2.7012 0-3.5894-0.23026-5.3105-1.417-1.1367-0.77935-2.4434-1.4285-2.9038-1.4285-0.46044 0-1.2598-0.46939-1.7764-1.0371-0.51668-0.5668-1.2453-1.038-1.6192-1.038-0.60116 0-1.7543-1.5127-1.7543-2.3018 0-0.15942 0.49427-0.29226 1.0985-0.29226 0.89405 0 1.0352-0.21255 0.75828-1.1682-0.85623-2.9376-0.87359-4.4432-0.0735-6.3588 0.49241-1.1779 0.71692-2.6206 0.53607-3.4442-0.25223-1.1478-0.0478-1.5897 1.083-2.3301 2.5878-1.6951 9.5723-2.5896 9.5723-1.2257 0 0.85906 1.5566 0.93168 3.9718 0.20369 1.412-0.4251 3.0848-0.60223 3.8131-0.39853 1.5663 0.4251 7.0551 0.38968 7.7833-0.0974 1.1396-0.70851 0.50481-1.8173-1.0363-1.8173-0.85641 0-1.5807-0.17713-1.6097-0.38968-0.39871-2.9483-0.30297-4.2909 0.34407-4.8276 0.41067-0.34539 0.74668-0.90246 0.74668-1.2461 0-0.3454 0.5018-0.60223 1.1152-0.58452 0.61339 0 1.2167-0.24797 1.3407-0.60223 0.12399-0.35425-0.13045-0.65537-0.56565-0.65537-1.3991 0-1.5135-1.0778-0.25799-2.4319l1.2221-1.3169-2.7386 0.37197c-2.1043 0.27455-3.0311 0.17713-4.0015-0.46053-1.0384-0.68193-1.506-0.71736-2.6309-0.20369-1.1597 0.53138-1.4427 0.49595-1.8582-0.24798-0.41058-0.73508-0.66626-0.7705-1.575-0.23026-0.86269 0.51366-1.133 0.50481-1.3198 0-0.39127-1.0805-1.3065-0.74394-3.3251 1.2292-1.6603 1.6216-2.3225 1.9059-4.8476 2.0804-1.6086 0.11513-3.3805 0-3.9376-0.33654-1.0661-0.5668-1.3935-2.8039-0.49259-3.361 0.34699-0.21255 0.34407-0.64651-9e-3 -1.3098-0.43192-0.80593-0.28127-1.1522 0.82072-1.874 0.993-0.65537 1.2877-1.2098 1.1146-2.1158-0.18155-0.94851 0.0995-1.4037 1.2281-1.9865 1.9584-1.0132 4.6289-1.0008 4.6289 0 0 0.42511 0.37631 0.77936 0.83631 0.77936 0.66918 0 0.77041 0.35425 0.50675 1.7553-0.29429 1.5685 0.20751 2.3956 1.4528 2.3956 0.0629 0 0.0902-1.1469 0.0576-2.5497-0.062-2.7313-0.80238-4.034-2.7028-4.7567-0.86748-0.32768-1.1891-0.86792-1.1891-1.9794 0-0.8325 0.2749-1.6172 0.61091-1.7296 0.91368-0.30997-1e-3 -1.44-1.1605-1.44-0.55405 0-1.0074-0.32768-1.0074-0.71736s-0.35036-1.0061-0.77847-1.3612c-0.9469-0.77935-1.0415-4.4441-0.12975-5.0162 0.35682-0.22141 1.0575-0.34539 1.557-0.25683 0.4995 0.0886 0.90829-0.10628 0.90829-0.39854 0-0.30997-0.35035-0.54909-0.77847-0.54909-0.42811 0-0.77847-0.31882-0.77847-0.69965 0-1.0318 1.7333-2.416 3.0251-2.416 0.62676 0 1.1269-0.32768 1.1269-0.73507 0-0.4074 0.1417-1.1062 0.31502-1.557 0.53563-1.3958-1.6188-0.96711-2.391 0.46939-0.38188 0.71736-0.97693 1.2983-1.3222 1.2983-0.34531 0-0.92177 0.7085-1.281 1.5764-0.77129 1.8616-1.9191 2.5754-4.1446 2.5754-1.4585 0-1.585-0.12399-1.2274-1.1673 0.49613-1.4533 0.48161-2.9678-0.0399-4.1527-0.33884-0.7705-0.1185-0.91132 1.4426-0.91132 1.3156 0 2.0736-0.32768 2.6504-1.1531 0.75969-1.084 0.73047-1.193-0.48958-1.8333-1.4748-0.7705-1.6874-1.9333-0.47815-2.61 0.6977-0.38967 0.62065-0.58451-0.51907-1.3355-1.7135-1.1221-1.7516-2.4098-0.0717-2.4098 0.69681 0 1.4112-0.23027 1.5876-0.52253 0.17641-0.29225-0.1789-0.52252-0.78963-0.52252-0.81585 0-1.3294-0.55795-1.936-2.1016-0.70169-1.7863-1.0266-2.0786-2.164-1.9466-1.2579 0.15055-1.3277 0.30997-1.1618 2.6206 0.18757 2.6197 0.0691 2.7729-1.5081 1.928-0.83692-0.44281-1.0039-0.36311-1.0039 0.50481 0 0.56681-0.46478 1.2868-1.0327 1.5906-0.88005 0.47824-0.93774 0.7085-0.3902 1.5817 0.52278 0.84135 0.49382 1.2939-0.15481 2.4496-0.43866 0.77936-1.1194 1.4206-1.5128 1.4206-1.1614 0-1.1967 1.1416-0.0443 1.4418 1.4711 0.38082 1.3231 1.735-0.30731 2.803-1.3436 0.88563-1.3871 0.86792-2.5924-0.63765-0.67432-0.84135-1.2271-1.6916-1.2285-1.8864-0.0014-0.19484 0.69814-2.2539 1.5544-4.5761 0.85641-2.323 1.557-4.6673 1.557-5.2102 0-0.54024 0.70062-1.5047 1.557-2.1379 1.848-1.3665 2.0011-2.3779 0.39455-2.6064-1.3927-0.19484-1.9502-1.9829-0.61959-1.9829 1.0713 0 2.2618-1.4498 2.2845-2.7835 0.0159-0.88564 3.9201-4.9294 4.8065-4.9799 0.20821 0 1.3736 1.0592 2.5898 2.3779 1.5534 1.6854 2.1632 2.7658 2.0496 3.6329-0.18873 1.44 0.31307 1.595 1.2076 0.37197 0.76102-1.0406 2.338-0.58452 2.338 0.67308 0 0.83249-2.8794 3.825-3.6894 3.825-0.5653 0-2.0196-1.5428-2.0196-2.1432 0-0.27454-0.23354-0.37196-0.51907-0.19484-0.78503 0.4871-0.62898 1.1876 0.51907 2.3354 1.4101 1.4108 4.4368 1.4082 5.1925-4e-3 0.4135-0.7705 0.88298-0.96091 1.8131-0.72622 1.2054 0.30997 1.2354 0.23912 0.75775-1.4206-1.2833-4.4742 0.36807-5.707 4.4447-3.3185 1.3445 0.78822 2.8586 1.2895 3.5115 1.1637l1.1479-0.2214-1.1383-0.0886c-1.9694-0.12399-3.7794-3.7037-1.8719-3.7037 0.6381 0 0.72525-0.15941 0.3152-0.56681-0.41014-0.40739-0.86039-0.40739-1.6267 0-1.4669 0.77936-1.5184 0.76165-2.4322-1.0034-0.71842-1.3887-0.72374-1.696-0.0469-2.6631 0.42112-0.60223 1.6843-1.5047 2.807-2.0068 1.9704-0.88564 2.0705-0.88564 2.8824 0.0886 0.46257 0.54024 1.203 0.98217 1.6453 0.98217 0.44237 0 1.7436 0.48709 2.8918 1.0654 1.5802 0.80593 2.6176 0.98482 4.2686 0.73508 1.5835-0.23027 2.9184 0 4.8722 0.73507 2.1531 0.85021 2.9998 0.95205 4.2356 0.52252 1.187-0.40739 1.8237-0.36311 2.7509 0.22141 0.66351 0.41625 2.0759 0.9122 3.1385 1.0964 1.0627 0.18599 2.1307 0.69965 2.3734 1.1265 0.367 0.66422 0.67361 0.68193 1.8233 0.15941 0.76014-0.3454 1.748-1.1876 2.1951-1.8704l0.81301-1.2417 1.5696 1.3214c0.86323 0.72622 2.0772 1.3249 2.6976 1.3284 0.62038 4e-3 1.476 0.22141 1.9015 0.49595 0.67769 0.42511 0.66148 0.68194-0.12974 2.0175-0.49693 0.84135-0.90336 1.6685-0.90336 1.8386 0 0.52252 1.9942 0.34539 2.3355-0.21256 0.54847-0.88563 1.8165-0.5668 1.8165 0.45168 0 0.54023-0.35036 1.8138-0.77847 2.8384-0.98967 2.3691-1.0016 2.3142 0.44485 2.0378 1.0336-0.19484 1.2751 0 1.557 1.4347 0.1836 0.92106 0.33362 2.741 0.33362 4.0544 0 2.3071 0.0266 2.3478 0.80787 1.2328 0.96039-1.3718 2.3061-1.5215 2.3061-0.25683 0 1.3408 2.1938-1.0539 3.8432-4.1952 1.0147-1.9324 1.201-2.7499 0.79805-3.5027-0.7334-1.371 0.25975-3.059 1.7993-3.059 0.66768 0 2.1581 0.33654 3.312 0.74393 1.1539 0.4074 3.1817 0.90246 4.5063 1.1017 1.7149 0.25683 2.6411 0.71736 3.217 1.595 0.44476 0.68194 1.1321 1.2337 1.5274 1.2337 0.39543 0 0.71878 0.33654 0.71878 0.75279 0 0.40739 0.48745 1.0902 1.0832 1.5082 1.1217 0.77935 2.4098 0.61108 5.2591-0.71736 1.116-0.52253 1.5725-0.52253 2.1783 0 0.52873 0.43396 1.6615 0.52252 3.6523 0.27454 3.2563-0.40739 4.4986 0.18598 4.0442 1.9209-0.18439 0.7085 0.0301 1.2594 0.61144 1.5853 0.49223 0.27454 1.3363 1.5304 1.8757 2.7888 0.96998 2.2628 1.6803 2.7968 2.3282 1.7482 0.18368-0.30111 0.72285-0.4251 1.1984-0.30111 0.47549 0.13284 1.39 0.38967 2.0323 0.57566 1.4481 0.41624 1.5726-0.57566 0.12975-1.0318-0.57097-0.17713-1.038-0.66423-1.038-1.0734 0-0.40739-0.27366-0.74393-0.60798-0.74393-0.33433 0-1.6014-1.0362-2.8157-2.3035-1.8486-1.9289-2.0874-2.4036-1.468-2.9182 0.40686-0.33654 0.73968-0.97242 0.73968-1.4099 0-0.64651 0.19139-0.61995 1.0849 0.18598 0.59674 0.54023 1.8228 1.0194 2.7247 1.0654 0.90197 0.0886 2.6908 0.31883 3.9754 0.61109s2.4406 0.41625 2.569 0.30112c0.54856-0.5491-3.6138-3.9623-5.224-4.29-1.2781-0.25683-1.8017-0.67308-1.9224-1.5056-0.20591-1.4259 0.63704-1.4657 2.3597-0.11513 1.733 1.363 2.8558 1.3453 2.643 0-0.12054-0.78821-0.93781-1.3524-3.0004-2.0759-3.503-1.2293-3.131-1.2505-5.4327 0.31882-2.0649 1.4011-2.9434 1.3408-2.5469-0.17712 0.13585-0.52253-0.11974-1.2479-0.56769-1.6207-0.44805-0.37196-0.81461-0.98836-0.81461-1.3718 0-0.81478 1.5996-1.773 2.9501-1.7668 0.51827 3e-3 2.039-0.51366 3.3794-1.1469 2.2722-1.0734 2.4302-1.2762 2.3355-2.989-0.0735-1.3293 0.0972-1.7952 0.61817-1.6845 0.39597 0.0886 1.2906-0.38082 1.9881-1.0371 1.2266-1.1531 1.2915-1.1602 1.9784-0.2214 0.51535 0.7085 1.0735 0.88563 2.0342 0.63765 1.5275-0.38082 1.6157-0.84135 0.55857-2.8827-0.72391-1.4002-0.69673-1.5251 0.50074-2.3097 1.6852-1.1044 2.3406-1.0459 2.3406 0.2037 0 1.2301 0.18971 1.2664 1.705 0.31882 1.2118-0.75278 5.7074-1.5295 8.5356-1.4693 1.5196 0 1.736-0.15941 2.3041-2.0573 0.70771-2.362 1.6477-2.9651 3.1552-2.0237 0.68495 0.4251 1.204 0.46938 1.5479 0.13284 0.34398-0.34539-2e-3 -0.78821-1.0332-1.3187-1.4483-0.75279-2.1777-2.075-2.1945-3.9889-3e-3 -0.44282 0.9216-1.495 2.0566-2.3345 1.5431-1.1416 2.0668-1.8953 2.076-2.9846 7e-3 -0.79707 0.23185-1.3222 0.50011-1.1566 0.26835 0.16827 0.79388-0.0886 1.1678-0.52252 0.37392-0.46053 1.0596-1.1885 1.5238-1.6296 0.46416-0.43396 0.72879-1.2416 0.58824-1.7792-0.3221-1.2319 0.67016-1.2815 1.3962-0.0886 0.51252 0.85906 0.59001 0.8502 1.3233-0.10628 1.0343-1.3364 1.0655-4.5185 0.0407-4.1262-0.40606 0.15942-0.86588 0.61109-1.0217 1.0229-0.15587 0.40739-0.68769 0.73507-1.1819 0.73507-0.69885 0-0.76013-0.1417-0.27587-0.61994 1.4517-1.4524 0.37445-1.3116-3.3994 0.43396-6.7379 3.1316-7.4743 2.9562-5.0384-1.2009 0.72569-1.2381 1.091-2.2513 0.81168-2.2513-0.50658 0-3.6974 2.1707-10.187 6.9283-1.8878 1.3842-3.5614 2.3877-3.7191 2.23-0.15755-0.15942-0.14471-0.85021 0.0283-1.5428 0.21415-0.85906 0.793-1.3506 1.8064-1.5534 0.82018-0.16827 2.2473-0.93435 3.1714-1.7119l1.6801-1.4135-1.3231-0.69965c-1.1596-0.60223-1.5345-0.5668-3.0348 0.3454-4.1728 2.5285-5.1894 2.6613-4.0473 0.53138 0.82346-1.5375 0.42023-1.7571-1.9074-1.038-4.4853 1.386-5.1485 1.5162-6.2479 1.2275-0.6319-0.16827-1.4479-0.97596-1.8135-1.8014-0.70293-1.5888-1.4492-1.9891-1.4492-0.77936 0 1.975-3.4361 1.1921-3.7265-0.85021-0.10566-0.74393-0.83648-1.4817-2.0135-2.0343-1.0161-0.47824-2.1541-1.2372-2.5288-1.6889s-1.106-0.81478-1.6251-0.81478c-1.3074 0-1.6776-0.80593-0.92411-2.0122 0.50756-0.80592 0.49472-1.1868-0.0638-1.8598-0.93799-1.131-2e-3 -2.1308 1.3548-1.4471 0.53023 0.26569 1.5478 0.31883 2.2615 0.10628 0.71365-0.21256 0.98933-0.40739 0.6126-0.43396-1.215-0.0886-0.4244-2.3434 1.0741-3.0599 0.97652-0.46053 1.4272-1.0796 1.4272-1.9386 0-1.7872 1.8968-2.826 6.2598-3.4309 3.7226-0.52252 5.7598-0.16827 7.6836 1.3125 0.83108 0.63765 4.3624 1.9068 4.6134 1.6561 0.0946-0.0886-0.86314-0.85021-2.1286-1.6632-4.5862-2.9731-4.4878-2.8225-1.7065-2.6082 2.0982 0.15941 2.7418 0.47824 3.8042 1.8279 0.70337 0.90246 1.4844 1.5074 1.7358 1.3524 0.76368-0.47824-1.324-3.609-2.519-3.7852-0.61463-0.0886-1.5093-0.82364-1.9882-1.6393-0.51402-0.86792-1.4743-1.5941-2.3442-1.7686-2.381-0.46939-1.8156-1.5065 0.60241-1.0982 1.8711 0.31882 2.076 0.23912 2.076-0.73508 0-1.1983 1.0285-1.4028 2.6623-0.53138 0.77085 0.40739 1.2488 0.38082 1.8619-0.13284 1.4057-1.1673 3.2892-0.86792 4.4583 0.71736 1.4484 1.9581 2.703 1.8439 7.2039-0.66422 3.9633-2.2035 3.0234-2.3053-1.2846-0.14171-1.3666 0.6908-2.7128 1.1079-2.9916 0.93523-0.27879-0.16827-0.98492-1.2505-1.5691-2.3948l-1.0621-2.0821 2.3664 0.15056c2.5049 0.15941 4.3212-0.77936 2.7139-1.3993-0.47594-0.18598-0.86535-0.7705-0.86535-1.3143 0-0.54023-0.23354-0.98216-0.51907-0.98216-0.28544 0-0.51907 0.30997-0.51907 0.69079s-0.58469 1.0043-1.2994 1.386c-1.1531 0.61109-1.4306 0.57567-2.4652-0.38082-0.64119-0.59337-1.633-1.1664-2.2038-1.2771-0.81168-0.15941-1.0101-0.55795-0.91024-1.8386 0.07-0.90246-0.10486-1.781-0.38924-1.9572-0.95432-0.58451-0.5289-1.2966 0.7806-1.2966 0.71364 0 1.2975 0.18598 1.2975 0.41624 0 0.33654 3.606 0.43396 4.671 0.13285 0.14267 0-0.55795-0.51367-1.557-1.0468-2.0341-1.0884-4.4833-5.1553-3.947-6.5519 0.24665-0.63766 0.72135-0.77936 1.879-0.54909 1.5182 0.30997 1.549 0.26569 1.549-1.8209v-2.1317l2.1508 0.29226c2.4099 0.32768 3.1801 1.1088 2.775 2.8322-0.15101 0.63765-0.0363 1.1673 0.25435 1.1673 0.29093 0 0.5289-0.57566 0.5289-1.2877 0-0.92105 0.34956-1.3745 1.2369-1.5968 1.329-0.33654 1.3399-4e-3 -0.16261-4.9241-0.41642-1.363-0.36293-1.5419 0.38924-1.3045 0.76988 0.23912 0.87527-0.24798 0.89945-4.2581 0.0319-5.2391 1.1167-8.1911 2.8126-7.6524 0.53324 0.16738 1.4401 0.40031 2.0153 0.5119 0.57513 0.11159 1.5127 0.44635 2.0833 0.75367 1.5252 0.81832 3.7444 0.67928 4.8277-0.30732 1.3207-1.1955 1.2427 0-0.12417 1.9472-1.6183 2.2719 0.11451 2.003 1.9556-0.30731 1.0282-1.2886 1.7221-1.724 2.4037-1.5081 0.62349 0.19572 1.2204-0.093 1.7085-0.76253 0.58602-0.83692 1.0972-1.0019 2.3355-0.75367 1.5395 0.30731 1.5809 0.27011 1.433-1.4514-0.18669-2.1675 0.15738-2.7648 2.174-3.7705 1.4336-0.71647 1.7227-0.69788 3.2334 0.13993 2.4861 1.389 2.2128 2.7899-0.63916 3.2774-2.5454 0.4375-3.5899 1.1202-2.6194 1.7202 0.3423 0.21433 0.77139 0.14879 0.95347-0.13018 0.18217-0.27898 1.567-0.63235 3.0774-0.77228 2.3334-0.22317 2.8264-0.11158 3.2798 0.74394 0.37896 0.70673 0.35425 1.2131-0.085 1.7416-0.40225 0.48356-0.42563 0.74393-0.0673 0.74393 0.30359 0 0.69628-0.23292 0.8727-0.52075 0.17642-0.28872 0.65731-0.52075 1.0686-0.52075 1.0834 0 0.91815 1.8979-0.23567 2.7054-0.95022 0.66953-0.95181 0.72533-0.0469 1.8467 1.2054 1.4886 2.068 1.4756 2.068 0 0-0.65094 0.46708-2.1044 1.038-3.2236 1.3614-2.671 1.3094-3.3743-0.24957-3.3743-0.95046 0-1.3754-0.35337-1.6229-1.335-0.53563-2.134 0.53421-3.8542 2.3966-3.8542 0.9296 0 1.7079-0.32592 1.8832-0.78113 0.28349-0.73508 2.7827-1.1434 2.7827-0.44636 0 0.17713-0.48311 1.11-1.0736 2.0645-0.59045 0.95542-1.1906 2.802-1.3337 4.1025-0.25479 2.3175-0.23363 2.3594 1.055 2.0356 1.8483-0.46495 5.3131 1.2466 6.051 2.9873 0.35054 0.82807 0.44725 2.2569 0.23664 3.5027-0.45061 2.6674-0.0549 2.6701 1.302 0 1.166-2.2849 1.0149-5.2182-0.34947-6.7849-0.55263-0.63234-0.59922-1.1732-0.19378-2.2393 1.2529-3.296-0.22831-4.0431-2.0787-1.0494-0.82222 1.3313-1.449 1.8011-2.2481 1.6876-1.377-0.19572-1.7872-2.5368-0.61525-3.5099 0.44264-0.36311 0.80478-1.0978 0.80478-1.6244 0-1.2726 1.4412-1.963 3.4571-1.6569 1.3487 0.20458 1.8011 6e-3 2.5426-1.1266 1.3309-2.0318 3.4418-1.669 3.9168 0.66954 0.1936 0.95356 0.61056 1.9928 0.92671 2.309 0.80947 0.80947 0.71382 2.2012-0.20379 2.9621-0.42811 0.35337-0.77847 1.3183-0.77847 2.1398 0 1.2466 0.21406 1.4932 1.2975 1.4932 0.95817 0 1.2975 0.27898 1.2975 1.0541 0 0.57655 0.35036 1.189 0.77847 1.3536 0.42812 0.16739 0.77848 0.63234 0.77848 1.0448 0 0.40916 0.60984 1.3564 1.3553 2.1026 1.2761 1.2753 1.319 1.479 0.73366 3.4788-0.90411 3.09-1.9737 4.5663-3.0586 4.2227-0.5793-0.18599-1.3248 0.18598-2.0437 1.0114-0.62251 0.71736-1.455 1.3019-1.8501 1.3019-0.39508 0-0.9868 0.32768-1.3149 0.71736-0.92065 1.1088 1.8657 1.6632 3.0365 0.60223 1.2961-1.1735 1.5848-1.0052 1.5848 0.92106 0 1.9998-1.3496 3.477-4.2817 4.685-1.5025 0.61994-1.9462 1.092-1.9462 2.0759 0 0.85021-0.65794 1.8111-1.9462 2.8632-1.432 1.169-1.6997 1.5941-1.0132 1.6074 0.51314 0 1.4866-0.57566 2.1632-1.3098 1.1115-1.2 1.278-1.2417 1.7252-0.44282 0.41944 0.75279 0.71019 0.52253 1.903-1.5188 1.7386-2.9669 4.103-5.0153 5.7876-5.0153 0.74605 0 1.406-0.38082 1.5924-0.91131 0.17517-0.50481 0.81-1.3391 1.4109-1.8643 0.93963-0.81478 0.95905-0.9122 0.13869-0.65537-1.0847 0.35426-2.8934-1.4666-2.9214-2.9368-0.0142-0.69965 0.40916-0.91132 1.8104-0.91132 1.4458 0 1.9511 0.26569 2.4188 1.2966 0.32521 0.71736 0.78724 1.2974 1.0269 1.2974 0.71975 0 0.49135-1.3834-0.34283-2.0759-1.1243-0.93346-0.97447-3.2609 0.25949-4.0314 1.3748-0.85906 1.3094-1.7606-0.23256-3.2086-0.69877-0.66069-1.4218-1.883-1.6067-2.724-0.18483-0.83692-1.0076-2.2951-1.8282-3.2301-1.3535-1.5416-1.463-1.9454-1.1783-4.3493 0.23797-2.0093 0.66361-2.9611 1.7611-3.9388 0.96051-0.85552 1.3586-1.6281 1.1837-2.297-0.21999-0.84666 0.0655-1.0495 1.727-1.2597 1.2534-0.15853 2.2911 9e-3 2.8021 0.44636 0.48975 0.4189 1.0042 0.51189 1.2975 0.23292 0.26728-0.26038 1.163-0.54909 1.9906-0.64209 1.4622-0.16738 1.9964-0.71647 2.6088-2.675 0.2788-0.89316 0.41979-0.87412 2.4538 0.26038 1.1869 0.66068 2.18 1.4328 2.2069 1.7091 0.0266 0.27897-0.88527 0.78113-2.0271 1.1287l-2.076 0.62348h1.8165c0.99906 0 2.4854 0.39057 3.3031 0.81833 2.5304 1.3202 4.0431 0.66953 2.0904-0.89307-2.5215-2.0219-6.5291-7.1918-6.2132-8.0152 0.14772-0.38171-0.42493-1.4886-1.2724-2.4542-0.84747-0.96516-1.5408-1.8992-1.5408-2.076 0-0.73507 2.3002-0.23292 4.3191 0.94621 1.1926 0.69788 2.8393 1.3874 3.6593 1.5344 0.82 0.14879 1.8894 0.62348 2.3764 1.069 0.48692 0.4375 1.1683 0.79972 1.514 0.79972 0.34575 0 1.553 0.4747 2.6828 1.0485 1.7529 0.89316 2.0542 1.2932 2.0541 2.724-1.9e-4 3.262 0.26941 4.532 0.96185 4.532 1.0684 0 4.4367 1.6737 4.905 2.4374 0.22832 0.37197 1.0457 0.67928 1.8165 0.67928 0.77077 2e-3 2.1021 0.46496 2.9585 1.0345 0.8564 0.56769 2.0617 1.0326 2.6786 1.0345 1.136 3e-3 3.8089 2.6802 3.8089 3.8142 0 0.9471-5.2327 3.8628-8.0766 4.5-1.3942 0.31617-3.7374 1.256-5.2071 2.097-1.4697 0.83781-3.0616 1.5289-3.5376 1.5289-1.0954 0-6.0147 4.9533-6.0147 6.0568 0 0.72622-0.65581 1.6039-4.2478 5.6689-0.4809 0.54909-1.707 1.7686-2.7247 2.7207-1.0178 0.95117-1.8504 1.9227-1.8504 2.1574 0 0.95826 2.2734-0.25683 3.0535-1.6331 0.46142-0.81479 1.2708-1.6189 1.7985-1.789 0.52766-0.16827 1.4035-0.75279 1.9462-1.2957 1.3214-1.3214 4.1806-1.2939 5.3982 0.0974 1.052 1.1628 3.9871 1.3851 6.9734 0.53138 2.1152-0.60223 2.6095-1.2673 2.6201-3.5027 7e-3 -1.3577 0.25781-1.7403 1.3191-2.006 0.72117-0.17713 1.5468-0.7705 1.8348-1.3072 0.28792-0.54024 0.86571-0.97863 1.2838-0.97863 0.50587 0 0.76022-0.54909 0.76022-1.626 0-1.9617 1.0581-5.7697 1.7314-6.233 0.26648-0.18598 1.7646 0.37197 3.3294 1.228 2.2772 1.2494 3.2584 1.5053 4.917 1.2829 1.1433-0.14879 3.1518 0.093 4.4809 0.45521 2.8949 0.87678 2.6683 0.86792 2.6683 0.2037 0-1.1516 3.1633-3.6133 4.6456-3.6133 0.82267 0 1.583-0.26038 1.6894-0.57655 0.10645-0.31617 1.4688-0.66068 3.0275-0.76253 4.5289-0.29757 5.7095-0.66954 7.034-2.2486 1.5525-1.8449 3.5704-2.4124 5.0747-1.4262 1.8113 1.1872 4.2636 1.5323 5.4866 0.77227 0.94565-0.58629 1.3733-0.52075 3.1307 0.48356 1.1195 0.64208 2.3395 1.1759 2.7112 1.1871 0.37161 0 1.5776 0.79087 2.6799 1.735 1.8292 1.5658 2.1465 1.6662 3.633 1.148 0.89582-0.31617 2.2062-0.97587 2.9119-1.4755 1.7572-1.2439 2.4857-1.1472 4.0878 0.53935 0.75686 0.79973 2.1472 1.7668 3.0898 2.15 1.16 0.4747 1.6186 0.94709 1.4194 1.4662-0.16694 0.4375 0.28889 1.349 1.0533 2.1133 1.0859 1.0858 1.2818 1.6535 1.0087 2.9217-0.18643 0.86792-0.46204 2.7419-0.61233 4.1687-0.15038 1.4276-0.5792 2.9456-0.95289 3.3734-0.37373 0.4251-0.75943 1.4781-0.8572 2.3336-0.17314 1.5144-0.10796 1.564 2.4945 1.8837 1.4697 0.17712 2.9294 0.48709 3.2437 0.68193 0.79911 0.49596 0.71214 2.2894-0.24727 5.1048-1.0476 3.0749-0.26029 5.1544 2.1059 5.5653 1.286 0.22141 1.6927 0.69079 2.4928 2.8588 0.5258 1.425 1.7589 3.4194 2.7401 4.4299 0.98118 1.0114 1.784 2.1459 1.784 2.5205 0 0.37196 0.5839 1.3763 1.2975 2.2238 1.3552 1.611 1.7268 3.8277 0.69885 4.1704-1.0646 0.35425 1.101 3.0014 2.4561 3.0014 0.82665 0 1.6429 0.61994 2.5353 1.9369 0.73011 1.0743 1.3162 1.5711 1.3162 1.115 0-0.45167-0.75908-1.8244-1.6867-3.051-0.92773-1.2266-1.9845-2.6286-2.3484-3.1156-0.7992-1.0698-0.32042-2.5949 0.81478-2.5949 1.6027 0 4.2074 2.3115 4.9648 4.406 1.15 3.1794 1.4268 7.7378 0.54608 8.9945-1.1384 1.6251-7.0535 5.2837-8.5432 5.2837-0.73189 0-2.1222 0.58452-3.0894 1.2974-0.96725 0.71737-2.0666 1.2975-2.4429 1.2975-0.3763 0-1.2391 1.254-1.9172 2.788-0.67813 1.5339-1.4926 2.9492-1.81 3.144-0.99708 0.61108-0.62898 1.3346 0.68442 1.3346 0.91293 0 1.3072 0.32768 1.4272 1.1673 0.18775 1.3222 1.4245 1.5658 1.9717 0.38968 1.5667-3.3698 1.9984-3.9198 3.4002-4.3396 0.84755-0.24798 2.3728-0.79707 3.3895-1.2098 1.4514-0.58452 2.6222-0.63766 5.4495-0.25684 3.9073 0.53138 4.3794 0.44282 4.3794-0.7705 0-0.61994 0.32529-0.72621 1.4272-0.44281 0.78502 0.19484 2.0111 0.36311 2.7247 0.36311 0.97724-3e-3 1.6436 0.55794 2.6997 2.2823 0.7713 1.2585 1.552 3.0855 1.7351 4.0615 0.37949 2.0237 0.24727 2.1025-4.4348 2.6578-5.2125 0.61109-14.692 2.3487-22.737 4.1536-40.392 9.0582-74.094 26.672-99.737 52.127-14.365 14.26-26.451 31.643-32.924 47.357-2.4344 5.9098-2.3303 6.3385 0.29031 1.1974 13.755-26.985 39.456-47.253 75.64-59.646 22.36-7.6581 50.776-12.398 76.094-12.693 7.5319-0.0886 8.709 2e-3 8.0445 0.61108-0.42812 0.38968-2.7845 2.3824-5.2364 4.4175l-4.4578 3.7002-8.5171 0.29226c-40.513 1.3718-76.8 11.26-101.6 27.689-7.8864 5.2226-10.862 7.6775-17.979 14.833-9.9408 9.9926-16.27 19.489-21.254 31.892-1.298 3.2299-2.3526 6.0241-2.3435 6.21 9e-3 0.18598 1.4085-2.4355 3.1099-5.8257 4.3367-8.6411 8.1822-14.189 14.084-20.315 13.336-13.847 30.858-21.729 56.747-25.531 6.1295-0.90246 40.288-1.5499 42.245-0.79707 1.1956 0.46053 1.0948 0.59337-2.5616 3.678l-3.8062 3.2033h-10.932c-30.796 0.0886-35.219 0.45167-46.224 3.9818-11.379 3.6497-21.176 9.6295-29.583 18.056-2.8545 2.8606-6.5194 7.0744-8.1441 9.362-3.5885 5.0525-9.0631 15.514-11.258 21.513-1.5336 4.1917-27.048 89.924-27.048 90.886 0 0.24798 7.9081 0.46053 17.891 0.46053h17.89l1.1508-3.763c0.63296-2.0688 4.6775-15.44 8.9879-29.712l7.837-25.95 36.808-0.2834 3.6044-12.839c1.9824-7.0602 3.7006-13.129 3.8183-13.486 0.16845-0.51367-3.662-0.65537-18.007-0.65537-16.368 0-18.22-0.0886-18.22-0.82364 0-0.45167 0.71258-2.9678 1.5835-5.5786 4.2037-12.603 12.81-20.997 25.419-24.79 3.6163-1.0893 5.0589-1.1814 21.355-1.3683l17.477-0.20369-0.30298 1.2053c-0.16659 0.65537-0.73295 1.7606-1.2585 2.4417-0.56185 0.72622-0.95549 2.0919-0.95549 3.3105v2.0715l-1.9462-0.30997c-2.8679-0.45167-3.7562 0.38082-1.2141 1.1389 3.0864 0.9308 4.1983 2.6613 4.1983 6.5528 0 3.0908 0.10017 3.3406 2.4652 6.1215 2.9724 3.4956 5.3197 7.1984 5.3197 8.3922 0 1.8085-1.0318 2.8836-2.769 2.8836-1.6072 0-2.94 0.75279-2.94 1.6606 0 0.68194 1.9708 0.46938 2.2079-0.23027 0.17022-0.50481 0.40854-0.49595 1.0812 0.0886 1.2292 1.014 1.0542 2.1105-0.7085 4.4406-0.86801 1.1469-1.5426 1.6862-1.5426 1.231 0-0.44281-0.34372-1.092-0.76413-1.4409-1.1202-0.9308-2.7486 0.69965-1.819 1.8182 0.34876 0.41625 1.0259 0.76165 1.5047 0.76165 1.4726 0 2.1162 1.1363 2.1162 3.7374 0 1.3701 0.17518 2.5099 0.38924 2.5338 0.21406 0 0.92447 0.10627 1.5787 0.17712 1.4405 0.15942 3.9454 1.9475 4.1453 2.9607 0.0797 0.39854-0.20786 1.1956-0.63889 1.7615-0.60392 0.78822-0.88466 0.87678-1.2242 0.36311-0.24231-0.36311-0.8278-0.52252-1.301-0.33654-0.60834 0.23027-1.1284-0.1417-1.775-1.2806-1.4183-2.4993-2.5596-2.555-4.8064-0.23912-1.0678 1.1008-2.3222 2.3035-2.7875 2.6711-1.023 0.80593-1.1163 2.1849-0.14808 2.1849 0.38392 0 1.1365 0.48709 1.6722 1.0769 0.62429 0.69079 1.4028 0.99456 2.1675 0.8502 0.8216-0.15941 1.7427 0.2834 2.957 1.3887 2.2128 2.0281 2.7128 3.8525 1.6299 5.947-0.90727 1.7544-1.0683 3.7595-0.36293 4.5194 0.50445 0.54024 2.7052 10.696 3.0318 13.987 0.11336 1.1416-0.11035 4.0606-0.49701 6.4872-0.90215 5.661-0.50118 8.115 1.6149 9.881 0.89126 0.74393 1.6204 1.6056 1.6204 1.9147 0 0.30997-0.81735 1.5401-1.8165 2.7357-0.99908 1.1965-1.8165 2.7242-1.8165 3.3964 0 0.77935-0.64713 1.7155-1.8165 2.6073-0.99908 0.76164-1.8165 1.7358-1.8165 2.1636 0 0.4251-0.73427 1.6154-1.6319 2.6365-2.3523 2.6799-3.393 5.4404-4.021 10.669-0.53049 4.4175-0.64598 4.7045-2.8228 7.0328-3.5774 3.8233-4.3354 9.455-2.1185 15.738 1.019 2.888 0.92726 3.7613-0.56424 5.3705-0.71364 0.7705-1.2975 1.6942-1.2975 2.0529 0 0.36311-0.81743 1.6322-1.8165 2.8287-0.99908 1.1956-1.8165 2.602-1.8165 3.1245s-0.55485 1.3887-1.233 1.9218c-0.67813 0.53138-1.7382 1.8926-2.3556 3.0218-0.61737 1.1283-1.5599 2.7525-2.0944 3.609-0.83772 1.3417-1.4955 4.0305-1.5634 6.3898-0.0142 0.51367-0.59559 0.59337-2.3038 0.33654-2.0392-0.30997-2.3225-0.22141-2.6405 0.77936-0.32458 1.022-0.45575 1.0566-1.4785 0.38082-0.63916-0.41625-1.2415-1.4985-1.3992-2.4984l-0.27693-1.7553-0.90411 1.6862c-0.94491 1.7633-1.8228 2.0502-3.5066 1.1487-0.55884-0.30112-1.0039-0.32769-1.0039-0.0974 0 0.96268 1.7712 1.9006 3.6878 1.9528 2.28 0.0974 4.6162 1.4002 4.6162 2.6427 0 1.2204 1.5189 2.7348 2.4034 2.3956 0.41191-0.15941 1.1105-0.98659 1.5524-1.8412 0.58646-1.1345 0.95832-1.3984 1.3769-0.97951 0.41855 0.41624 0.33662 1.0698-0.30369 2.4116-1.2996 2.7251-1.1206 4.1554 0.68088 5.4378 2.7589 1.9652 2.877 2.7233 1.2226 7.8538-0.81567 2.5294-1.7389 4.5991-2.0514 4.6-1.119 0-2.419-2.0122-2.1626-3.3539 0.32237-1.6854-0.28349-1.6809-1.3926 0-0.7155 1.092-1.2084 1.2992-2.7844 1.1682-1.4962-0.12399-1.8813-0.36311-1.7609-1.0752 0.25258-1.4994-1.4604-1.7465-2.5059-0.36311-0.80637 1.069-4.1639 2.5914-7.5717 3.4336-0.80575 0.19484-1.6636-0.30112-3.203-1.8519-1.1564-1.1673-2.4426-2.1237-2.8582-2.1237-0.41563 0-1.0416-0.3454-1.3911-0.76165-0.44397-0.54023-1.2843-0.69079-2.7883-0.52252-5.4059 0.61109-5.7762 0.57566-5.947-0.61994-0.10344-0.72622 0.5212-1.8873 1.7471-3.2432 1.0495-1.162 1.7793-2.1131 1.6216-2.1131-0.59745 0-6.7694 4.4574-6.9588 5.026-0.10911 0.32768 0.29836 0.75278 0.90568 0.94585 0.78458 0.24798 0.99687 0.59338 0.73366 1.2116-0.20379 0.47824-0.48188 1.5127-0.61809 2.3071-0.15897 0.92991-0.79113 1.727-1.7655 2.2309-0.8348 0.42511-2.3323 2.0582-3.3278 3.6143-0.99554 1.5569-2.1532 2.8305-2.5726 2.8305-1.098 0-0.95449-2.2114 0.2423-3.7329 0.86978-1.1062 0.96369-1.8209 0.69903-5.32-0.2834-3.748-0.45158-4.2121-2.3023-6.35-1.4639-1.6916-1.9965-2.7729-1.9965-4.0544 0-1.2638-0.37365-2.0414-1.3489-2.8074l-1.3489-1.0619 1.0243-1.7004c0.61825-1.0273 1.153-3.1422 1.349-5.335 0.29465-3.2963 0.25258-3.5399-0.45389-2.6259-0.4282 0.55795-0.77856 1.7881-0.77856 2.7428 0 0.95294-0.58389 2.8863-1.2975 4.2944-0.71364 1.4082-1.2975 3.3725-1.2975 4.3635 0 2.2034-0.51003 2.5586-4.152 2.8978l-2.8545 0.25683 2.2867 1.1434c2.5817 1.2904 3.8459 0.98217 4.8288-1.1752 0.74535-1.6366 2.4852-1.704 2.4879-0.0974 1e-3 0.63765 0.49631 1.9785 1.1005 2.9695 0.96755 1.587 1.0228 2.0122 0.46328 3.5594-0.5405 1.4941-0.49551 2.0662 0.302 3.8348l0.93727 2.0786-2.4329 2.2982c-2.13 2.013-2.7085 2.2929-4.6463 2.2486-1.2174 0-2.9724 0.10627-3.9002 0.30111-2.1636 0.44282-2.2015-0.3454-0.12975-2.7047 0.85641-0.97508 1.557-1.975 1.557-2.222 0-0.23912-1.0532-0.53138-2.3404-0.6288-1.9606-0.15941-2.3927 0-2.663 0.82364-0.17739 0.55795-1.2846 1.9183-2.4603 3.0209-1.8452 1.7305-2.3509 1.9537-3.6948 1.6313-2.8363-0.68193-11.168-0.5668-11.771 0.15942-0.31953 0.38082-1.687 0.67308-3.2427 0.67308-2.0545 0-3.1056 0.30997-4.4488 1.2974-0.96726 0.71736-2.4079 1.2974-3.2015 1.2974-1.0782 0-1.6463 0.38968-2.248 1.556-0.96897 1.8749-1.4437 1.9351-2.6923 0.3454-0.52315-0.66422-1.2278-1.1159-1.5659-1.0034-0.33804 0.11513-1.0364 0-1.5517-0.30111-0.827-0.43396-0.94-0.25684-0.96231 1.5233-0.0283 2.2477-0.0407 2.2336 1.3351 1.4976 0.79246-0.42511 1.1015-0.30112 1.6006 0.65536 0.82036 1.5569 1.4554 1.9324 3.3176 1.959h1.557l-1.6668 1.4135c-0.91676 0.7705-2.1281 2.5072-2.692 3.8445-1.2336 2.9261-2.7595 4.0084-7.275 5.1579-3.1943 0.81478-3.4074 0.95914-3.2666 2.2282 0.20069 1.8076-1.0572 2.238-3.3472 1.146-1.6935-0.80593-1.9008-0.79707-3.3649 0.0974-1.5043 0.88563-1.5863 0.88563-2.289-0.0974-0.40075-0.5491-0.6048-1.4852-0.45327-2.0892 0.1874-0.74393-0.14808-1.4958-1.0492-2.3425-1.4846-1.3949-1.5864-2.1459-0.72666-5.3598 0.43272-1.6189 0.44405-2.6604 0.0407-3.771l-0.55698-1.5339-0.0407 1.6676c-0.0221 0.92106-0.51109 2.9235-1.0858 4.46l-1.0448 2.7915 1.0805 2.4426c1.2723 2.8765 1.0252 4.8214-0.83426 6.5687-1.4956 1.4046-1.5774 1.9714-0.40775 2.8261 0.49489 0.3631 0.72781 0.9839 0.54608 1.4568-0.33875 0.8857-4.8668 2.4391-7.0966 2.4391-2.0017 0-3.6543 1.3745-3.6543 3.0395 0 1.6083-0.83444 2.6684-2.0994 2.6684-0.46956 0-1.2765 0.4694-1.7931 1.0388-0.58798 0.6554-1.5985 1.038-2.7012 1.038-0.96902 0-2.4643 0.3631-3.3229 0.8059-1.9254 0.9955-8.5775 0.8679-9.6314-0.186-0.75323-0.7528-0.90541-2.5958-0.29385-3.5567 0.21069-0.3365 1.4333-1.1602 2.7168-1.8412 1.8518-0.9831 2.3058-1.4879 2.1992-2.4435-0.0735-0.6553 0.33477-1.9625 0.90829-2.8898 0.57345-0.93081 1.0427-1.8014 1.0427-1.9404 0-0.1417-1.6248-0.1771-3.6106-0.097-1.9858 0.097-3.7512-0.089-3.9231-0.3366-0.17181-0.2834-0.7984-0.5048-1.3924-0.5048-0.59391 0-1.347-0.3631-1.6735-0.8059-0.53032-0.7262-0.73897-0.6996-1.9556 0.2568-1.6918 1.3311-2.0963 1.3356-3.2742 0-0.51667-0.5668-1.4287-1.0344-2.0267-1.0308-0.8805 0-0.94062 0.1062-0.31591 0.4959 0.63199 0.3986 0.6636 0.7705 0.17482 2.068-0.59895 1.587-0.22105 1.9643 1.6154 1.6092 0.26702-0.097 1.0239 0 1.682 0.2037 1.0628 0.2656 1.1825 0.5756 1.0714 2.756-0.11557 2.2717-0.0283 2.4683 1.1725 2.6118 0.71365 0.089 1.6478 0.2834 2.076 0.4251 0.65838 0.2214 0.63969 0.3454-0.12116 0.7705-0.74951 0.4162-0.79352 0.6731-0.26436 1.5224 0.34938 0.5579 1.0211 1.0167 1.4928 1.0167 1.3296 0 1.5763 1.4684 0.43794 2.6064-0.56441 0.5668-1.2858 1.0264-1.603 1.0264-0.37985 0-0.45849 0.6288-0.23044 1.8466 0.32192 1.7155 0.17075 2.0086-2.148 4.1607-1.3719 1.2726-3.0782 2.4364-3.7918 2.586-0.71365 0.1506-2.339 0.7882-3.6119 1.4188-1.2729 0.6288-2.5268 1.146-2.7864 1.146-0.25958 0-0.73614-0.797-1.0591-1.7766-0.3229-0.9777-0.91155-1.8837-1.3081-2.0139-0.44689-0.1505-0.5792 0-0.34814 0.3631 0.20503 0.3366 0.57522 1.309 0.82258 2.1716 0.3593 1.2532 0.24842 1.7695-0.55078 2.5683-0.82842 0.8237-1.247 0.9122-2.4324 0.4606-1.2692-0.4871-1.5675-0.3809-2.626 0.921-0.97062 1.1885-1.1378 1.8598-0.89321 3.5877 0.2176 1.5375 0.0868 2.3035-0.4724 2.7676-0.64881 0.5402-0.89861 0.3454-1.5503-1.2177-0.76882-1.8395-0.80938-1.859-3.888-1.859-2.5656 0-3.244-0.186-3.8694-1.0831-0.62118-0.8856-0.94899-0.9804-1.8118-0.5225-0.57938 0.3099-1.6915 0.5668-2.4715 0.5668-2.499 0-0.21291 0.8856 2.5732 0.999 0.7155 0 0.8634 0.2745 0.57389 0.9467-0.21441 0.5048-0.43051 1.4923-0.48028 2.2061-0.20812 2.9881-1.3219 4.6319-3.5433 5.2306-1.8528 0.5048-2.2176 0.4605-2.8062-0.3543-0.37206-0.5137-0.67645-1.1141-0.67645-1.3453 0-0.2302-0.44919-0.4162-0.99816-0.4162-0.549 0-1.7202-0.6022-2.6027-1.3497-0.88244-0.7439-1.945-1.2195-2.3613-1.0601-0.41625 0.1594-1.4504-0.3011-2.2982-1.0061-1.5056-1.2673-1.5542-1.2735-2.09-0.2745-0.81266 1.5179-0.67202 2.1317 0.4894 2.1317 1.3474 0 1.3968 1.8465 0.0691 2.5568-0.68203 0.3631-0.89535 0.9122-0.71923 1.8297 0.16004 0.8325-5e-3 1.3763-0.45769 1.4958-0.97529 0.2569-3.6311 1.1762-4.7331 1.6358-0.71302 0.3011-1.0803 0-1.6894-1.4834-0.92113-2.2053-3.052-3.8198-4.0193-3.0466-0.3554 0.2923-2.0156 0.6819-3.6893 0.8856-2.9474 0.3543-3.0982 0.3189-4.793-1.3275-2.1512-2.0866-3.0422-1.5773-0.99026 0.5668 1.4671 1.5321 1.4707 1.5516 0.48117 2.6631-0.54821 0.6111-2.1281 1.649-3.5108 2.2955-1.4974 0.6997-3.0265 1.9298-3.7814 3.0404-1.2004 1.7668-2.7871 2.5134-2.7871 1.3125 0-0.31-0.43865-0.4162-0.99615-0.2391-0.71931 0.2214-1.0929 0-1.3445-0.7794-0.30395-0.9573-0.45823-1.0069-1.2096-0.3808-1.366 1.1363-3.6262 1.9546-5.3942 1.9546h-1.6297l1.3363-1.4268c0.73498-0.7793 1.5114-2.0112 1.7255-2.725 0.21406-0.7174 0.82417-1.8537 1.3558-2.5347 1.2483-1.5986 1.2335-2.3151-0.0337-1.6367-0.55016 0.3011-1.3676 0.3897-1.8165 0.2214-0.44892-0.1771-0.81611-0.097-0.81611 0.2392 0 0.8502-3.1273 4.2253-3.9113 4.2253-0.37941 0-0.84578-0.4959-1.0365-1.092-0.26126-0.8148 0.11088-1.5613 1.5092-2.9925l1.8559-1.9006-1.5265-0.6819c-1.7503-0.7705-2.8593-0.31-2.8593 1.2124 0 0.8325-0.35328 1.0415-1.8165 1.0592-0.99908 0-2.6339 0.5402-3.633 1.1655-2.3339 1.4702-2.584 1.4436-2.648-0.2834-0.0523-1.3922-0.0673-1.3851-0.60763 0.31-0.48878 1.5286-0.7233 1.7004-1.9761 1.4489-0.9702-0.1949-1.5141 0-1.7133 0.4782-0.16057 0.4163-0.89908 1.0371-1.6411 1.3763-1.6371 0.7439-2.2928 0-2.305-2.571-0.0106-2.0263-0.31351-2.0972-1.6577-0.3897-0.56389 0.7174-1.5586 1.2983-2.2228 1.2983-0.81151 0-1.1787 0.2923-1.1301 0.8768 0.0399 0.4871-0.47425 1.1575-1.1421 1.4985-0.8123 0.4163-0.98409 0.6997-0.51907 0.8591 0.57309 0.1948 0.56627 0.3897-0.03897 1.123-0.94268 1.1415-4.5456 0.9839-4.2878-0.186 0.13284-0.6023-0.03897-0.5757-0.8193 0.1328-1.0894 0.9857-3.2413 1.2116-3.2413 0.3454zm31.14-10.865c0-0.2923-0.24736-0.5226-0.54962-0.5226-0.30227 0-0.40527 0.2303-0.22885 0.5226 0.17642 0.2834 0.42378 0.5225 0.54962 0.5225 0.12594 0 0.22885-0.2303 0.22885-0.5225z" fill="#008e4b"/>
  <path d="m443.38 698.11-4.3757 3.6293-8.5148 0.29226c-40.513 1.371-76.8 11.262-101.6 27.689-7.8864 5.2243-10.862 7.6784-17.979 14.833-9.9408 9.9935-16.272 19.491-21.257 31.894-1.298 3.229-2.3506 6.0232-2.3416 6.21 9e-3 0.18599 1.4072-2.4355 3.1086-5.8248 4.3367-8.6411 8.1819-14.19 14.083-20.318 13.336-13.845 30.859-21.73 56.749-25.53 6.1295-0.90246 40.288-1.5507 42.246-0.80592 1.1956 0.45167 1.0952 0.60223-2.5612 3.6798l-0.18244 0.15056c1.9841-1.6694 5.5805-4.6257 8.0147-6.5926 12.636-10.21 30.072-24.784 30.072-25.136 0-0.22141 2.0435-2.0945 4.5412-4.1687zm-176.14 140.44c-0.0859-0.0974-0.86685 1.309-2.3821 4.1262-7.0736 13.148-13.825 21.022-24.693 28.791-13.632 9.7446-32.95 15.963-56.417 18.163-7.2943 0.68194-29.248 0.69079-37.942 0-8.4898-0.66422-21.082-2.0502-22.703-2.5037l-1.2333-0.3454c-0.8895 1.301-1.822 2.6737-3.0883 4.5681l-18.165 29.94c3.9605 0 20.386-1.2638 28.116-2.1078 71.284-7.7829 119.48-34.565 136.72-75.985 1.2653-3.0386 1.873-4.5796 1.7874-4.6558zm-136.92 42.594c-0.21618 2e-3 -0.46691 0-0.64536 0h0.64536zm-0.71975 0c-0.31679 0-0.59152 0.0886-0.77378 0.1417h-0.0337c0.19626-0.0974 0.47877-0.12398 0.80752-0.15055zm-0.80752 0.15056c-0.70621 0.26569-1.2057 0.24798-1.6388 0 0.40066 0.30997 0.86482 0.31883 1.6388 0z" fill="#f69b19"/>
 </g>
</svg>
