<svg width="158.03mm" height="82.153mm" version="1.1" viewBox="0 0 158.03 82.153" xmlns="http://www.w3.org/2000/svg">
 <g transform="translate(-.67838 -.98091)" stroke-width=".26458" aria-label="Anything But Conservative">
  <g fill="#333">
   <path d="m14.098 19.386-1.5503-4.4648h-6.6601l-1.5503 4.4648h-3.6587l6.3748-17.475h4.316l6.35 17.475zm-4.8865-14.784-0.074414 0.27285q-0.12402 0.44648-0.29766 1.017t-2.1332 6.2756h5.0229l-1.7239-5.0229-0.5333-1.6867z"/>
   <path d="m28.856 19.386v-7.5282q0-3.5347-2.3937-3.5347-1.265 0-2.0464 1.0914-0.76894 1.079-0.76894 2.7781v7.1934h-3.4851v-10.418q0-1.079-0.03721-1.7611-0.0248-0.69453-0.06201-1.2402h3.3238q0.03721 0.23564 0.09922 1.265 0.06201 1.017 0.06201 1.4015h0.04961q0.70693-1.5379 1.7735-2.2324 1.0666-0.69453 2.5425-0.69453 2.1332 0 3.2742 1.3146t1.141 3.8447v8.5204z"/>
   <path d="m37.414 24.657q-1.2526 0-2.1952-0.16123v-2.4805q0.65732 0.09922 1.203 0.09922 0.74414 0 1.2278-0.23564 0.49609-0.23564 0.88057-0.78135 0.39688-0.5457 0.88057-1.8479l-5.3082-13.283h3.6835l2.1084 6.288q0.49609 1.3519 1.2526 4.1424l0.31006-1.1782 0.80615-2.9146 1.9844-6.3376h3.6463l-5.3082 14.126q-1.0666 2.5797-2.22 3.5719-1.141 0.99219-2.9518 0.99219z"/>
   <path d="m53.24 19.609q-1.5379 0-2.3688-0.83096-0.83096-0.84336-0.83096-2.5425v-7.9127h-1.6991v-2.3564h1.8728l1.0914-3.1502h2.1828v3.1502h2.5425v2.3564h-2.5425v6.9701q0 0.97978 0.37207 1.4511 0.37207 0.45889 1.1534 0.45889 0.40928 0 1.1658-0.17363v2.158q-1.2898 0.42168-2.9394 0.42168z"/>
   <path d="m61.698 8.6456q0.70693-1.5379 1.7735-2.2324 1.0666-0.69453 2.5425-0.69453 2.1332 0 3.2742 1.3146t1.141 3.8447v8.508h-3.4727v-7.5158q0-3.5347-2.3937-3.5347-1.265 0-2.0464 1.0914-0.76895 1.079-0.76895 2.7781v7.181h-3.4851v-18.405h3.4851v5.0229q0 1.3519-0.09922 2.6417z"/>
   <path d="m73.778 3.5482v-2.5673h3.4851v2.5673zm0 15.838v-13.419h3.4851v13.419z"/>
   <path d="m89.529 19.386v-7.5282q0-3.5347-2.3937-3.5347-1.265 0-2.0464 1.0914-0.76894 1.079-0.76894 2.7781v7.1934h-3.4851v-10.418q0-1.079-0.03721-1.7611-0.02481-0.69453-0.06201-1.2402h3.3238q0.03721 0.23564 0.09922 1.265 0.06201 1.017 0.06201 1.4015h0.04961q0.70693-1.5379 1.7735-2.2324 1.0666-0.69453 2.5425-0.69453 2.1332 0 3.2742 1.3146t1.141 3.8447v8.5204z"/>
   <path d="m101.97 24.769q-2.4557 0-3.9564-0.94258-1.4883-0.93018-1.8355-2.6665l3.4851-0.40928q0.18604 0.80615 0.79375 1.265 0.62012 0.45889 1.6123 0.45889 1.4511 0 2.1208-0.89297 0.66973-0.89297 0.66973-2.6541v-0.70693l0.0248-1.3271h-0.0248q-1.1534 2.4681-4.316 2.4681-2.344 0-3.6339-1.7611t-1.2898-5.0354q0-3.2866 1.3271-5.0726 1.3271-1.7859 3.8571-1.7859 2.927 0 4.0556 2.4185h0.062q0-0.43408 0.0496-1.1782 0.062-0.74414 0.12403-0.97979h3.299q-0.0744 1.3395-0.0744 3.1006v9.9095q0 2.8649-1.6247 4.3284t-4.7253 1.4635zm2.9146-12.278q0-2.0712-0.74414-3.2246-0.73174-1.1658-2.096-1.1658-2.7905 0-2.7905 4.4648 0 4.378 2.7657 4.378 1.3891 0 2.1208-1.1534 0.74414-1.1658 0.74414-3.299z"/>
   <path d="m17.236 46.15q0 2.3812-1.7859 3.6835-1.7859 1.3022-4.9609 1.3022h-8.7437v-17.475h7.9995q3.1998 0 4.8369 1.1162 1.6495 1.1038 1.6495 3.2742 0 1.4883-0.83096 2.5177-0.81855 1.017-2.5053 1.3767 2.1208 0.24805 3.2246 1.3395 1.1162 1.079 1.1162 2.8649zm-4.6881-7.6026q0-1.1782-0.75654-1.6743-0.74414-0.49609-2.22-0.49609h-4.1672v4.3284h4.192q1.5503 0 2.2448-0.5333 0.70693-0.5457 0.70693-1.6247zm1.017 7.3174q0-2.4557-3.5223-2.4557h-4.6385v5.0105h4.7749q1.7611 0 2.5673-0.63252 0.81855-0.64492 0.81855-1.9224z"/>
   <path d="m23.449 37.717v7.5282q0 3.5347 2.3812 3.5347 1.265 0 2.034-1.079 0.78135-1.0914 0.78135-2.7905v-7.1934h3.4851v10.418q0 1.7115 0.09922 3.0014h-3.3238q-0.14883-1.7859-0.14883-2.6665h-0.06201q-0.69453 1.5255-1.7735 2.22-1.0666 0.69453-2.5425 0.69453-2.1332 0-3.2742-1.3022-1.141-1.3146-1.141-3.8447v-8.5204z"/>
   <path d="m39.113 51.359q-1.5379 0-2.3688-0.83096-0.83096-0.84336-0.83096-2.5425v-7.9127h-1.6991v-2.3564h1.8728l1.0914-3.1502h2.1828v3.1502h2.5425v2.3564h-2.5425v6.9701q0 0.97978 0.37207 1.4511 0.37207 0.45889 1.1534 0.45889 0.40928 0 1.1658-0.17363v2.158q-1.2898 0.42168-2.9394 0.42168z"/>
  </g>
  <g fill="#a60000">
   <g id="conservative">
    <path d="m9.9057 80.257q3.3114 0 4.6013-3.3238l3.1874 1.203q-1.0294 2.5301-3.0262 3.7703-1.9844 1.2278-4.7625 1.2278-4.2168 0-6.5236-2.3812-2.2944-2.3937-2.2944-6.6849 0-4.3036 2.22-6.6104t6.4368-2.3068q3.0758 0 5.0105 1.2402 1.9348 1.2278 2.7161 3.6215l-3.2246 0.88057q-0.40928-1.3146-1.6123-2.0836-1.1906-0.78135-2.8153-0.78135-2.4805 0-3.7703 1.5379-1.2774 1.5379-1.2774 4.5021 0 3.0138 1.3146 4.6013 1.3271 1.5875 3.8199 1.5875z"/>
    <path d="m32.912 76.164q0 3.2618-1.8107 5.1222-1.8107 1.8479-5.0105 1.8479-3.1378 0-4.9237-1.8604t-1.7859-5.1098q0-3.237 1.7859-5.085 1.7859-1.8604 4.9981-1.8604 3.2866 0 5.0105 1.7983 1.7363 1.7859 1.7363 5.147zm-3.6463 0q0-2.3937-0.78135-3.4727t-2.2696-1.079q-3.175 0-3.175 4.5517 0 2.2448 0.76894 3.423 0.78135 1.1658 2.2448 1.1658 3.2122 0 3.2122-4.5889z"/>
    <path d="m44.372 82.886v-7.5282q0-3.5347-2.3937-3.5347-1.265 0-2.0464 1.0914-0.76894 1.079-0.76894 2.7781v7.1934h-3.4851v-10.418q0-1.079-0.03721-1.7611-0.02481-0.69453-0.06201-1.2402h3.3238q0.03721 0.23564 0.09922 1.265 0.06201 1.017 0.06201 1.4015h0.04961q0.70693-1.5379 1.7735-2.2324 1.0666-0.69453 2.5425-0.69453 2.1332 0 3.2742 1.3146t1.141 3.8447v8.5204z"/>
    <path d="m62.504 78.967q0 1.9472-1.5999 3.0634-1.5875 1.1038-4.4028 1.1038-2.7657 0-4.2416-0.86816-1.4635-0.88057-1.9472-2.7285l3.0634-0.45889q0.26045 0.95498 0.89297 1.3519 0.64492 0.39688 2.2324 0.39688 1.4635 0 2.1332-0.37207t0.66973-1.1658q0-0.64492-0.5457-1.017-0.5333-0.38447-1.8231-0.64492-2.9518-0.58291-3.9812-1.079-1.0294-0.5085-1.5751-1.3022-0.5333-0.80615-0.5333-1.972 0-1.9224 1.4759-2.989 1.4883-1.079 4.2044-1.079 2.3937 0 3.8447 0.93018 1.4635 0.93018 1.8231 2.6913l-3.0882 0.32246q-0.14883-0.81856-0.73174-1.2154-0.58291-0.40928-1.8479-0.40928-1.2402 0-1.8604 0.32246-0.62012 0.31006-0.62012 1.0542 0 0.58291 0.47129 0.93018 0.48369 0.33486 1.6123 0.5581 1.5751 0.32246 2.7905 0.66973 1.2278 0.33486 1.9596 0.80615 0.74414 0.47129 1.1782 1.2154 0.44648 0.73174 0.44648 1.8852z"/>
    <path d="m70.814 83.134q-3.0262 0-4.6509-1.7859-1.6247-1.7983-1.6247-5.2338 0-3.3238 1.6495-5.1098 1.6495-1.7859 4.6757-1.7859 2.8897 0 4.4152 1.9224 1.5255 1.91 1.5255 5.6059v0.09922h-8.6072q0 1.9596 0.71934 2.9642 0.73174 0.99219 2.0712 0.99219 1.8479 0 2.3316-1.5999l3.2866 0.28525q-1.4263 3.6463-5.7919 3.6463zm0-11.72q-1.2278 0-1.8976 0.85576-0.65732 0.85576-0.69453 2.3937h5.209q-0.09922-1.6247-0.78135-2.4309-0.68213-0.81855-1.8355-0.81855z"/>
    <path d="m79.446 82.886v-10.269q0-1.1038-0.03721-1.8355-0.02481-0.74414-0.06201-1.3146h3.3238q0.03721 0.22324 0.09922 1.3643 0.06201 1.1286 0.06201 1.5007h0.04961q0.5085-1.4139 0.90537-1.9844 0.39688-0.58291 0.94258-0.85576 0.5457-0.28525 1.3643-0.28525 0.66973 0 1.079 0.18604v2.9146q-0.84336-0.18604-1.4883-0.18604-1.3022 0-2.034 1.0542-0.71934 1.0542-0.71934 3.1254v6.5856z"/>
    <path d="m96.623 82.886h-4.1672l-4.7997-13.419h3.6835l2.344 7.5034q0.18604 0.62012 0.88057 3.1006 0.12402-0.5085 0.5085-1.7859t2.8525-8.8181h3.6463z"/>
    <path d="m106.56 83.134q-1.9472 0-3.0386-1.0542-1.0914-1.0666-1.0914-2.989 0-2.0836 1.3519-3.175 1.3643-1.0914 3.9439-1.1162l2.8898-0.04961v-0.68213q0-1.3146-0.45889-1.9472-0.45888-0.64492-1.5007-0.64492-0.96738 0-1.4263 0.44648-0.44648 0.43408-0.5581 1.4511l-3.6339-0.17363q0.33486-1.9596 1.7859-2.9642 1.4635-1.017 3.9812-1.017 2.5425 0 3.9191 1.2526 1.3767 1.2526 1.3767 3.5595v4.8865q0 1.1286 0.24805 1.5627 0.26045 0.42168 0.85576 0.42168 0.39687 0 0.76894-0.07441v1.8852q-0.31006 0.07441-0.5581 0.13642-0.24805 0.06201-0.4961 0.09922-0.24804 0.03721-0.5333 0.06201-0.27285 0.02481-0.64492 0.02481-1.3146 0-1.9472-0.64492-0.62011-0.64492-0.74414-1.8976h-0.0744q-1.4635 2.6417-4.4152 2.6417zm4.0556-6.4616-1.7859 0.02481q-1.2154 0.04961-1.7239 0.27285-0.5085 0.21084-0.78135 0.65732-0.26045 0.44648-0.26045 1.1906 0 0.95498 0.43408 1.4263 0.44649 0.45889 1.1782 0.45889 0.81856 0 1.4883-0.44648 0.68213-0.44648 1.0666-1.2278 0.38447-0.79375 0.38447-1.6743z"/>
    <path d="m121.02 83.109q-1.5379 0-2.3688-0.83096-0.83096-0.84336-0.83096-2.5425v-7.9127h-1.6991v-2.3564h1.8728l1.0914-3.1502h2.1828v3.1502h2.5425v2.3564h-2.5425v6.9701q0 0.97978 0.37207 1.4511 0.37207 0.45889 1.1534 0.45889 0.40928 0 1.1658-0.17363v2.158q-1.2898 0.42168-2.9394 0.42168z"/>
    <path d="m126.04 67.048v-2.5673h3.4851v2.5673zm0 15.838v-13.419h3.4851v13.419z"/>
    <path d="m140.39 82.886h-4.1672l-4.7997-13.419h3.6835l2.344 7.5034q0.18604 0.62012 0.88057 3.1006 0.12402-0.5085 0.50849-1.7859 0.38448-1.2774 2.8525-8.8181h3.6463z"/>
    <path d="m152.72 83.134q-3.0262 0-4.6509-1.7859-1.6247-1.7983-1.6247-5.2338 0-3.3238 1.6495-5.1098 1.6495-1.7859 4.6757-1.7859 2.8898 0 4.4152 1.9224 1.5255 1.91 1.5255 5.6059v0.09922h-8.6072q0 1.9596 0.71934 2.9642 0.73173 0.99219 2.0712 0.99219 1.848 0 2.3316-1.5999l3.2866 0.28525q-1.4263 3.6463-5.7919 3.6463zm0-11.72q-1.2278 0-1.8976 0.85576-0.65733 0.85576-0.69454 2.3937h5.209q-0.0992-1.6247-0.78135-2.4309-0.68213-0.81855-1.8356-0.81855z"/>
   </g>
  </g>
 </g>
</svg>
