<svg width="158.03mm" height="82.153mm" version="1.1" viewBox="0 0 158.03 82.153" xmlns="http://www.w3.org/2000/svg">
 <g id="conservative" transform="translate(-.67838 -.98091)" stroke-width=".26458" aria-label="Anything But Conservative">
  <g fill="#333">
   <path d="m14.098 19.386-1.5503-4.4648h-6.6601l-1.5503 4.4648h-3.6587l6.3748-17.475h4.316l6.35 17.475zm-4.8865-14.784-0.074414 0.27285q-0.12402 0.44648-0.29766 1.017t-2.1332 6.2756h5.0229l-1.7239-5.0229-0.5333-1.6867z"/>
   <path d="m28.856 19.386v-7.5282q0-3.5347-2.3937-3.5347-1.265 0-2.0464 1.0914-0.76894 1.079-0.76894 2.7781v7.1934h-3.4851v-10.418q0-1.079-0.03721-1.7611-0.0248-0.69453-0.06201-1.2402h3.3238q0.03721 0.23564 0.09922 1.265 0.06201 1.017 0.06201 1.4015h0.04961q0.70693-1.5379 1.7735-2.2324 1.0666-0.69453 2.5425-0.69453 2.1332 0 3.2742 1.3146t1.141 3.8447v8.5204z"/>
   <path d="m37.414 24.657q-1.2526 0-2.1952-0.16123v-2.4805q0.65732 0.09922 1.203 0.09922 0.74414 0 1.2278-0.23564 0.49609-0.23564 0.88057-0.78135 0.39688-0.5457 0.88057-1.8479l-5.3082-13.283h3.6835l2.1084 6.288q0.49609 1.3519 1.2526 4.1424l0.31006-1.1782 0.80615-2.9146 1.9844-6.3376h3.6463l-5.3082 14.126q-1.0666 2.5797-2.22 3.5719-1.141 0.99219-2.9518 0.99219z"/>
   <path d="m53.24 19.609q-1.5379 0-2.3688-0.83096-0.83096-0.84336-0.83096-2.5425v-7.9127h-1.6991v-2.3564h1.8728l1.0914-3.1502h2.1828v3.1502h2.5425v2.3564h-2.5425v6.9701q0 0.97978 0.37207 1.4511 0.37207 0.45889 1.1534 0.45889 0.40928 0 1.1658-0.17363v2.158q-1.2898 0.42168-2.9394 0.42168z"/>
   <path d="m61.698 8.6456q0.70693-1.5379 1.7735-2.2324 1.0666-0.69453 2.5425-0.69453 2.1332 0 3.2742 1.3146t1.141 3.8447v8.508h-3.4727v-7.5158q0-3.5347-2.3937-3.5347-1.265 0-2.0464 1.0914-0.76895 1.079-0.76895 2.7781v7.181h-3.4851v-18.405h3.4851v5.0229q0 1.3519-0.09922 2.6417z"/>
   <path d="m73.778 3.5482v-2.5673h3.4851v2.5673zm0 15.838v-13.419h3.4851v13.419z"/>
   <path d="m89.529 19.386v-7.5282q0-3.5347-2.3937-3.5347-1.265 0-2.0464 1.0914-0.76894 1.079-0.76894 2.7781v7.1934h-3.4851v-10.418q0-1.079-0.03721-1.7611-0.02481-0.69453-0.06201-1.2402h3.3238q0.03721 0.23564 0.09922 1.265 0.06201 1.017 0.06201 1.4015h0.04961q0.70693-1.5379 1.7735-2.2324 1.0666-0.69453 2.5425-0.69453 2.1332 0 3.2742 1.3146t1.141 3.8447v8.5204z"/>
   <path d="m101.97 24.769q-2.4557 0-3.9564-0.94258-1.4883-0.93018-1.8355-2.6665l3.4851-0.40928q0.18604 0.80615 0.79375 1.265 0.62012 0.45889 1.6123 0.45889 1.4511 0 2.1208-0.89297 0.66973-0.89297 0.66973-2.6541v-0.70693l0.0248-1.3271h-0.0248q-1.1534 2.4681-4.316 2.4681-2.344 0-3.6339-1.7611t-1.2898-5.0354q0-3.2866 1.3271-5.0726 1.3271-1.7859 3.8571-1.7859 2.927 0 4.0556 2.4185h0.062q0-0.43408 0.0496-1.1782 0.062-0.74414 0.12403-0.97979h3.299q-0.0744 1.3395-0.0744 3.1006v9.9095q0 2.8649-1.6247 4.3284t-4.7253 1.4635zm2.9146-12.278q0-2.0712-0.74414-3.2246-0.73174-1.1658-2.096-1.1658-2.7905 0-2.7905 4.4648 0 4.378 2.7657 4.378 1.3891 0 2.1208-1.1534 0.74414-1.1658 0.74414-3.299z"/>
   <path d="m17.236 46.15q0 2.3812-1.7859 3.6835-1.7859 1.3022-4.9609 1.3022h-8.7437v-17.475h7.9995q3.1998 0 4.8369 1.1162 1.6495 1.1038 1.6495 3.2742 0 1.4883-0.83096 2.5177-0.81855 1.017-2.5053 1.3767 2.1208 0.24805 3.2246 1.3395 1.1162 1.079 1.1162 2.8649zm-4.6881-7.6026q0-1.1782-0.75654-1.6743-0.74414-0.49609-2.22-0.49609h-4.1672v4.3284h4.192q1.5503 0 2.2448-0.5333 0.70693-0.5457 0.70693-1.6247zm1.017 7.3174q0-2.4557-3.5223-2.4557h-4.6385v5.0105h4.7749q1.7611 0 2.5673-0.63252 0.81855-0.64492 0.81855-1.9224z"/>
   <path d="m23.449 37.717v7.5282q0 3.5347 2.3812 3.5347 1.265 0 2.034-1.079 0.78135-1.0914 0.78135-2.7905v-7.1934h3.4851v10.418q0 1.7115 0.09922 3.0014h-3.3238q-0.14883-1.7859-0.14883-2.6665h-0.06201q-0.69453 1.5255-1.7735 2.22-1.0666 0.69453-2.5425 0.69453-2.1332 0-3.2742-1.3022-1.141-1.3146-1.141-3.8447v-8.5204z"/>
   <path d="m39.113 51.359q-1.5379 0-2.3688-0.83096-0.83096-0.84336-0.83096-2.5425v-7.9127h-1.6991v-2.3564h1.8728l1.0914-3.1502h2.1828v3.1502h2.5425v2.3564h-2.5425v6.9701q0 0.97978 0.37207 1.4511 0.37207 0.45889 1.1534 0.45889 0.40928 0 1.1658-0.17363v2.158q-1.2898 0.42168-2.9394 0.42168z"/>
  </g>
  <g fill="#a60000">
   <g stroke-width=".99999">
    <path transform="matrix(.26458 0 0 .26458 .67838 .98091)" d="m52.979 239.23-7.8223 4.5703c-3.2463-0.84069-6.8708-1.2695-10.891-1.2695-6.8635 0-12.672 1.2191-17.436 3.6445l-8.2598-2.8516 1.1895 8.1211c-5.4722 5.8033-8.2129 14.064-8.2129 24.789 0 4.2721 0.45884 8.1638 1.3613 11.689l-3.7871 6.4531 6.2676 0.24609c1.2882 2.5583 2.8926 4.8556 4.8301 6.877 5.5372 5.7158 13.263 8.7021 23.168 8.9727l4.1797 6.7266 4.1953-7.2676c4.1301-0.69946 7.8402-2.0471 11.113-4.0723 5.0313-3.1249 8.8437-7.875 11.438-14.25l-12.047-4.5469c-3.2501 8.3749-9.0469 12.562-17.391 12.562-5.0378 0-9.129-1.29-12.277-3.8633l1.2578-5.873-5.0156 1.4453c-2.2456-3.8161-3.3711-8.8471-3.3711-15.1 0-7.4688 1.6095-13.141 4.8281-17.016 2.3302-2.7784 5.436-4.5555 9.3086-5.3418l4.1855 6.1035 3.4375-6.418c2.9794 0.34388 5.6356 1.2721 7.959 2.7969 3.0312 1.9376 5.0625 4.5626 6.0938 7.875l12.188-3.3281c-1.9424-5.951-5.3062-10.466-10.078-13.557l-0.41211-8.1191z"/>
    <path transform="matrix(.26458 0 0 .26458 .67838 .98091)" d="m89.982 251.61-3.7383 7.8066c-3.452 1.1655-6.3906 3.0008-8.8066 5.5176-4.4999 4.6564-6.75 11.063-6.75 19.219 0 5.4414 1.0007 10.104 2.9883 14l-3.6738 7.0391 8.1816-0.99023c4.4309 4.1948 10.384 6.2949 17.863 6.2949 8.0625 0 14.375-2.3282 18.938-6.9844 0.87984-0.90399 1.6726-1.8748 2.3828-2.9102l7.5644-0.28906-4.1582-7.3223c0.69933-2.6765 1.0547-5.6202 1.0547-8.8379 0-8.4689-2.1876-14.953-6.5625-19.453-4.3437-4.5311-10.656-6.7969-18.937-6.7969-0.53301 0-1.0568 0.01092-1.5742 0.03125l-4.7715-6.3242zm5.1758 15.402 3.2637 7.7949 4.0508-6.2793c1.0004 0.63956 1.8759 1.4709 2.6211 2.5 1.9688 2.7187 2.9531 7.0936 2.9531 13.125 0 3.3461-0.34954 6.1926-1.0274 8.5703l-6.5801-0.53711 2.873 6.8633c-1.8981 1.6308-4.3667 2.4473-7.4062 2.4473-3.6874 0-6.5156-1.4688-8.4844-4.4062-1.9375-2.9687-2.9062-7.2813-2.9062-12.938 0-10.799 3.5495-16.51 10.643-17.141z"/>
    <path transform="matrix(.26458 0 0 .26458 .67838 .98091)" d="m161.58 257.86c-3.7188-1e-5 -6.9219 0.875-9.6094 2.625-2.6874 1.7499-4.9219 4.5625-6.7031 8.4375h-0.1875c0-0.96882-0.07812-2.7344-0.23437-5.2969-0.15625-2.5937-0.28124-4.1875-0.375-4.7812h-12.562c0.09373 1.3749 0.17186 2.9375 0.23437 4.6875 0.09376 1.7187 0.14063 3.9375 0.14063 6.6562v20.107l-5.8613 3.7129 5.8613 3.4199v12.135h13.172v-27.188c0-3.1641 0.53349-5.8983 1.5918-8.209l5.8477 1.6855-1.3828-6.9102c1.3557-0.78594 2.88-1.1914 4.584-1.1914 6.0314 0 9.0469 4.453 9.0469 13.359v28.453h13.125v-32.203c0-2.0022-0.15977-3.835-0.44335-5.5352l4.8301-6.7051-7.7305-1.0332c-0.30282-0.44014-0.62479-0.86151-0.96876-1.2578-2.875-3.3124-7-4.9687-12.375-4.9687z"/>
    <path transform="matrix(.26458 0 0 .26458 .67838 .98091)" d="m195.21 254.66-0.94726 8.0273c-3.0893 2.6235-4.6524 6.134-4.6523 10.549 0 2.9376 0.67187 5.4219 2.0156 7.4531 1.375 1.9999 3.3594 3.6387 5.9531 4.9199 2.5938 1.25 7.6093 2.6094 15.047 4.0781 3.2499 0.65625 5.5469 1.4688 6.8906 2.4375 1.375 0.93752 2.0625 2.2188 2.0625 3.8438-7e-5 2-0.84381 3.4688-2.5312 4.4062-1.6874 0.9375-4.375 1.4062-8.0625 1.4062-4 0-6.8125-0.49999-8.4375-1.5-1.5938-1.0001-2.7188-2.7031-3.375-5.1094l-11.578 1.7344c0.41342 1.5794 0.98025 3.0077 1.6777 4.3066l-0.86718 7.334 5.4629-2.0566c0.35202 0.25303 0.70797 0.5011 1.0859 0.72852 3.7188 2.1875 9.0626 3.2812 16.031 3.2812 7.0937 0 12.641-1.3906 16.641-4.1719 4.0307-2.8121 6.0463-6.6708 6.0469-11.576v-0.00195c-2.6e-4 -2.9054-0.56277-5.2817-1.6875-7.125-0.81321-1.3941-1.8447-2.5953-3.0898-3.6094l-0.01172-6.8633-6.5273 3.5078c-0.70383-0.23594-1.4464-0.45998-2.2305-0.67383-3.0624-0.87501-6.5781-1.7188-10.547-2.5312-2.8437-0.5625-4.875-1.2656-6.0937-2.1094-1.1875-0.87501-1.7813-2.0469-1.7813-3.5156 0-1.875 0.78125-3.2031 2.3438-3.9844 1.5627-0.81249 3.9063-1.2188 7.0312-1.2188 3.1874 0 5.5156 0.51562 6.9844 1.5469 1.4688 0.99991 2.3906 2.5293 2.7656 4.5918l11.672-1.2187c-0.90608-4.4375-3.2031-7.8281-6.8906-10.172-3.6561-2.3438-8.4999-3.5156-14.531-3.5156-3.6446 0-6.8363 0.39888-9.6035 1.1699l-6.2656-4.3691z"/>
    <path transform="matrix(.26458 0 0 .26458 .67838 .98091)" d="m270.59 252.25-5.4023 5.6582c-7.5848 0.01631-13.449 2.2645-17.59 6.748-0.74638 0.80814-1.4228 1.6821-2.0352 2.6152l-7.5371 1.123 4.457 5.9922c-0.74348 2.849-1.1191 6.0399-1.1191 9.582 0 7.5678 1.5645 13.56 4.6934 17.975l-0.90235 6.9883 5.1719-2.6465c3.8191 2.8055 8.7351 4.2148 14.756 4.2148 6.5009 0 11.697-1.6172 15.611-4.8262l6.7324 0.74609-2.3496-5.8594c0.71328-1.1798 1.3527-2.4517 1.8965-3.8418l-12.422-1.0781c-1.2188 4.0312-4.1564 6.0469-8.8125 6.0469-3.375 0-5.9844-1.25-7.8281-3.75-1.8125-2.5313-2.7188-6.2656-2.7188-11.203h4.791l3.6953 5.2012 2.5879-5.2012h21.457v-0.375c0-9.3125-1.9218-16.375-5.7656-21.188-2.3913-3.0134-5.4503-5.0878-9.1719-6.2266l-2.1953-6.6953zm-5.5078 13.953c2.9061 0 5.2188 1.0313 6.9375 3.0938 1.7188 2.0314 2.7031 5.0938 2.9531 9.1875h-19.688c0.09376-3.8751 0.96876-6.8906 2.625-9.0469 1.6877-2.1562 4.0782-3.2344 7.1719-3.2344z"/>
    <path transform="matrix(.26458 0 0 .26458 .67838 .98091)" d="m322.83 257.86c-2.0626 0-3.7813 0.35938-5.1562 1.0781-1.375 0.6875-2.5625 1.7656-3.5625 3.2344-0.99999 1.4375-2.1406 3.9374-3.4219 7.5h-0.1875c0-0.93758-0.07813-2.8282-0.23437-5.6719-0.15625-2.8751-0.28124-4.5957-0.375-5.1582h-12.562c0.09373 1.4374 0.17186 3.0938 0.23437 4.9688 0.09376 1.8436 0.14063 4.1563 0.14063 6.9375v16.959l-5.8516 6.7852 5.8516 0.64844v14.42l13.172 0.00195v-24.891c0-3.6928 0.46356-6.7309 1.3711-9.1406l7.627 0.84375-2.6621-6.6406c1.2066-0.56382 2.5586-0.85938 4.0703-0.85938 1.625 0 3.5 0.23437 5.625 0.70313v-11.016c-1.0312-0.46876-2.3906-0.70312-4.0781-0.70312z"/>
    <path transform="matrix(.26458 0 0 .26458 .67838 .98091)" d="m373.71 251.26-5.0488 7.582h-1.1152c-6.2186 19-9.8125 30.109-10.781 33.328-0.96876 3.2186-1.6094 5.4687-1.9219 6.75-1.75-6.25-2.8594-10.156-3.3281-11.719l-6.1855-19.801 4.9883-6.627-7.418-1.1523-0.24414-0.7793h-13.922l15.215 42.539-6.4609 6.3418 9.3867 1.8359h15.75l6.832-18.525 7.2227-1.4043-4.6152-5.668 9.2637-25.119h-3.4238l-4.1934-7.582z"/>
    <path transform="matrix(.26458 0 0 .26458 .67838 .98091)" d="m408.67 257.91c-6.3438 0-11.359 1.2812-15.047 3.8438-3.6562 2.5313-5.9063 6.2656-6.75 11.203l13.734 0.65626c0.0667-0.60776 0.15927-1.1721 0.27343-1.6973l7.3926 1.5977-1.9844-6.9473c0.56164-0.08094 1.1645-0.125 1.8184-0.125 2.625 0 4.5176 0.8125 5.6738 2.4375 1.1563 1.594 1.7344 4.047 1.7344 7.3594v2.5781l-10.924 0.1875c-6.4998 0.06249-11.469 1.4688-14.906 4.2188-3.1256 2.5233-4.799 6.1121-5.0566 10.74l-6.5996 6.2266 7.6484 1.6562c0.68686 1.8096 1.6903 3.371 3.0234 4.6738 2.75 2.6563 6.578 3.9844 11.484 3.9844 7.4374 0 13-3.3281 16.688-9.9844h0.28125c0.08679 0.87661 0.22695 1.6868 0.41016 2.4453l-2.4688 8.2676 8.1152-1.6562c1.182 0.36333 2.549 0.55273 4.1152 0.55273 0.93749 0 1.75-0.03124 2.4375-0.09375 0.71876-0.06249 1.3906-0.14062 2.0156-0.23437 0.62501-0.09376 1.25-0.21876 1.875-0.375 0.62498-0.15625 1.3281-0.32814 2.1094-0.51563v-7.125c-0.9375 0.18749-1.9063 0.28125-2.9062 0.28125-1.5 0-2.5781-0.53125-3.2344-1.5938-0.62501-1.0938-0.9375-3.0625-0.9375-5.9062v-18.469c0-5.8127-1.7343-10.297-5.2031-13.453-3.4686-3.1562-8.4062-4.7344-14.812-4.7344zm6.8457 28.172v2.5781c0 2.2187-0.48438 4.3281-1.4531 6.3281-0.96874 1.9687-2.3125 3.5156-4.0312 4.6406-1.6875 1.125-3.5625 1.6875-5.625 1.6875-1.8437 0-3.3281-0.57812-4.4531-1.7344-1.0938-1.1876-1.6406-2.9844-1.6406-5.3906 0-1.875 0.32813-3.375 0.98438-4.5 0.68749-1.125 1.6719-1.9531 2.9531-2.4844 1.2813-0.56249 3.4532-0.90624 6.5156-1.0312l6.75-0.09376z"/>
    <path transform="matrix(.26458 0 0 .26458 .67838 .98091)" d="m447.52 246.94-0.80078 2.3106-8.127 1.7246 5.3359 6.3301-0.53321 1.541h-7.0781v8.9062h6.4219v19.062l-6.5078 4.7148 6.5078 3.1641v2.9648c0 3.7284 0.79494 6.6374 2.3828 8.7305l0.10742 9.2578 7.6113-5.3535c0.63908 0.06767 1.2955 0.11523 1.9922 0.11523 4.1565 0 7.8595-0.53125 11.109-1.5938v-8.1562c-1.9062 0.43749-3.375 0.65625-4.4062 0.65625-1.9687 0-3.4219-0.57812-4.3594-1.7344-0.93749-1.1876-1.4062-3.0176-1.4062-5.4863v-6.9766l6.084-4.2793-6.084-3.0625v-12.023h8.6777l3.543 0.61914-2.6113-7.9258v-1.5996h-9.6094v-11.906h-8.25z"/>
    <path transform="matrix(.26458 0 0 .26458 .67838 .98091)" d="m482.93 234.34-5.3652 5.6562h-3.7598v9.7031h13.172v-9.7031h-2.1699l-1.877-5.6562zm-9.125 24.502v32.605l-5.5957 5.8984 5.5957 1.6152v10.598h13.172v-36.793l2.6055 0.75195-2.6055-7.8594v-6.8164h-13.172z"/>
    <path transform="matrix(.26458 0 0 .26458 .67838 .98091)" d="m494.15 258.85 13.672 38.227-4.1035 2.8516 6.3164 3.334 2.2559 6.3047h15.75l3.4082-9.2441 5.6621 0.44922-3.5508-6.1699 13.184-35.752h-13.781c-1.7036 5.2051-2.7216 8.3523-4.0312 12.373l-7.6738 4.4199 5.1543 3.3047c-2.1548 6.6475-3.6928 11.444-4.2305 13.23-0.96874 3.2186-1.6094 5.4687-1.9219 6.75-1.75-6.25-2.8594-10.156-3.3281-11.719l-5.125-16.408-0.2832-9.0352-2.1523 1.2402-1.2988-4.1562h-13.922z"/>
    <path transform="matrix(.26458 0 0 .26458 .67838 .98091)" d="m591.97 256.77-6.5352 3.4082c-2.9974-1.5158-6.5322-2.2754-10.605-2.2754-4.0752 0-7.65 0.64826-10.734 1.9336l-7.5859-2.9766 0.79883 7.6387c-0.04937 0.05231-0.10151 0.10137-0.15039 0.1543-4.1562 4.5002-6.2344 10.938-6.2344 19.312 0 5.4245 0.80648 10.039 2.4141 13.844l-3.5918 5.7676 7.7441 0.61133c4.0704 4.2012 9.7873 6.3082 17.154 6.3086 5.571-2.8e-4 10.188-1.184 13.859-3.541l8.5312 0.67579-3.2891-5.7148c1.0916-1.5323 2.0269-3.2578 2.7871-5.2012l-12.422-1.0781c-1.2185 4.0312-4.1542 6.0469-8.8106 6.0469-3.375 0-5.9863-1.25-7.8301-3.75-1.8125-2.5313-2.7188-6.2656-2.7188-11.203h32.531v-0.375c0-9.0139-1.805-15.913-5.4062-20.711l0.09375-8.875zm-17.328 9.4297h0.00195c2.9054 4.8e-4 5.2172 1.0317 6.9356 3.0938 1.7188 2.0314 2.7032 5.0938 2.9531 9.1875h-19.688c0.02612-1.0799 0.1201-2.0848 0.26757-3.0313l5.6055 0.44336-3.5039-6.0859c0.08614-0.12344 0.16502-0.25479 0.25586-0.37305 1.6873-2.1558 4.0792-3.2339 7.1719-3.2344z"/>
   </g>
  </g>
 </g>
</svg>
